<svg width="527" height="288" viewBox="0 0 527 288" fill="none" xmlns="http://www.w3.org/2000/svg">
<path d="M336.375 130.859C336.375 131.245 336.286 131.599 336.109 131.922C335.932 132.234 335.755 132.495 335.578 132.703C334.995 133.391 334.406 134.005 333.812 134.547C333.229 135.089 332.656 135.552 332.094 135.938C331.531 136.312 330.99 136.599 330.469 136.797C329.958 136.995 329.479 137.094 329.031 137.094C328.365 137.094 327.786 136.99 327.297 136.781C326.818 136.573 326.422 136.292 326.109 135.938C325.797 135.573 325.562 135.151 325.406 134.672C325.26 134.193 325.188 133.688 325.188 133.156C325.188 132.354 325.25 131.51 325.375 130.625C325.51 129.74 325.698 128.885 325.938 128.062C325.302 129.167 324.651 130.188 323.984 131.125C323.328 132.052 322.661 132.854 321.984 133.531C321.318 134.198 320.646 134.719 319.969 135.094C319.302 135.469 318.63 135.656 317.953 135.656C317.609 135.656 317.24 135.594 316.844 135.469C316.458 135.333 316.094 135.104 315.75 134.781C315.417 134.448 315.135 134.01 314.906 133.469C314.688 132.917 314.578 132.229 314.578 131.406C314.578 131.229 314.589 130.964 314.609 130.609C314.641 130.245 314.682 129.844 314.734 129.406C314.786 128.969 314.844 128.526 314.906 128.078C314.979 127.62 315.052 127.208 315.125 126.844C315.01 126.979 314.88 127.188 314.734 127.469C314.599 127.75 314.458 128.068 314.312 128.422C314.167 128.776 314.016 129.156 313.859 129.562C313.703 129.958 313.547 130.349 313.391 130.734C313.234 131.109 313.078 131.464 312.922 131.797C312.766 132.13 312.609 132.406 312.453 132.625C311.984 133.302 311.521 133.885 311.062 134.375C310.615 134.865 310.146 135.266 309.656 135.578C309.177 135.891 308.667 136.12 308.125 136.266C307.583 136.411 306.99 136.484 306.344 136.484C305.833 136.484 305.333 136.401 304.844 136.234C304.365 136.068 303.938 135.812 303.562 135.469C303.188 135.125 302.885 134.693 302.656 134.172C302.438 133.651 302.328 133.036 302.328 132.328C302.328 131.641 302.474 131.125 302.766 130.781C303.057 130.438 303.542 130.266 304.219 130.266C304.417 130.266 304.615 130.302 304.812 130.375C305.01 130.448 305.188 130.562 305.344 130.719C305.5 130.865 305.63 131.052 305.734 131.281C305.849 131.51 305.911 131.776 305.922 132.078C305.932 132.266 305.969 132.448 306.031 132.625C306.104 132.792 306.193 132.943 306.297 133.078C306.411 133.203 306.536 133.307 306.672 133.391C306.807 133.464 306.953 133.5 307.109 133.5C307.432 133.5 307.776 133.396 308.141 133.188C308.505 132.979 308.87 132.682 309.234 132.297C309.609 131.901 309.969 131.427 310.312 130.875C310.667 130.323 310.99 129.708 311.281 129.031C311.562 128.385 311.849 127.76 312.141 127.156C312.443 126.552 312.724 125.995 312.984 125.484C313.255 124.964 313.5 124.5 313.719 124.094C313.948 123.688 314.13 123.37 314.266 123.141C314.297 123.078 314.349 122.995 314.422 122.891C314.505 122.776 314.594 122.656 314.688 122.531C314.792 122.396 314.896 122.266 315 122.141C315.104 122.016 315.193 121.911 315.266 121.828C315.297 121.797 315.391 121.745 315.547 121.672C315.714 121.589 315.891 121.51 316.078 121.438C316.266 121.354 316.443 121.286 316.609 121.234C316.786 121.172 316.906 121.141 316.969 121.141C317.094 121.141 317.25 121.156 317.438 121.188C317.635 121.208 317.823 121.266 318 121.359C318.177 121.443 318.328 121.573 318.453 121.75C318.578 121.927 318.641 122.167 318.641 122.469C318.641 122.729 318.635 122.964 318.625 123.172C318.615 123.37 318.599 123.568 318.578 123.766C318.557 123.953 318.531 124.141 318.5 124.328C318.469 124.516 318.427 124.724 318.375 124.953C318.302 125.276 318.234 125.667 318.172 126.125C318.109 126.583 318.052 127.047 318 127.516C317.958 127.984 317.922 128.432 317.891 128.859C317.87 129.286 317.859 129.635 317.859 129.906C317.859 130.688 317.917 131.302 318.031 131.75C318.156 132.198 318.312 132.422 318.5 132.422C318.698 132.422 318.906 132.365 319.125 132.25C319.354 132.135 319.573 132.005 319.781 131.859C319.99 131.703 320.177 131.547 320.344 131.391C320.51 131.234 320.63 131.115 320.703 131.031C321.255 130.448 321.781 129.839 322.281 129.203C322.792 128.568 323.26 127.927 323.688 127.281C324.125 126.635 324.526 126 324.891 125.375C325.255 124.75 325.573 124.156 325.844 123.594C325.927 123.438 326.036 123.271 326.172 123.094C326.307 122.917 326.464 122.755 326.641 122.609C326.828 122.464 327.026 122.344 327.234 122.25C327.443 122.156 327.661 122.109 327.891 122.109C327.984 122.109 328.13 122.151 328.328 122.234C328.536 122.318 328.74 122.432 328.938 122.578C329.135 122.714 329.307 122.87 329.453 123.047C329.609 123.224 329.688 123.406 329.688 123.594C329.688 123.844 329.672 124.099 329.641 124.359C329.62 124.609 329.573 124.88 329.5 125.172C329.406 125.526 329.307 125.943 329.203 126.422C329.099 126.901 329 127.417 328.906 127.969C328.823 128.521 328.75 129.104 328.688 129.719C328.635 130.333 328.609 130.948 328.609 131.562C328.609 132.354 328.714 132.969 328.922 133.406C329.141 133.844 329.432 134.062 329.797 134.062C330.297 134.062 330.922 133.839 331.672 133.391C332.422 132.932 333.24 132.214 334.125 131.234C334.396 130.932 334.672 130.708 334.953 130.562C335.245 130.406 335.464 130.328 335.609 130.328C335.839 130.328 336.021 130.375 336.156 130.469C336.302 130.552 336.375 130.682 336.375 130.859ZM341.469 124.625C341.448 124.448 341.406 124.286 341.344 124.141C341.281 123.995 341.146 123.922 340.938 123.922C340.521 123.922 340.135 124.094 339.781 124.438C339.427 124.781 339.094 125.25 338.781 125.844C338.479 126.427 338.203 127.109 337.953 127.891C337.703 128.672 337.474 129.51 337.266 130.406C337.349 130.344 337.443 130.26 337.547 130.156C337.661 130.052 337.771 129.948 337.875 129.844C337.99 129.729 338.094 129.625 338.188 129.531C338.292 129.427 338.375 129.344 338.438 129.281C339.062 128.625 339.573 128.057 339.969 127.578C340.365 127.089 340.672 126.667 340.891 126.312C341.12 125.948 341.271 125.635 341.344 125.375C341.427 125.104 341.469 124.854 341.469 124.625ZM353.047 126.234C353.047 126.328 353.01 126.505 352.938 126.766C352.865 127.026 352.729 127.281 352.531 127.531C351.344 129.042 350.182 130.458 349.047 131.781C347.911 133.094 346.797 134.24 345.703 135.219C344.609 136.188 343.536 136.953 342.484 137.516C341.443 138.078 340.422 138.359 339.422 138.359C338.484 138.359 337.677 138.208 337 137.906C336.323 137.604 335.76 137.182 335.312 136.641C334.875 136.089 334.552 135.427 334.344 134.656C334.135 133.885 334.031 133.031 334.031 132.094C334.031 131.385 334.099 130.635 334.234 129.844C334.359 129.052 334.557 128.26 334.828 127.469C335.089 126.677 335.422 125.901 335.828 125.141C336.245 124.38 336.734 123.682 337.297 123.047C337.536 122.776 337.818 122.51 338.141 122.25C338.464 121.99 338.807 121.76 339.172 121.562C339.536 121.354 339.917 121.188 340.312 121.062C340.708 120.927 341.094 120.859 341.469 120.859C341.906 120.859 342.307 120.948 342.672 121.125C343.047 121.302 343.365 121.536 343.625 121.828C343.885 122.109 344.089 122.438 344.234 122.812C344.38 123.177 344.453 123.557 344.453 123.953C344.453 124.359 344.38 124.812 344.234 125.312C344.099 125.812 343.891 126.333 343.609 126.875C343.328 127.417 342.979 127.964 342.562 128.516C342.156 129.068 341.688 129.599 341.156 130.109C340.958 130.297 340.714 130.516 340.422 130.766C340.141 131.016 339.833 131.281 339.5 131.562C339.177 131.844 338.839 132.13 338.484 132.422C338.13 132.703 337.792 132.964 337.469 133.203C337.479 133.432 337.531 133.672 337.625 133.922C337.719 134.161 337.859 134.385 338.047 134.594C338.234 134.792 338.474 134.958 338.766 135.094C339.057 135.219 339.406 135.281 339.812 135.281C340.552 135.281 341.354 135.026 342.219 134.516C343.083 133.995 343.99 133.312 344.938 132.469C345.885 131.625 346.859 130.667 347.859 129.594C348.87 128.51 349.885 127.406 350.906 126.281C351.052 126.115 351.24 125.943 351.469 125.766C351.698 125.589 351.969 125.5 352.281 125.5C352.344 125.5 352.417 125.521 352.5 125.562C352.594 125.594 352.677 125.646 352.75 125.719C352.833 125.781 352.901 125.859 352.953 125.953C353.016 126.036 353.047 126.13 353.047 126.234ZM376.547 126.703C376.547 126.828 376.406 127.115 376.125 127.562C375.854 128 375.453 128.547 374.922 129.203C374.391 129.859 373.74 130.599 372.969 131.422C372.208 132.234 371.339 133.083 370.359 133.969C369.661 134.594 368.969 135.182 368.281 135.734C367.594 136.286 366.896 136.766 366.188 137.172C365.49 137.589 364.776 137.911 364.047 138.141C363.318 138.38 362.552 138.5 361.75 138.5C361.177 138.5 360.625 138.401 360.094 138.203C359.573 138.005 359.115 137.703 358.719 137.297C358.323 136.901 358.005 136.406 357.766 135.812C357.526 135.208 357.406 134.505 357.406 133.703C357.406 133.349 357.432 132.964 357.484 132.547C357.536 132.12 357.62 131.688 357.734 131.25C357.849 130.802 357.995 130.359 358.172 129.922C358.349 129.484 358.562 129.078 358.812 128.703C358.646 128.818 358.432 128.922 358.172 129.016C357.922 129.099 357.656 129.172 357.375 129.234C357.094 129.297 356.812 129.344 356.531 129.375C356.26 129.406 356.021 129.422 355.812 129.422C355.135 129.422 354.51 129.318 353.938 129.109C353.365 128.901 352.87 128.609 352.453 128.234C352.047 127.849 351.724 127.385 351.484 126.844C351.255 126.292 351.141 125.677 351.141 125C351.141 124.615 351.208 124.297 351.344 124.047C351.479 123.786 351.646 123.583 351.844 123.438C352.042 123.281 352.26 123.172 352.5 123.109C352.74 123.047 352.958 123.016 353.156 123.016C353.458 123.016 353.703 123.057 353.891 123.141C354.089 123.214 354.245 123.318 354.359 123.453C354.484 123.589 354.573 123.75 354.625 123.938C354.677 124.125 354.714 124.333 354.734 124.562C354.766 124.792 354.797 125.026 354.828 125.266C354.859 125.495 354.927 125.703 355.031 125.891C355.146 126.078 355.312 126.234 355.531 126.359C355.76 126.474 356.083 126.531 356.5 126.531C356.792 126.531 357.109 126.474 357.453 126.359C357.807 126.245 358.156 126.094 358.5 125.906C358.854 125.708 359.188 125.484 359.5 125.234C359.823 124.974 360.099 124.708 360.328 124.438C360.464 124.281 360.599 124.12 360.734 123.953C360.87 123.786 361.016 123.635 361.172 123.5C361.339 123.354 361.516 123.24 361.703 123.156C361.901 123.062 362.12 123.016 362.359 123.016C362.568 123.016 362.766 123.057 362.953 123.141C363.141 123.214 363.302 123.318 363.438 123.453C363.583 123.578 363.698 123.724 363.781 123.891C363.865 124.047 363.906 124.203 363.906 124.359C363.906 124.693 363.802 125.115 363.594 125.625C363.385 126.135 363.094 126.724 362.719 127.391C362.469 127.828 362.234 128.286 362.016 128.766C361.797 129.234 361.604 129.719 361.438 130.219C361.281 130.708 361.151 131.203 361.047 131.703C360.953 132.203 360.906 132.698 360.906 133.188C360.906 133.938 361.036 134.495 361.297 134.859C361.557 135.214 361.969 135.391 362.531 135.391C363.052 135.391 363.62 135.266 364.234 135.016C364.849 134.755 365.49 134.406 366.156 133.969C366.823 133.531 367.505 133.021 368.203 132.438C368.901 131.844 369.594 131.214 370.281 130.547C370.979 129.88 371.661 129.193 372.328 128.484C372.995 127.766 373.625 127.068 374.219 126.391C374.375 126.214 374.568 126.042 374.797 125.875C375.026 125.708 375.307 125.625 375.641 125.625C375.901 125.625 376.115 125.703 376.281 125.859C376.458 126.005 376.547 126.286 376.547 126.703ZM406.828 130.984C406.828 131.193 406.729 131.464 406.531 131.797C406.344 132.12 406.109 132.448 405.828 132.781C405.349 133.344 404.818 133.911 404.234 134.484C403.651 135.057 403.047 135.573 402.422 136.031C401.797 136.479 401.156 136.844 400.5 137.125C399.844 137.417 399.193 137.562 398.547 137.562C397.505 137.562 396.693 137.214 396.109 136.516C395.536 135.807 395.167 134.797 395 133.484C394.979 133.286 394.958 133.068 394.938 132.828C394.917 132.589 394.901 132.339 394.891 132.078C394.88 131.818 394.87 131.557 394.859 131.297C394.849 131.036 394.844 130.786 394.844 130.547C394.844 130.13 394.844 129.719 394.844 129.312C394.844 128.896 394.833 128.526 394.812 128.203C394.802 127.88 394.781 127.62 394.75 127.422C394.719 127.214 394.672 127.109 394.609 127.109C394.484 127.109 394.344 127.208 394.188 127.406C394.031 127.604 393.839 127.911 393.609 128.328C393.391 128.734 393.125 129.25 392.812 129.875C392.51 130.5 392.151 131.24 391.734 132.094C391.38 132.812 391.062 133.411 390.781 133.891C390.5 134.359 390.229 134.734 389.969 135.016C389.708 135.297 389.448 135.5 389.188 135.625C388.927 135.74 388.646 135.797 388.344 135.797C388.104 135.797 387.87 135.755 387.641 135.672C387.411 135.589 387.198 135.474 387 135.328C386.812 135.182 386.641 135.016 386.484 134.828C386.339 134.641 386.229 134.448 386.156 134.25C386.01 133.854 385.901 133.375 385.828 132.812C385.766 132.24 385.693 131.573 385.609 130.812C385.547 130.25 385.49 129.734 385.438 129.266C385.385 128.786 385.333 128.38 385.281 128.047C385.229 127.703 385.172 127.438 385.109 127.25C385.057 127.062 384.99 126.969 384.906 126.969C384.76 126.969 384.604 127.036 384.438 127.172C384.281 127.297 384.115 127.464 383.938 127.672C383.281 128.474 382.682 129.281 382.141 130.094C381.599 130.896 381.104 131.698 380.656 132.5C380.531 132.729 380.38 132.995 380.203 133.297C380.026 133.599 379.844 133.906 379.656 134.219C379.469 134.531 379.281 134.833 379.094 135.125C378.917 135.417 378.755 135.667 378.609 135.875C378.505 136.01 378.344 136.13 378.125 136.234C377.906 136.339 377.672 136.427 377.422 136.5C377.182 136.562 376.948 136.615 376.719 136.656C376.49 136.688 376.312 136.703 376.188 136.703C375.917 136.703 375.693 136.609 375.516 136.422C375.349 136.234 375.214 135.974 375.109 135.641C375.005 135.297 374.932 134.896 374.891 134.438C374.859 133.969 374.844 133.458 374.844 132.906C374.844 132.448 374.87 131.927 374.922 131.344C374.984 130.76 375.057 130.161 375.141 129.547C375.234 128.922 375.328 128.302 375.422 127.688C375.526 127.073 375.62 126.505 375.703 125.984C375.807 125.349 375.885 124.802 375.938 124.344C376 123.875 376.031 123.49 376.031 123.188C376.031 122.823 376.156 122.516 376.406 122.266C376.656 122.016 377 121.891 377.438 121.891C378.833 121.891 379.531 122.724 379.531 124.391C379.531 124.609 379.5 124.901 379.438 125.266C379.375 125.62 379.297 126.016 379.203 126.453C379.109 126.88 379.005 127.328 378.891 127.797C378.776 128.266 378.661 128.724 378.547 129.172C378.443 129.609 378.344 130.021 378.25 130.406C378.167 130.792 378.099 131.115 378.047 131.375C378.13 131.26 378.245 131.078 378.391 130.828C378.547 130.568 378.708 130.292 378.875 130C379.052 129.698 379.219 129.411 379.375 129.141C379.542 128.859 379.677 128.635 379.781 128.469C380.333 127.594 380.854 126.812 381.344 126.125C381.844 125.438 382.318 124.844 382.766 124.344C383.703 123.292 384.76 122.766 385.938 122.766C386.271 122.766 386.562 122.839 386.812 122.984C387.062 123.12 387.276 123.307 387.453 123.547C387.641 123.776 387.792 124.047 387.906 124.359C388.021 124.661 388.115 124.984 388.188 125.328C388.25 125.62 388.307 125.948 388.359 126.312C388.411 126.667 388.458 127.031 388.5 127.406C388.552 127.781 388.599 128.161 388.641 128.547C388.682 128.922 388.719 129.281 388.75 129.625C388.802 130.135 388.844 130.51 388.875 130.75C388.917 130.979 388.958 131.151 389 131.266C389.052 131.193 389.151 131 389.297 130.688C389.453 130.375 389.62 130.021 389.797 129.625C389.984 129.219 390.172 128.812 390.359 128.406C390.557 128 390.724 127.667 390.859 127.406C391.245 126.677 391.609 126.057 391.953 125.547C392.307 125.036 392.656 124.625 393 124.312C393.354 123.99 393.719 123.755 394.094 123.609C394.469 123.464 394.88 123.391 395.328 123.391C395.786 123.391 396.172 123.469 396.484 123.625C396.807 123.781 397.073 124 397.281 124.281C397.5 124.552 397.667 124.88 397.781 125.266C397.896 125.641 397.984 126.057 398.047 126.516C398.099 126.87 398.13 127.297 398.141 127.797C398.161 128.286 398.177 128.792 398.188 129.312C398.198 129.823 398.208 130.328 398.219 130.828C398.229 131.318 398.255 131.75 398.297 132.125C398.38 132.854 398.521 133.453 398.719 133.922C398.917 134.38 399.193 134.609 399.547 134.609C399.776 134.609 400.073 134.521 400.438 134.344C400.802 134.167 401.208 133.917 401.656 133.594C402.104 133.271 402.573 132.891 403.062 132.453C403.562 132.016 404.052 131.531 404.531 131C404.76 130.75 405.005 130.547 405.266 130.391C405.526 130.234 405.781 130.156 406.031 130.156C406.24 130.156 406.422 130.24 406.578 130.406C406.745 130.573 406.828 130.766 406.828 130.984ZM411.984 125.078C411.964 124.714 411.896 124.469 411.781 124.344C411.667 124.208 411.505 124.141 411.297 124.141C410.984 124.141 410.651 124.312 410.297 124.656C409.953 125 409.625 125.453 409.312 126.016C409 126.578 408.729 127.224 408.5 127.953C408.271 128.672 408.115 129.411 408.031 130.172C408.229 129.984 408.448 129.807 408.688 129.641C408.938 129.464 409.214 129.219 409.516 128.906C409.859 128.562 410.182 128.229 410.484 127.906C410.786 127.583 411.047 127.266 411.266 126.953C411.495 126.641 411.672 126.328 411.797 126.016C411.922 125.703 411.984 125.391 411.984 125.078ZM420.609 131.094C420.609 131.26 420.542 131.464 420.406 131.703C420.271 131.943 420.13 132.141 419.984 132.297C419.297 133.089 418.562 133.859 417.781 134.609C417.01 135.359 416.193 136.031 415.328 136.625C414.474 137.208 413.583 137.677 412.656 138.031C411.729 138.385 410.781 138.562 409.812 138.562C408.875 138.562 408.062 138.417 407.375 138.125C406.698 137.833 406.141 137.422 405.703 136.891C405.266 136.349 404.943 135.698 404.734 134.938C404.526 134.177 404.422 133.328 404.422 132.391C404.422 131.651 404.479 130.896 404.594 130.125C404.698 129.354 404.88 128.578 405.141 127.797C405.401 127.016 405.74 126.24 406.156 125.469C406.573 124.698 407.094 123.948 407.719 123.219C408.333 122.5 408.979 121.979 409.656 121.656C410.344 121.323 411.021 121.156 411.688 121.156C412.198 121.156 412.651 121.229 413.047 121.375C413.453 121.521 413.792 121.724 414.062 121.984C414.344 122.245 414.557 122.557 414.703 122.922C414.849 123.276 414.922 123.661 414.922 124.078C414.922 125.026 414.62 126.031 414.016 127.094C413.422 128.156 412.594 129.188 411.531 130.188C411.333 130.375 411.094 130.589 410.812 130.828C410.531 131.068 410.229 131.323 409.906 131.594C409.583 131.854 409.25 132.12 408.906 132.391C408.562 132.661 408.229 132.917 407.906 133.156C407.958 133.448 408.036 133.734 408.141 134.016C408.245 134.286 408.385 134.531 408.562 134.75C408.75 134.969 408.974 135.146 409.234 135.281C409.495 135.417 409.802 135.484 410.156 135.484C410.823 135.484 411.484 135.375 412.141 135.156C412.797 134.927 413.453 134.609 414.109 134.203C414.766 133.797 415.422 133.307 416.078 132.734C416.745 132.151 417.417 131.5 418.094 130.781C418.146 130.729 418.219 130.672 418.312 130.609C418.406 130.536 418.516 130.464 418.641 130.391C418.766 130.318 418.896 130.26 419.031 130.219C419.177 130.167 419.323 130.141 419.469 130.141C419.531 130.141 419.625 130.177 419.75 130.25C419.875 130.312 420 130.391 420.125 130.484C420.25 130.578 420.359 130.682 420.453 130.797C420.557 130.901 420.609 131 420.609 131.094ZM425.266 133.391C425.266 133.62 425.214 133.979 425.109 134.469C425.078 134.615 424.969 134.797 424.781 135.016C424.594 135.234 424.318 135.49 423.953 135.781C423.62 136.052 423.312 136.255 423.031 136.391C422.76 136.526 422.531 136.594 422.344 136.594C421.948 136.594 421.63 136.552 421.391 136.469C421.151 136.375 420.964 136.24 420.828 136.062C420.703 135.875 420.62 135.635 420.578 135.344C420.536 135.052 420.516 134.703 420.516 134.297C420.516 134.005 420.516 133.76 420.516 133.562C420.526 133.365 420.547 133.193 420.578 133.047C420.672 132.328 421.583 131.969 423.312 131.969C423.729 131.969 424.057 132.021 424.297 132.125C424.547 132.229 424.771 132.396 424.969 132.625C425.167 132.823 425.266 133.078 425.266 133.391Z" fill="#FFD243"/>
<path d="M286.408 86L282.28 72.56H282.184C282.2 72.88 282.224 73.36 282.256 74C282.288 74.64 282.32 75.328 282.352 76.064C282.384 76.784 282.4 77.44 282.4 78.032V86H279.16V68.864H284.104L288.16 81.968H288.232L292.528 68.864H297.472V86H294.088V77.888C294.088 77.344 294.096 76.72 294.112 76.016C294.144 75.312 294.168 74.648 294.184 74.024C294.216 73.384 294.24 72.904 294.256 72.584H294.16L289.744 86H286.408ZM304.657 77.696C304.657 78.256 304.793 78.68 305.065 78.968C305.353 79.256 305.745 79.4 306.241 79.4C306.929 79.4 307.569 79.328 308.161 79.184C308.753 79.024 309.345 78.816 309.937 78.56V72.896H313.513V86H309.937V80.792C309.377 81.096 308.737 81.376 308.017 81.632C307.297 81.872 306.481 81.992 305.569 81.992C304.209 81.992 303.121 81.64 302.305 80.936C301.489 80.232 301.081 79.176 301.081 77.768V72.896H304.657V77.696ZM320.719 78.08C320.719 78.352 320.703 78.688 320.671 79.088C320.655 79.488 320.631 79.896 320.599 80.312C320.583 80.728 320.559 81.096 320.527 81.416C320.495 81.736 320.471 81.96 320.455 82.088L326.503 72.896H330.799V86H327.343V80.768C327.343 80.336 327.359 79.864 327.391 79.352C327.423 78.824 327.455 78.336 327.487 77.888C327.535 77.424 327.567 77.072 327.583 76.832L321.559 86H317.263V72.896H320.719V78.08ZM343.268 72.896V77.936H348.26V72.896H351.836V86H348.26V80.6H343.268V86H339.692V72.896H343.268ZM360.959 72.632C362.719 72.632 364.063 73.016 364.991 73.784C365.935 74.536 366.407 75.696 366.407 77.264V86H363.911L363.215 84.224H363.119C362.751 84.688 362.367 85.072 361.967 85.376C361.583 85.68 361.135 85.896 360.623 86.024C360.127 86.168 359.511 86.24 358.775 86.24C358.007 86.24 357.311 86.096 356.687 85.808C356.079 85.504 355.599 85.048 355.247 84.44C354.895 83.816 354.719 83.032 354.719 82.088C354.719 80.696 355.207 79.672 356.183 79.016C357.159 78.344 358.623 77.976 360.575 77.912L362.855 77.84V77.264C362.855 76.576 362.671 76.072 362.303 75.752C361.951 75.432 361.455 75.272 360.815 75.272C360.175 75.272 359.551 75.368 358.943 75.56C358.335 75.736 357.727 75.96 357.119 76.232L355.943 73.808C356.647 73.44 357.423 73.152 358.271 72.944C359.135 72.736 360.031 72.632 360.959 72.632ZM361.463 79.976C360.311 80.008 359.511 80.216 359.063 80.6C358.615 80.984 358.391 81.488 358.391 82.112C358.391 82.656 358.551 83.048 358.871 83.288C359.191 83.512 359.607 83.624 360.119 83.624C360.887 83.624 361.535 83.4 362.063 82.952C362.591 82.488 362.855 81.84 362.855 81.008V79.928L361.463 79.976ZM381.683 76.328C381.683 77.032 381.459 77.632 381.011 78.128C380.579 78.624 379.931 78.944 379.067 79.088V79.184C379.979 79.296 380.707 79.608 381.251 80.12C381.811 80.632 382.091 81.288 382.091 82.088C382.091 82.648 381.979 83.168 381.755 83.648C381.547 84.128 381.211 84.544 380.747 84.896C380.283 85.248 379.683 85.52 378.947 85.712C378.227 85.904 377.347 86 376.307 86H370.067V72.896H376.307C377.331 72.896 378.243 73.008 379.043 73.232C379.859 73.44 380.499 73.792 380.963 74.288C381.443 74.784 381.683 75.464 381.683 76.328ZM378.395 81.896C378.395 81.384 378.195 81.016 377.795 80.792C377.395 80.552 376.795 80.432 375.995 80.432H373.643V83.528H376.067C376.739 83.528 377.291 83.408 377.723 83.168C378.171 82.912 378.395 82.488 378.395 81.896ZM378.059 76.616C378.059 76.2 377.899 75.896 377.579 75.704C377.259 75.512 376.787 75.416 376.163 75.416H373.643V78.008H375.755C376.507 78.008 377.075 77.904 377.459 77.696C377.859 77.472 378.059 77.112 378.059 76.616ZM390.489 86.24C389.193 86.24 388.089 86.008 387.177 85.544C386.265 85.064 385.569 84.328 385.089 83.336C384.609 82.344 384.369 81.072 384.369 79.52C384.369 77.92 384.641 76.616 385.185 75.608C385.729 74.6 386.481 73.856 387.441 73.376C388.417 72.896 389.537 72.656 390.801 72.656C391.697 72.656 392.473 72.744 393.129 72.92C393.801 73.096 394.385 73.304 394.881 73.544L393.825 76.304C393.265 76.08 392.737 75.896 392.241 75.752C391.761 75.608 391.281 75.536 390.801 75.536C390.177 75.536 389.657 75.688 389.241 75.992C388.825 76.28 388.513 76.72 388.305 77.312C388.113 77.888 388.017 78.616 388.017 79.496C388.017 80.36 388.121 81.08 388.329 81.656C388.553 82.216 388.873 82.64 389.289 82.928C389.705 83.2 390.209 83.336 390.801 83.336C391.553 83.336 392.217 83.24 392.793 83.048C393.369 82.84 393.929 82.56 394.473 82.208V85.256C393.929 85.608 393.353 85.856 392.745 86C392.153 86.16 391.401 86.24 390.489 86.24ZM408.337 75.584H404.041V86H400.465V75.584H396.169V72.896H408.337V75.584ZM418.051 72.656C419.523 72.656 420.715 73.232 421.627 74.384C422.539 75.52 422.995 77.2 422.995 79.424C422.995 80.912 422.779 82.168 422.347 83.192C421.915 84.2 421.323 84.96 420.571 85.472C419.819 85.984 418.947 86.24 417.955 86.24C417.331 86.24 416.787 86.16 416.323 86C415.875 85.84 415.491 85.632 415.171 85.376C414.851 85.12 414.571 84.848 414.331 84.56H414.139C414.203 84.864 414.251 85.184 414.283 85.52C414.315 85.84 414.331 86.16 414.331 86.48V91.76H410.755V72.896H413.659L414.163 74.6H414.331C414.571 74.248 414.859 73.928 415.195 73.64C415.531 73.336 415.931 73.096 416.395 72.92C416.875 72.744 417.427 72.656 418.051 72.656ZM416.899 75.512C416.275 75.512 415.779 75.64 415.411 75.896C415.043 76.152 414.771 76.544 414.595 77.072C414.435 77.584 414.347 78.232 414.331 79.016V79.4C414.331 80.248 414.411 80.968 414.571 81.56C414.731 82.136 415.003 82.576 415.387 82.88C415.771 83.184 416.291 83.336 416.947 83.336C417.491 83.336 417.939 83.184 418.291 82.88C418.643 82.576 418.907 82.128 419.083 81.536C419.259 80.944 419.347 80.224 419.347 79.376C419.347 78.096 419.147 77.136 418.747 76.496C418.363 75.84 417.747 75.512 416.899 75.512ZM431.342 72.656C432.558 72.656 433.598 72.888 434.462 73.352C435.342 73.816 436.022 74.488 436.502 75.368C436.982 76.248 437.222 77.328 437.222 78.608V80.336H428.774C428.806 81.344 429.102 82.136 429.662 82.712C430.238 83.288 431.03 83.576 432.038 83.576C432.886 83.576 433.654 83.496 434.342 83.336C435.03 83.16 435.742 82.896 436.478 82.544V85.304C435.838 85.624 435.158 85.856 434.438 86C433.734 86.16 432.878 86.24 431.87 86.24C430.558 86.24 429.398 86 428.39 85.52C427.382 85.024 426.59 84.28 426.014 83.288C425.438 82.296 425.15 81.048 425.15 79.544C425.15 78.008 425.406 76.736 425.918 75.728C426.446 74.704 427.174 73.936 428.102 73.424C429.03 72.912 430.11 72.656 431.342 72.656ZM431.366 75.2C430.678 75.2 430.102 75.424 429.638 75.872C429.19 76.32 428.926 77.016 428.846 77.96H433.862C433.862 77.432 433.766 76.96 433.574 76.544C433.398 76.128 433.126 75.8 432.758 75.56C432.39 75.32 431.926 75.2 431.366 75.2ZM443.266 77.696C443.266 78.256 443.402 78.68 443.674 78.968C443.962 79.256 444.354 79.4 444.85 79.4C445.538 79.4 446.178 79.328 446.77 79.184C447.362 79.024 447.954 78.816 448.546 78.56V72.896H452.122V86H448.546V80.792C447.986 81.096 447.346 81.376 446.626 81.632C445.906 81.872 445.09 81.992 444.178 81.992C442.818 81.992 441.73 81.64 440.914 80.936C440.098 80.232 439.69 79.176 439.69 77.768V72.896H443.266V77.696ZM454 72.896H457.912L460.384 80.264C460.464 80.504 460.528 80.744 460.576 80.984C460.64 81.224 460.688 81.472 460.72 81.728C460.768 81.984 460.8 82.256 460.816 82.544H460.888C460.936 82.128 461 81.736 461.08 81.368C461.176 80.984 461.28 80.616 461.392 80.264L463.816 72.896H467.656L462.112 87.68C461.776 88.576 461.336 89.328 460.792 89.936C460.264 90.544 459.648 91 458.944 91.304C458.24 91.608 457.472 91.76 456.64 91.76C456.24 91.76 455.888 91.736 455.584 91.688C455.296 91.656 455.04 91.616 454.816 91.568V88.736C454.992 88.768 455.2 88.8 455.44 88.832C455.696 88.864 455.96 88.88 456.232 88.88C456.728 88.88 457.152 88.776 457.504 88.568C457.872 88.36 458.176 88.072 458.416 87.704C458.656 87.352 458.848 86.968 458.992 86.552L459.208 85.904L454 72.896Z" fill="white"/>
<path d="M289.712 180.408C289.712 181.736 289.544 182.944 289.208 184.032C288.888 185.104 288.392 186.032 287.72 186.816C287.064 187.6 286.216 188.2 285.176 188.616C284.152 189.032 282.944 189.24 281.552 189.24C280.16 189.24 278.944 189.032 277.904 188.616C276.88 188.184 276.032 187.584 275.36 186.816C274.704 186.032 274.208 185.096 273.872 184.008C273.552 182.92 273.392 181.712 273.392 180.384C273.392 178.608 273.68 177.064 274.256 175.752C274.848 174.44 275.744 173.424 276.944 172.704C278.16 171.968 279.704 171.6 281.576 171.6C283.432 171.6 284.96 171.968 286.16 172.704C287.36 173.424 288.248 174.448 288.824 175.776C289.416 177.088 289.712 178.632 289.712 180.408ZM277.208 180.408C277.208 181.608 277.36 182.64 277.664 183.504C277.968 184.368 278.44 185.032 279.08 185.496C279.72 185.96 280.544 186.192 281.552 186.192C282.592 186.192 283.424 185.96 284.048 185.496C284.688 185.032 285.152 184.368 285.44 183.504C285.744 182.64 285.896 181.608 285.896 180.408C285.896 178.6 285.56 177.184 284.888 176.16C284.216 175.136 283.112 174.624 281.576 174.624C280.552 174.624 279.72 174.856 279.08 175.32C278.44 175.784 277.968 176.448 277.664 177.312C277.36 178.176 277.208 179.208 277.208 180.408ZM296.55 175.896V180.936H301.542V175.896H305.118V189H301.542V183.6H296.55V189H292.974V175.896H296.55ZM314.24 175.632C316 175.632 317.344 176.016 318.272 176.784C319.216 177.536 319.688 178.696 319.688 180.264V189H317.192L316.496 187.224H316.4C316.032 187.688 315.648 188.072 315.248 188.376C314.864 188.68 314.416 188.896 313.904 189.024C313.408 189.168 312.792 189.24 312.056 189.24C311.288 189.24 310.592 189.096 309.968 188.808C309.36 188.504 308.88 188.048 308.528 187.44C308.176 186.816 308 186.032 308 185.088C308 183.696 308.488 182.672 309.464 182.016C310.44 181.344 311.904 180.976 313.856 180.912L316.136 180.84V180.264C316.136 179.576 315.952 179.072 315.584 178.752C315.232 178.432 314.736 178.272 314.096 178.272C313.456 178.272 312.832 178.368 312.224 178.56C311.616 178.736 311.008 178.96 310.4 179.232L309.224 176.808C309.928 176.44 310.704 176.152 311.552 175.944C312.416 175.736 313.312 175.632 314.24 175.632ZM314.744 182.976C313.592 183.008 312.792 183.216 312.344 183.6C311.896 183.984 311.672 184.488 311.672 185.112C311.672 185.656 311.832 186.048 312.152 186.288C312.472 186.512 312.888 186.624 313.4 186.624C314.168 186.624 314.816 186.4 315.344 185.952C315.872 185.488 316.136 184.84 316.136 184.008V182.928L314.744 182.976ZM339.353 178.584H335.057V189H331.481V178.584H327.185V175.896H339.353V178.584ZM346.936 175.656C348.152 175.656 349.192 175.888 350.056 176.352C350.936 176.816 351.616 177.488 352.096 178.368C352.576 179.248 352.816 180.328 352.816 181.608V183.336H344.368C344.4 184.344 344.696 185.136 345.256 185.712C345.832 186.288 346.624 186.576 347.632 186.576C348.48 186.576 349.248 186.496 349.936 186.336C350.624 186.16 351.336 185.896 352.072 185.544V188.304C351.432 188.624 350.752 188.856 350.032 189C349.328 189.16 348.472 189.24 347.464 189.24C346.152 189.24 344.992 189 343.984 188.52C342.976 188.024 342.184 187.28 341.608 186.288C341.032 185.296 340.744 184.048 340.744 182.544C340.744 181.008 341 179.736 341.512 178.728C342.04 177.704 342.768 176.936 343.696 176.424C344.624 175.912 345.704 175.656 346.936 175.656ZM346.96 178.2C346.272 178.2 345.696 178.424 345.232 178.872C344.784 179.32 344.52 180.016 344.44 180.96H349.456C349.456 180.432 349.36 179.96 349.168 179.544C348.992 179.128 348.72 178.8 348.352 178.56C347.984 178.32 347.52 178.2 346.96 178.2ZM354.924 181.152C354.924 179.216 355.164 177.576 355.644 176.232C356.124 174.872 356.884 173.792 357.924 172.992C358.964 172.176 360.324 171.624 362.004 171.336C362.852 171.192 363.708 171.072 364.572 170.976C365.452 170.864 366.356 170.752 367.284 170.64L367.692 173.76C367.292 173.808 366.852 173.864 366.372 173.928C365.892 173.976 365.404 174.032 364.908 174.096C364.428 174.144 363.964 174.2 363.516 174.264C363.068 174.328 362.66 174.384 362.292 174.432C361.7 174.528 361.18 174.664 360.732 174.84C360.284 175 359.908 175.232 359.604 175.536C359.3 175.84 359.06 176.256 358.884 176.784C358.724 177.296 358.62 177.96 358.572 178.776H358.74C358.932 178.472 359.196 178.168 359.532 177.864C359.884 177.56 360.316 177.304 360.828 177.096C361.34 176.888 361.924 176.784 362.58 176.784C363.62 176.784 364.524 177 365.292 177.432C366.06 177.864 366.652 178.504 367.068 179.352C367.484 180.2 367.692 181.256 367.692 182.52C367.692 184.008 367.42 185.248 366.876 186.24C366.332 187.232 365.58 187.984 364.62 188.496C363.66 188.992 362.548 189.24 361.284 189.24C360.324 189.24 359.452 189.064 358.668 188.712C357.884 188.36 357.212 187.84 356.652 187.152C356.092 186.464 355.66 185.616 355.356 184.608C355.068 183.6 354.924 182.448 354.924 181.152ZM361.5 186.336C362.012 186.336 362.452 186.224 362.82 186C363.204 185.776 363.5 185.408 363.708 184.896C363.932 184.384 364.044 183.696 364.044 182.832C364.044 181.792 363.868 180.968 363.516 180.36C363.18 179.736 362.588 179.424 361.74 179.424C361.228 179.424 360.748 179.552 360.3 179.808C359.868 180.048 359.5 180.328 359.196 180.648C358.892 180.952 358.684 181.216 358.572 181.44C358.572 182.064 358.62 182.672 358.716 183.264C358.812 183.84 358.972 184.36 359.196 184.824C359.42 185.288 359.716 185.656 360.084 185.928C360.468 186.2 360.94 186.336 361.5 186.336ZM372.637 189H368.773L372.301 183.816C371.853 183.624 371.429 183.368 371.029 183.048C370.645 182.712 370.333 182.288 370.093 181.776C369.853 181.264 369.733 180.656 369.733 179.952C369.733 178.64 370.229 177.64 371.221 176.952C372.213 176.248 373.485 175.896 375.037 175.896H381.133V189H377.557V184.128H375.589L372.637 189ZM373.237 179.976C373.237 180.52 373.453 180.952 373.885 181.272C374.317 181.576 374.877 181.728 375.565 181.728H377.557V178.416H375.109C374.469 178.416 373.997 178.576 373.693 178.896C373.389 179.2 373.237 179.56 373.237 179.976ZM408.652 175.896L403.828 182.184L409.108 189H405.292L400.3 182.352V189H396.964V182.352L391.972 189H388.156L393.436 182.184L388.612 175.896H392.308L396.964 182.256V175.896H400.3V182.256L404.956 175.896H408.652ZM422.765 175.896V186.384H424.685V193.704H421.469V189H412.661V193.704H409.445V186.384H410.549C411.125 185.504 411.613 184.504 412.013 183.384C412.413 182.248 412.733 181.04 412.973 179.76C413.213 178.48 413.389 177.192 413.501 175.896H422.765ZM416.501 178.584C416.373 179.544 416.213 180.48 416.021 181.392C415.829 182.288 415.589 183.152 415.301 183.984C415.029 184.816 414.693 185.616 414.293 186.384H419.189V178.584H416.501ZM432.319 175.656C433.535 175.656 434.575 175.888 435.439 176.352C436.319 176.816 436.999 177.488 437.479 178.368C437.959 179.248 438.199 180.328 438.199 181.608V183.336H429.751C429.783 184.344 430.079 185.136 430.639 185.712C431.215 186.288 432.007 186.576 433.015 186.576C433.863 186.576 434.631 186.496 435.319 186.336C436.007 186.16 436.719 185.896 437.455 185.544V188.304C436.815 188.624 436.135 188.856 435.415 189C434.711 189.16 433.855 189.24 432.847 189.24C431.535 189.24 430.375 189 429.367 188.52C428.359 188.024 427.567 187.28 426.991 186.288C426.415 185.296 426.127 184.048 426.127 182.544C426.127 181.008 426.383 179.736 426.895 178.728C427.423 177.704 428.151 176.936 429.079 176.424C430.007 175.912 431.087 175.656 432.319 175.656ZM432.343 178.2C431.655 178.2 431.079 178.424 430.615 178.872C430.167 179.32 429.903 180.016 429.823 180.96H434.839C434.839 180.432 434.743 179.96 434.551 179.544C434.375 179.128 434.103 178.8 433.735 178.56C433.367 178.32 432.903 178.2 432.343 178.2ZM428.119 172.536C428.119 171.976 428.279 171.576 428.599 171.336C428.919 171.08 429.303 170.952 429.751 170.952C430.199 170.952 430.583 171.08 430.903 171.336C431.239 171.576 431.407 171.976 431.407 172.536C431.407 173.064 431.239 173.456 430.903 173.712C430.583 173.968 430.199 174.096 429.751 174.096C429.303 174.096 428.919 173.968 428.599 173.712C428.279 173.456 428.119 173.064 428.119 172.536ZM432.847 172.536C432.847 171.976 433.007 171.576 433.327 171.336C433.647 171.08 434.039 170.952 434.503 170.952C434.951 170.952 435.335 171.08 435.655 171.336C435.991 171.576 436.159 171.976 436.159 172.536C436.159 173.064 435.991 173.456 435.655 173.712C435.335 173.968 434.951 174.096 434.503 174.096C434.055 174.096 433.663 173.968 433.327 173.712C433.007 173.456 432.847 173.064 432.847 172.536ZM451.947 178.584H447.651V189H444.075V178.584H439.779V175.896H451.947V178.584ZM458.632 184.776L458.488 177.6V173.544H462.352V177.6L462.208 184.776H458.632ZM458.392 189V186.216H462.448V189H458.392Z" fill="white"/>
<path d="M120.324 154.538C120.544 155.809 120.691 156.518 120.691 156.518H106.738C101.066 156.518 96.1757 152.5 95.108 146.926C94.3338 142.9 93.7144 137.562 93.7144 130.83C93.7144 120.83 94.6027 113.063 95.5644 107.569C96.4935 102.313 100.772 98.3682 105.972 97.8221C106.412 97.7732 106.86 97.7487 107.317 97.7487L118.939 97.8384L120.715 97.8547C120.715 97.8547 120.063 101.4 119.403 107.105C118.767 112.565 118.115 120.015 118.001 128.246C117.847 139.191 119.55 150.161 120.324 154.538Z" fill="white"/>
<g opacity="0.25">
<path d="M120.324 154.546C120.544 155.809 120.691 156.527 120.691 156.527H106.738C101.066 156.527 96.184 152.509 95.1082 146.934C94.5295 143.943 94.0405 140.227 93.8286 135.752C94.3828 138.474 95.858 140.813 97.8792 142.484C99.9493 144.187 102.582 145.19 105.426 145.19C112.696 145.19 118.352 138.89 117.578 131.669C117.048 126.746 116.632 121.319 116.689 116.926C116.787 109.689 117.301 103.054 117.863 97.8384L118.939 97.8466L120.724 97.8629C120.724 97.8629 120.072 101.4 119.411 107.113C118.776 112.574 118.116 120.023 118.01 128.254C117.847 139.2 119.542 150.161 120.324 154.546Z" fill="#371B45"/>
</g>
<path d="M120.691 158.173H106.738C100.275 158.173 94.7007 153.576 93.4863 147.236C92.5409 142.297 92.0601 136.779 92.0601 130.83C92.0601 122.288 92.6876 114.367 93.9346 107.284C95.0756 100.789 100.658 96.0943 107.227 96.0943C107.26 96.0943 107.292 96.0943 107.325 96.0943L120.732 96.2003C121.221 96.2003 121.677 96.4203 121.987 96.7952C122.297 97.1701 122.427 97.6673 122.337 98.1481C122.313 98.2867 119.876 111.783 119.648 128.271C119.46 142.036 122.272 156.046 122.305 156.192C122.403 156.681 122.28 157.179 121.962 157.57C121.653 157.953 121.188 158.173 120.691 158.173ZM107.227 99.4032C102.264 99.4032 98.0503 102.948 97.1864 107.863C95.9721 114.758 95.3608 122.484 95.3608 130.838C95.3608 136.584 95.8172 141.897 96.73 146.624C97.6428 151.408 101.856 154.88 106.738 154.88H118.702C117.92 150.471 116.2 139.428 116.355 128.238C116.535 115.133 118.091 103.861 118.776 99.501L107.301 99.4114C107.276 99.4032 107.252 99.4032 107.227 99.4032Z" fill="#371B45"/>
<path d="M101.09 127.154H110.723C112.386 127.154 113.731 128.499 113.731 130.161V138.124C113.731 142.443 110.226 145.948 105.907 145.948C101.587 145.948 98.0828 142.443 98.0828 138.124V130.161C98.0828 128.499 99.4275 127.154 101.09 127.154Z" fill="white"/>
<g opacity="0.25">
<path d="M113.731 130.161V138.124C113.731 142.443 110.226 145.948 105.907 145.948C103.747 145.948 101.791 145.076 100.373 143.658C98.9548 142.24 98.0828 140.284 98.0828 138.124V137.961C98.4169 138.54 98.8326 139.077 99.3053 139.55C100.723 140.968 102.679 141.84 104.839 141.84C109.159 141.84 112.663 138.336 112.663 134.016V127.863C113.315 128.417 113.731 129.24 113.731 130.161Z" fill="#371B45"/>
</g>
<path d="M105.907 147.187C100.911 147.187 96.844 143.12 96.844 138.124V130.161C96.844 127.822 98.7511 125.915 101.09 125.915H110.723C113.062 125.915 114.97 127.822 114.97 130.161V138.124C114.97 143.12 110.903 147.187 105.907 147.187ZM101.09 128.393C100.112 128.393 99.3216 129.183 99.3216 130.161V138.124C99.3216 141.751 102.272 144.709 105.907 144.709C109.534 144.709 112.492 141.759 112.492 138.124V130.161C112.492 129.183 111.701 128.393 110.723 128.393H101.09Z" fill="#371B45"/>
<path d="M196.299 135.312C192.965 137.529 189.07 135.043 189.07 135.043C189.07 135.043 181.604 139.844 175.125 139.925C174.742 139.933 174.367 139.925 173.992 139.892C173.487 139.852 172.492 139.412 171.18 138.694C168.32 137.146 163.943 134.293 159.787 131.482C153.87 127.488 148.409 123.568 148.409 123.568L148.711 108.89L148.727 107.879L148.988 95.4586L149.118 89.2565L151.889 92.2475L160.39 101.433L175.899 118.189L178.784 121.302C178.784 121.302 183.446 117.928 187.871 117.659C188.401 117.618 188.931 117.635 189.444 117.7C193.845 118.262 195.973 119.265 197.529 121.302C199.135 123.397 200.105 132.786 196.299 135.312Z" fill="white"/>
<path d="M174.954 141.164C174.595 141.164 174.245 141.147 173.902 141.123C170.61 140.862 153.006 128.393 147.692 124.57C147.138 124.171 147.007 123.397 147.407 122.843C147.806 122.288 148.58 122.158 149.134 122.557C159.933 130.308 172.232 138.45 174.106 138.654C180.316 139.143 188.336 134.049 188.417 134C188.825 133.739 189.347 133.739 189.754 134C189.778 134.016 193.022 136.013 195.63 134.285C196.796 133.511 197.301 131.783 197.521 130.471C198.091 127.064 197.334 123.071 196.551 122.036C195.369 120.495 193.805 119.485 189.289 118.914C185.019 118.368 179.558 122.264 179.509 122.297C179.004 122.663 178.303 122.59 177.879 122.134L148.222 90.0796C147.757 89.5743 147.79 88.7919 148.287 88.3274C148.792 87.8628 149.575 87.8954 150.039 88.3925L178.98 119.672C180.903 118.458 185.5 115.923 189.607 116.453C194.285 117.048 196.706 118.156 198.515 120.528C199.909 122.345 200.585 127.178 199.966 130.87C199.534 133.446 198.507 135.337 196.999 136.339C193.919 138.385 190.561 137.162 189.126 136.469C187.105 137.667 180.724 141.164 174.954 141.164Z" fill="#371B45"/>
<path d="M168.01 109.672C168.01 109.672 165.133 120.194 155.475 128.539Z" fill="white"/>
<path d="M155.475 129.575C155.19 129.575 154.897 129.452 154.693 129.216C154.318 128.784 154.367 128.132 154.799 127.765C164.09 119.737 166.983 109.509 167.016 109.403C167.17 108.857 167.733 108.531 168.287 108.678C168.833 108.825 169.159 109.395 169.012 109.941C168.89 110.381 165.94 120.862 156.152 129.322C155.956 129.493 155.72 129.575 155.475 129.575Z" fill="#371B45"/>
<path d="M121.204 229.29L113.6 231.344C110.161 232.273 106.494 231.238 104.04 228.654C96.7462 220.952 91.7013 211.401 89.4519 201.034C88.694 197.554 89.9083 193.935 92.6223 191.62L98.6044 186.502L121.204 229.29Z" fill="#FB132B"/>
<g opacity="0.25">
<path d="M98.6045 187.309L98.2052 187.651L116.314 221.947L108.711 224C105.271 224.929 101.604 223.894 99.1506 221.311C97.3413 219.404 95.6705 217.374 94.1465 215.255C96.7056 220.431 100.031 225.231 104.041 229.461C106.486 232.044 110.161 233.079 113.601 232.15L121.204 230.097L98.6045 187.309Z" fill="#371B45"/>
</g>
<g opacity="0.3">
<path d="M91.4895 204.286C90.7315 200.805 91.9459 197.187 94.6598 194.872L100.422 189.942L98.6044 186.494L92.6223 191.612C89.9165 193.927 88.7022 197.545 89.452 201.026C91.0168 208.23 93.9345 215.044 98.0176 221.123C95.0021 215.907 92.7853 210.235 91.4895 204.286Z" fill="white"/>
</g>
<path d="M72.8179 178.735C77.3167 179.037 98.4741 180.284 103.462 190.667L116.632 174.163C116.323 173.69 115.972 173.21 115.581 172.737C109.949 165.924 95.8498 159.55 73.0787 177.521C72.9076 177.651 72.7364 177.79 72.5652 177.928C72.2392 178.181 72.4104 178.703 72.8179 178.735Z" fill="#FB132B"/>
<g opacity="0.25">
<path d="M72.8179 178.735C77.3167 179.037 98.4741 180.284 103.462 190.667L116.632 174.163C116.323 173.69 115.972 173.21 115.581 172.737L116.168 173.348C114.619 173.413 112.297 173.829 110.487 175.011C103.821 179.363 100.055 181.131 94.7577 179.257C88.1073 176.91 77.5368 176.241 73.0787 177.521C72.9076 177.651 72.7364 177.79 72.5652 177.928C72.2392 178.181 72.4104 178.703 72.8179 178.735Z" fill="#371B45"/>
</g>
<g opacity="0.3">
<path d="M74.3581 178.841C73.2253 178.735 73.7143 178.792 72.8178 178.735C72.4021 178.711 72.2391 178.181 72.5651 177.92C97.2433 158.165 111.848 166.885 116.632 174.163L115.206 175.948C109.395 169.941 93.9181 165.019 74.3581 178.841Z" fill="white"/>
</g>
<path d="M103.47 192.321C102.859 192.321 102.264 191.979 101.978 191.384C100.3 187.888 94.2849 181.816 72.9156 180.398L72.7037 180.382C71.8316 180.325 71.0981 179.746 70.8373 178.906C70.5765 178.075 70.8455 177.179 71.5301 176.633C83.4943 167.056 94.3908 162.957 103.91 164.465C112.296 165.793 116.559 171.05 118.01 173.25C118.507 174.008 118.295 175.035 117.537 175.532C116.771 176.03 115.752 175.818 115.255 175.06C114.049 173.226 110.479 168.841 103.397 167.717C95.5807 166.478 86.1593 169.795 76.0289 177.317C95.6948 179.11 102.63 185.109 104.953 189.942C105.344 190.765 105.002 191.751 104.179 192.142C103.951 192.264 103.714 192.321 103.47 192.321Z" fill="#371B45"/>
<path d="M142.068 222.313C145.385 230.366 144.57 247.782 114.342 257.024C113.943 257.146 113.6 256.715 113.812 256.356C116.102 252.468 126.755 233.829 120.992 223.854L142.068 222.313Z" fill="#D35558"/>
<path d="M114.342 257.024C113.943 257.146 113.609 256.715 113.812 256.356C114.986 254.367 118.352 248.507 120.585 241.922C122.696 235.704 123.788 228.833 121.058 223.968C121.041 223.935 121.017 223.894 121.001 223.862L121.131 223.854L142.068 222.322C142.997 224.579 143.601 227.578 143.323 230.928C142.606 239.494 136.086 250.374 114.342 257.024Z" fill="#FB132B"/>
<g opacity="0.25">
<path d="M120.585 241.914C122.696 235.696 123.788 228.825 121.058 223.96C121.082 223.919 121.098 223.878 121.123 223.846L142.068 222.313C142.997 224.571 143.601 227.57 143.323 230.92C138.808 235.688 131.628 239.836 120.585 241.914Z" fill="#371B45"/>
</g>
<path d="M114.204 258.695C113.568 258.695 112.965 258.41 112.557 257.888C112.011 257.203 111.954 256.266 112.394 255.516C115.353 250.496 124.611 233.422 119.566 224.685C119.11 223.894 119.379 222.884 120.169 222.427C120.96 221.971 121.97 222.24 122.427 223.031C127.553 231.914 121.131 246.486 116.763 254.498C128.523 250.423 136.494 244.522 139.892 237.334C143.152 230.447 141.213 224.571 140.536 222.941C140.186 222.101 140.593 221.132 141.433 220.789C142.272 220.439 143.242 220.846 143.584 221.686C144.611 224.188 146.6 230.855 142.867 238.744C138.727 247.489 129.289 254.172 114.815 258.597C114.619 258.662 114.407 258.695 114.204 258.695Z" fill="#371B45"/>
<path d="M261.441 127.855C261.441 127.855 259.33 173.715 204.008 207.994C156.877 237.187 121.204 229.282 121.204 229.282C111.155 220.3 103.983 208.621 100.463 195.744C99.6394 192.721 99.0118 189.632 98.5962 186.494C98.5962 186.494 101.962 178.091 111.604 166.877C115.393 162.468 120.153 157.619 126.062 152.672C135.296 144.945 147.341 136.999 162.867 130.112C163.747 129.729 164.619 129.346 165.491 128.98C169.191 127.407 172.818 126.037 176.355 124.848C228.197 107.349 261.441 127.855 261.441 127.855Z" fill="white"/>
<g opacity="0.25">
<path d="M112.101 166.307C102.085 177.806 98.6045 186.502 98.6045 186.502C99.9411 196.608 103.454 206.217 108.841 214.701C112.248 220.08 116.396 224.987 121.204 229.298C121.204 229.298 156.877 237.195 204 207.994C224.913 195.043 238.222 180.422 246.69 167.268C243.536 170.968 214.848 122.142 209.518 125.084C206.062 126.999 220.912 143.576 223.992 165.818C225.443 176.323 220.308 188.475 213.153 193.348C203.601 199.852 194.391 204.701 185.834 208.279C177.448 211.792 160.406 215.728 156.706 216.543C153.747 217.195 150.936 217.26 148.409 217.399C136.412 218.084 124.888 212.289 118.425 202.158C118.393 202.101 118.36 202.052 118.327 201.995C112.948 193.519 109.428 183.902 108.091 173.796C108.083 173.788 109.232 170.919 112.101 166.307Z" fill="#371B45"/>
</g>
<path d="M236.6 180.675C230.17 157.904 218.988 136.747 203.813 118.596C239.64 114.407 261.441 127.863 261.441 127.863C261.441 127.863 260.26 153.446 236.6 180.675Z" fill="#FB132B"/>
<g opacity="0.25">
<path d="M236.6 180.675C230.17 157.904 218.996 136.747 203.813 118.588C204.465 118.507 205.117 118.442 205.769 118.376C217.969 130.349 226.616 139.526 233.609 152.46C236.494 157.798 244.066 158.124 247.309 152.989C253.422 143.324 257.497 134.033 259.681 126.877C260.846 127.472 261.441 127.847 261.441 127.847C261.441 127.847 260.26 153.446 236.6 180.675Z" fill="#371B45"/>
</g>
<g opacity="0.3">
<path d="M236.6 180.675C236.494 180.292 236.38 179.917 236.274 179.534C245.647 167.073 250.537 155.377 253.079 146.869C255.467 138.882 251.026 130.414 243.088 127.879C234.807 125.239 222.729 122.729 207.602 123.291C206.372 121.702 205.109 120.137 203.813 118.596C239.64 114.407 261.441 127.863 261.441 127.863C261.441 127.863 260.26 153.446 236.6 180.675Z" fill="white"/>
</g>
<path d="M236.6 182.329C236.478 182.329 236.364 182.313 236.242 182.289C235.647 182.158 235.182 181.71 235.011 181.123C228.597 158.426 217.676 137.749 202.541 119.648C202.15 119.183 202.052 118.539 202.273 117.977C202.501 117.415 203.014 117.015 203.617 116.95C229.844 113.886 248.63 120.063 257.505 124.016C261.083 125.614 263.088 129.412 262.387 133.266C260.651 142.818 255.158 161.824 237.847 181.751C237.529 182.126 237.073 182.329 236.6 182.329ZM207.032 119.917C220.806 136.999 230.985 156.266 237.326 177.268C252.574 158.8 257.538 141.531 259.143 132.68C259.567 130.332 258.345 128.01 256.16 127.032C247.945 123.372 230.887 117.733 207.032 119.917Z" fill="#371B45"/>
<path d="M133.307 231.914C125.565 231.914 121.107 230.952 120.846 230.895C120.569 230.83 120.316 230.7 120.104 230.512C113.78 224.856 108.572 218.181 104.611 210.683C100.65 203.185 98.0829 195.117 96.9745 186.714C96.9338 186.437 96.9745 186.144 97.0805 185.883C97.2272 185.524 100.691 177.016 110.495 165.655C119.485 155.231 135.752 140.341 162.215 128.613C176.087 122.468 190.023 118.539 203.634 116.95C204.188 116.885 204.734 117.105 205.092 117.529C220.52 135.98 231.661 157.064 238.198 180.202C238.353 180.74 238.238 181.327 237.864 181.751C228.874 192.093 217.782 201.392 204.889 209.387C180.284 224.628 158.817 229.673 145.133 231.221C140.618 231.735 136.657 231.914 133.307 231.914ZM121.962 227.758C123.861 228.1 132.24 229.388 144.913 227.929C158.222 226.405 179.118 221.466 203.12 206.592C215.451 198.947 226.095 190.096 234.758 180.276C228.393 158.205 217.749 138.051 203.104 120.349C190.105 121.962 176.796 125.76 163.527 131.645C137.708 143.087 121.848 157.562 113.087 167.692C104.741 177.342 101.074 184.986 100.292 186.747C101.376 194.603 103.812 202.142 107.512 209.159C111.229 216.16 116.086 222.419 121.962 227.758Z" fill="#371B45"/>
<path d="M111.074 233.332C108.002 233.332 105.019 232.085 102.851 229.787C95.3527 221.865 90.1612 212.044 87.8466 201.384C86.9582 197.301 88.3845 193.079 91.5548 190.365L97.5369 185.247C98.2297 184.652 99.2729 184.734 99.8678 185.426C100.463 186.119 100.381 187.162 99.6885 187.749L93.7064 192.867C91.457 194.791 90.4546 197.782 91.0821 200.675C93.2663 210.749 98.1726 220.031 105.255 227.513C107.292 229.665 110.324 230.52 113.185 229.746L120.789 227.692C121.669 227.456 122.574 227.978 122.81 228.858C123.046 229.738 122.525 230.643 121.645 230.879L114.041 232.933C113.055 233.202 112.06 233.332 111.074 233.332Z" fill="#371B45"/>
<path d="M7.37329 262.045C38.7671 245.468 59.6229 261.67 79.5252 251.156C99.4275 240.643 92.3126 217.187 92.3126 217.187C92.3126 217.187 76.9498 198.083 57.0475 208.597C37.1371 219.102 38.7671 245.468 7.37329 262.045Z" fill="#FF364A"/>
<path d="M38.9058 245.256C57.1781 235.606 70.7967 247.823 82.386 241.702C93.9753 235.582 88.36 219.135 88.36 219.135C88.36 219.135 77.9443 205.223 66.355 211.343C54.7657 217.464 57.1862 235.598 38.9058 245.256Z" fill="#FF8A0B"/>
<path d="M65.7192 230.871C65.7192 230.871 79.4112 231.971 84.3909 229.347C89.3705 226.714 86.9581 219.656 86.9581 219.656C86.9581 219.656 82.4838 213.682 77.5123 216.315C72.5245 218.939 65.7192 230.871 65.7192 230.871Z" fill="#FFE600"/>
<path d="M7.37335 263.699C6.7784 263.699 6.2079 263.381 5.9145 262.819C5.7841 262.574 5.72705 262.314 5.72705 262.053C5.72705 261.458 6.0449 260.887 6.60725 260.594C23.6652 251.58 30.7965 239.502 37.0964 228.85C42.2065 220.194 47.0394 212.012 56.2815 207.138C64.9368 202.566 74.1545 202.696 82.9402 207.505C89.4846 211.083 93.4374 215.948 93.6004 216.16C93.7308 216.323 93.8286 216.511 93.8938 216.714C93.9671 216.967 95.7601 222.982 95.0266 230.398C94.0405 240.366 88.9467 248.051 80.2996 252.623C71.0656 257.505 61.5872 256.877 51.5545 256.225C39.2073 255.419 25.2137 254.498 8.1476 263.512C7.9031 263.634 7.63415 263.699 7.37335 263.699ZM69.2074 207.073C65.3851 207.073 61.579 208.067 57.8137 210.056C49.4029 214.498 45.0182 221.922 39.9326 230.52C35.2708 238.418 30.1608 247.065 21.0817 254.807C32.5976 251.67 42.6221 252.33 51.7664 252.925C61.7339 253.577 70.3484 254.139 78.7592 249.697C86.461 245.63 90.8294 239.062 91.734 230.17C92.3371 224.286 91.1554 219.249 90.8212 217.969C89.9573 216.975 86.461 213.161 81.2613 210.341C77.2433 208.165 73.2091 207.073 69.2074 207.073Z" fill="#371B45"/>
<path d="M116.396 214.832C106.812 219.893 93.356 217.293 93.356 217.293C93.356 217.293 93.3804 217.244 93.4212 217.163C94.0324 215.793 99.3707 204.416 108.376 199.656C117.015 195.092 127.26 197.676 129.086 198.189C129.273 198.246 129.371 198.279 129.371 198.279C129.371 198.279 125.923 209.811 116.396 214.832Z" fill="#FB132B"/>
<g opacity="0.3">
<path d="M93.364 217.293C93.364 217.293 93.9345 217.407 94.9288 217.537C97.7813 212.745 102.802 205.818 109.656 202.199C116.429 198.621 124.049 198.825 128.947 199.518C129.248 198.735 129.379 198.279 129.379 198.279C129.379 198.279 129.281 198.246 129.094 198.198C127.26 197.676 117.023 195.092 108.384 199.665C99.3869 204.424 94.0486 215.81 93.4292 217.171C93.3803 217.244 93.364 217.293 93.364 217.293Z" fill="white"/>
</g>
<g opacity="0.25">
<path d="M116.396 214.832C106.812 219.893 93.356 217.293 93.356 217.293C93.356 217.293 93.3804 217.244 93.4212 217.163L129.086 198.189C129.273 198.246 129.371 198.279 129.371 198.279C129.371 198.279 125.923 209.811 116.396 214.832Z" fill="#371B45"/>
</g>
<path d="M101.481 219.624C96.8196 219.624 93.3314 218.972 93.0461 218.915C92.5571 218.817 92.1334 218.507 91.897 218.067C91.6607 217.627 91.6443 217.097 91.8399 216.641C92.0681 216.103 97.6183 203.471 107.602 198.197C117.618 192.9 129.371 196.551 129.868 196.706C130.724 196.975 131.204 197.888 130.952 198.752C130.805 199.249 127.186 211.009 117.17 216.299C112.142 218.947 106.208 219.624 101.481 219.624ZM95.8416 215.981C99.9085 216.445 108.882 216.934 115.63 213.373C122.378 209.811 125.907 202.639 127.203 199.42C123.812 198.686 115.874 197.554 109.151 201.107C102.394 204.685 97.7406 212.362 95.8416 215.981Z" fill="#371B45"/>
<g opacity="0.25">
<path d="M150.064 188.238C145.011 176.787 150.202 163.405 161.661 158.352C173.112 153.299 186.494 158.491 191.547 169.95C196.6 181.4 191.408 194.783 179.95 199.836C168.499 204.881 155.117 199.689 150.064 188.238Z" fill="#371B45"/>
</g>
<path d="M150.064 184.448C145.011 172.998 150.202 159.615 161.661 154.562C173.112 149.509 186.494 154.701 191.547 166.16C196.6 177.611 191.408 190.993 179.95 196.046C168.499 201.091 155.117 195.899 150.064 184.448Z" fill="#FB132B"/>
<g opacity="0.25">
<path d="M150.064 184.44C145.019 172.99 150.202 159.607 161.653 154.562C165.255 152.973 169.045 152.403 172.712 152.72C171.066 153.038 169.436 153.544 167.839 154.245C156.388 159.298 151.196 172.672 156.241 184.131C159.705 191.979 167.089 196.893 175.076 197.57C164.929 199.518 154.416 194.302 150.064 184.44Z" fill="#371B45"/>
</g>
<path d="M170.838 199.2C161.653 199.2 152.867 193.878 148.931 184.946C146.355 179.102 146.209 172.607 148.515 166.657C150.822 160.708 155.312 156.005 161.156 153.43C166.999 150.854 173.495 150.707 179.444 153.014C185.394 155.32 190.096 159.811 192.672 165.655C197.986 177.717 192.501 191.857 180.447 197.171C177.325 198.548 174.057 199.2 170.838 199.2ZM170.797 153.862C167.863 153.862 164.929 154.473 162.158 155.695C156.918 158.002 152.9 162.215 150.83 167.554C148.76 172.892 148.89 178.711 151.205 183.951C154.734 191.955 162.607 196.731 170.838 196.731C173.723 196.731 176.649 196.144 179.453 194.913C184.693 192.607 188.711 188.393 190.781 183.055C192.851 177.717 192.721 171.897 190.406 166.657C188.1 161.417 183.886 157.399 178.548 155.329C176.038 154.351 173.413 153.862 170.797 153.862Z" fill="#371B45"/>
<path d="M155.997 182.118C152.305 173.748 156.103 163.968 164.473 160.276C172.843 156.584 182.623 160.382 186.315 168.752C190.007 177.122 186.209 186.902 177.839 190.594C169.469 194.286 159.689 190.488 155.997 182.118Z" fill="#12C7FF"/>
<g opacity="0.3">
<path d="M155.174 182.118C151.482 173.748 155.279 163.968 163.65 160.276C165.459 159.477 167.341 159.029 169.216 158.906C169.045 158.972 168.874 159.045 168.703 159.118C160.332 162.81 156.535 172.59 160.227 180.96C163.12 187.521 169.746 191.27 176.51 190.814C168.246 194.131 158.792 190.316 155.174 182.118Z" fill="white"/>
</g>
<g opacity="0.25">
<path d="M171.506 192.101C171.767 191.995 172.036 191.889 172.297 191.775C180.667 188.083 184.465 178.303 180.773 169.933C177.994 163.633 171.767 159.917 165.288 160.047C173.479 156.926 182.761 160.74 186.339 168.849C190.031 177.219 186.241 186.999 177.863 190.691C175.793 191.604 173.633 192.069 171.506 192.101Z" fill="#371B45"/>
</g>
<path d="M171.164 193.25C168.988 193.25 166.812 192.843 164.717 192.036C160.284 190.316 156.787 186.975 154.864 182.623C150.903 173.642 154.986 163.112 163.976 159.143C172.957 155.182 183.495 159.265 187.456 168.254C189.371 172.607 189.485 177.448 187.765 181.881C186.046 186.315 182.704 189.811 178.352 191.735C176.046 192.737 173.609 193.25 171.164 193.25ZM171.139 160.104C169.078 160.104 166.983 160.52 164.978 161.408C157.244 164.823 153.723 173.886 157.138 181.62C158.792 185.369 161.8 188.246 165.622 189.73C169.436 191.213 173.609 191.115 177.35 189.461C181.099 187.806 183.976 184.799 185.459 180.977C186.942 177.154 186.845 172.99 185.19 169.249C182.664 163.519 177.032 160.104 171.139 160.104Z" fill="#371B45"/>
<path d="M191.971 158.01C187.831 163.348 180.675 167.366 173.699 166.258C167.708 165.296 161.465 158.45 150.822 157.358C143.267 156.584 134.603 162.802 122.492 155.777C121.302 155.084 120.055 154.09 118.841 152.753C114.896 148.45 111.278 140.699 111.172 129.053C111.115 122.435 112.174 114.57 114.953 105.353C115.679 102.94 116.526 100.438 117.496 97.8384C118.988 93.8449 120.781 89.6314 122.916 85.1896L153.356 84.448L151.873 92.2394L150.879 97.4635L148.915 107.814L148.711 108.89L145.785 124.244L143.715 135.141C147.945 132.598 152.101 131.62 155.606 131.4C157.138 131.302 158.556 131.351 159.795 131.482C160.585 131.563 161.303 131.669 161.938 131.799C166.812 132.745 170.716 135.532 173.462 138.181C174.082 138.776 174.644 139.371 175.141 139.925C177.048 142.068 178.067 143.78 178.067 143.78C178.067 143.78 193.528 134.562 195.459 147.456C195.956 150.87 194.546 154.693 191.971 158.01Z" fill="white"/>
<path d="M176.078 168.091C175.19 168.091 174.31 168.026 173.446 167.888C170.691 167.448 168.091 166.005 165.076 164.334C161.09 162.126 156.575 159.615 150.65 159.004C148.417 158.776 145.907 159.257 143.258 159.762C137.504 160.862 130.332 162.24 121.669 157.211C116.983 154.497 111.432 147.293 109.925 135.231C108.189 121.31 112.166 103.755 121.432 84.4806C121.824 83.6574 122.81 83.3151 123.633 83.7063C124.456 84.0975 124.798 85.0837 124.407 85.9068C115.418 104.611 111.538 121.53 113.201 134.823C114.554 145.687 119.322 152.036 123.323 154.351C130.927 158.76 136.877 157.619 142.639 156.51C145.54 155.956 148.27 155.426 150.993 155.712C157.594 156.388 162.631 159.192 166.681 161.441C169.42 162.965 171.783 164.277 173.967 164.628C178.882 165.41 184.595 163.267 188.882 159.02C192.443 155.492 194.342 151.156 193.821 147.7C193.438 145.133 192.476 143.519 190.887 142.761C187.293 141.058 181.017 143.935 178.906 145.19C178.124 145.654 177.113 145.402 176.641 144.611C176.584 144.522 170.927 135.222 161.62 133.413C158.279 132.761 151.62 132.313 144.562 136.551C143.78 137.024 142.769 136.771 142.296 135.989C141.824 135.206 142.076 134.196 142.859 133.723C150.862 128.914 158.442 129.436 162.248 130.169C170.846 131.84 176.518 138.678 178.597 141.604C181.368 140.218 187.692 137.594 192.289 139.77C194.913 141.017 196.527 143.511 197.081 147.203C197.765 151.743 195.565 157.04 191.205 161.36C186.836 165.679 181.343 168.091 176.078 168.091Z" fill="#371B45"/>
<path d="M111.71 133.397C111.71 133.397 106.347 127.716 111.172 121.767C111.172 121.767 134.513 126.559 151.799 121.099L153.747 131.327C153.739 131.319 134.399 136.942 111.71 133.397Z" fill="white"/>
<path d="M127.35 136.233C122.411 136.233 117.048 135.899 111.457 135.027C111.098 134.97 110.764 134.799 110.512 134.53C108.311 132.199 105.361 126.323 109.892 120.732C110.283 120.251 110.903 120.031 111.506 120.153C111.734 120.202 134.636 124.79 151.302 119.526C151.751 119.387 152.24 119.444 152.647 119.68C153.055 119.925 153.332 120.324 153.421 120.789L155.369 131.017C155.532 131.856 155.027 132.672 154.212 132.908C153.593 133.079 142.533 136.233 127.35 136.233ZM112.565 131.857C130.895 134.595 147.024 131.278 151.832 130.112L150.512 123.193C135.206 127.366 116.526 124.432 111.881 123.584C109.509 127.293 111.628 130.667 112.565 131.857Z" fill="#371B45"/>
<g opacity="0.25">
<path d="M191.971 158.01C191.857 158.157 191.743 158.303 191.62 158.45C191.523 158.564 191.425 158.686 191.327 158.8C191.18 158.972 191.025 159.143 190.879 159.306C190.765 159.436 190.642 159.566 190.52 159.697C190.096 160.137 189.648 160.577 189.192 160.993C189.069 161.107 188.939 161.213 188.809 161.319C188.67 161.441 188.523 161.563 188.377 161.685C188.067 161.938 187.757 162.174 187.439 162.411C187.293 162.517 187.138 162.631 186.991 162.737C186.861 162.826 186.73 162.916 186.6 163.006C186.47 163.095 186.339 163.177 186.217 163.258C185.687 163.601 185.133 163.919 184.579 164.212C184.457 164.277 184.334 164.342 184.212 164.399C183.454 164.782 182.688 165.108 181.897 165.394C181.792 165.434 181.677 165.467 181.563 165.508C180.952 165.72 180.325 165.891 179.697 166.029C179.599 166.054 179.501 166.07 179.404 166.086C179.192 166.135 178.98 166.176 178.768 166.209C178.491 166.258 178.214 166.298 177.937 166.323C177.839 166.331 177.741 166.347 177.635 166.355C177.537 166.364 177.439 166.38 177.342 166.38C177.276 166.388 177.211 166.388 177.146 166.396C177.016 166.404 176.877 166.412 176.747 166.421C175.736 166.47 174.717 166.412 173.707 166.249C167.716 165.288 161.474 158.442 150.83 157.35C143.275 156.575 134.611 162.794 122.5 155.769C121.31 155.076 120.063 154.082 118.849 152.745C114.904 148.442 111.286 140.691 111.18 129.045L134.97 133.055C134.97 133.055 121.669 135.059 122.5 142.329C122.859 145.434 125.092 148.173 128.393 150.031C132.818 152.533 139.167 153.478 145.5 151.694C156.559 148.572 162.517 151.963 168.857 157.757C173.617 162.126 184.603 164.465 191.971 158.01Z" fill="#371B45"/>
</g>
<path d="M153.739 131.319C153.739 131.319 150.993 132.117 146.355 132.924C138.686 134.253 125.85 135.606 111.702 133.397C111.702 133.397 106.339 127.716 111.164 121.767C111.164 121.767 126.347 124.88 141.294 123.226C144.88 122.826 148.45 122.158 151.791 121.099L153.739 131.319Z" fill="white"/>
<g opacity="0.25">
<path d="M153.739 131.319C153.739 131.319 153.633 131.351 153.421 131.408C153.364 131.425 153.307 131.441 153.234 131.457C153.226 131.457 153.218 131.465 153.201 131.465C153.087 131.498 152.949 131.531 152.794 131.571C152.655 131.612 152.509 131.645 152.337 131.685C152.288 131.694 152.248 131.702 152.199 131.718C151.628 131.857 150.911 132.028 150.055 132.207C149.868 132.248 149.664 132.288 149.46 132.329C148.98 132.435 148.458 132.533 147.904 132.639C147.676 132.68 147.439 132.729 147.203 132.769C146.926 132.826 146.641 132.875 146.355 132.924C138.686 134.253 125.85 135.606 111.701 133.397C111.701 133.397 107.309 128.743 110.055 123.446C110.071 123.576 110.088 123.707 110.112 123.837C110.601 126.763 113.046 128.963 115.997 129.322C124.065 130.284 131.596 130.137 137.814 129.591C140.911 129.322 142.737 125.98 141.294 123.226C144.88 122.826 148.45 122.158 151.791 121.099L152.949 127.195L153.739 131.319Z" fill="#371B45"/>
</g>
<path d="M127.35 136.233C122.411 136.233 117.048 135.899 111.457 135.027C111.098 134.97 110.764 134.799 110.512 134.53C108.311 132.199 105.361 126.323 109.892 120.732C110.283 120.251 110.903 120.031 111.506 120.153C111.734 120.202 134.636 124.79 151.302 119.526C151.751 119.387 152.24 119.444 152.647 119.68C153.055 119.925 153.332 120.324 153.421 120.789L155.369 131.017C155.532 131.856 155.027 132.672 154.212 132.908C153.593 133.079 142.533 136.233 127.35 136.233ZM112.565 131.857C130.895 134.595 147.024 131.278 151.832 130.112L150.512 123.193C135.206 127.366 116.526 124.432 111.881 123.584C109.509 127.293 111.628 130.667 112.565 131.857Z" fill="#371B45"/>
<path d="M142.411 88.4822L172.362 120.259C172.362 120.259 178.165 115.98 182.998 116.551C187.399 117.072 189.542 118.059 191.115 120.08C192.753 122.174 193.805 131.555 190.023 134.114C186.706 136.355 182.794 133.91 182.794 133.91C182.794 133.91 174.473 139.363 167.757 138.89C164.554 138.662 140.406 120.194 140.406 120.194L142.411 88.4822Z" fill="white"/>
<g opacity="0.25">
<path d="M192.558 128.116C192.386 130.626 191.661 133.014 190.023 134.114C186.706 136.355 182.794 133.91 182.794 133.91C182.794 133.91 174.473 139.363 167.757 138.89C164.554 138.67 140.406 120.194 140.406 120.194L140.447 119.526C155.182 122.044 166.046 134.334 168.849 134.538C173.699 134.88 179.387 132.125 182.175 130.577C183.177 130.015 184.367 129.9 185.459 130.267C186.901 130.764 189.118 131.115 191.123 129.754C191.71 129.363 192.183 128.8 192.558 128.116Z" fill="#371B45"/>
</g>
<path d="M143.519 87.4471L173.47 119.224L171.465 119.045C171.93 118.711 172.329 118.45 172.769 118.181C173.201 117.912 173.641 117.659 174.09 117.415C174.986 116.934 175.907 116.486 176.869 116.103C177.839 115.728 178.841 115.418 179.901 115.206C180.96 115.01 182.101 114.937 183.234 115.059C184.228 115.182 185.223 115.336 186.241 115.565C187.252 115.809 188.295 116.135 189.306 116.649C189.811 116.909 190.3 117.227 190.765 117.586C191.221 117.953 191.637 118.36 192.012 118.792L192.28 119.118C192.378 119.248 192.509 119.428 192.59 119.566C192.769 119.86 192.9 120.145 193.014 120.414C193.242 120.96 193.397 121.473 193.527 121.995C194.033 124.057 194.188 126.103 194.065 128.197C193.992 129.24 193.845 130.3 193.527 131.367C193.373 131.897 193.177 132.435 192.9 132.965C192.631 133.495 192.305 134.016 191.873 134.489C191.449 134.962 190.871 135.402 190.365 135.679C189.827 135.972 189.257 136.217 188.654 136.355C187.456 136.657 186.241 136.624 185.125 136.396C184.562 136.282 184.024 136.119 183.503 135.923C183.372 135.874 183.242 135.826 183.112 135.768L182.916 135.687L182.892 135.679C182.875 135.671 182.859 135.671 182.851 135.671C182.843 135.671 182.835 135.671 182.826 135.679L182.818 135.687H182.81H182.802L182.761 135.711L182.109 136.086C181.677 136.331 181.237 136.575 180.797 136.804C179.917 137.268 179.02 137.7 178.099 138.099C177.187 138.499 176.249 138.865 175.288 139.191C174.334 139.526 173.348 139.786 172.346 140.015C171.327 140.21 170.308 140.39 169.232 140.422L168.833 140.447L168.425 140.438C168.148 140.43 167.904 140.43 167.594 140.414C167.374 140.381 167.13 140.332 166.934 140.284L166.486 140.121C166.331 140.064 166.209 140.006 166.086 139.949L165.711 139.778C164.758 139.306 163.918 138.8 163.071 138.287C161.392 137.252 159.786 136.176 158.181 135.076C154.994 132.875 151.84 130.642 148.694 128.409C147.129 127.276 145.605 126.103 144.114 124.872C142.639 123.625 141.204 122.329 139.941 120.805C139.664 120.471 139.713 119.982 140.047 119.713C140.283 119.517 140.609 119.485 140.87 119.607C144.44 121.261 147.496 123.568 150.601 125.834C153.658 128.148 156.746 130.43 159.909 132.574C161.482 133.649 163.071 134.709 164.668 135.695C165.467 136.176 166.274 136.665 167.048 137.048L167.325 137.178C167.415 137.219 167.521 137.268 167.586 137.293L167.814 137.382C167.847 137.382 167.847 137.382 167.855 137.398C168.026 137.407 168.262 137.407 168.466 137.415L168.784 137.423L169.11 137.407C169.966 137.39 170.838 137.227 171.71 137.064C172.582 136.861 173.454 136.632 174.318 136.331C175.182 136.037 176.037 135.703 176.885 135.337C177.733 134.97 178.564 134.562 179.387 134.13C179.795 133.918 180.202 133.69 180.61 133.462L181.213 133.112L181.327 133.046C181.376 133.022 181.425 132.989 181.482 132.965C181.588 132.916 181.694 132.867 181.8 132.826C182.02 132.745 182.248 132.696 182.476 132.663C182.941 132.606 183.413 132.655 183.853 132.802C183.959 132.834 184.082 132.883 184.171 132.924L184.31 132.981C184.399 133.022 184.497 133.055 184.587 133.095C184.962 133.242 185.345 133.356 185.728 133.429C186.494 133.584 187.244 133.592 187.92 133.421C188.589 133.258 189.249 132.892 189.632 132.46C190.056 131.987 190.406 131.286 190.626 130.512C190.862 129.729 190.985 128.874 191.05 128.002C191.156 126.257 191.009 124.424 190.593 122.753C190.487 122.337 190.365 121.938 190.219 121.596C190.145 121.416 190.072 121.27 189.998 121.147C189.958 121.082 189.95 121.066 189.901 121.001L189.713 120.772C189.2 120.178 188.621 119.713 187.92 119.354C186.51 118.637 184.709 118.303 182.875 118.083C182.093 118.001 181.302 118.05 180.471 118.197C179.64 118.36 178.809 118.621 177.977 118.939C177.154 119.265 176.339 119.656 175.54 120.088C175.141 120.3 174.75 120.528 174.367 120.772C173.992 121.001 173.584 121.27 173.267 121.498L173.25 121.506C172.623 121.954 171.775 121.856 171.262 121.31L141.31 89.5335C140.74 88.9223 140.764 87.9606 141.376 87.3901C141.979 86.8033 142.94 86.8359 143.519 87.4471Z" fill="#371B45"/>
<path d="M150.724 127.822C150.724 127.822 161.196 117.912 164.236 111.636Z" fill="white"/>
<path d="M150.724 129.061C150.398 129.061 150.072 128.931 149.827 128.678C149.354 128.181 149.379 127.398 149.876 126.926C149.982 126.828 160.218 117.097 163.128 111.098C163.429 110.487 164.163 110.226 164.782 110.528C165.394 110.83 165.654 111.563 165.353 112.182C162.248 118.58 152.011 128.311 151.579 128.719C151.335 128.947 151.025 129.061 150.724 129.061Z" fill="#371B45"/>
<path d="M176.942 63.1276C176.494 63.258 176.021 63.0053 175.891 62.5571L168.947 39.1829C168.817 38.7346 169.069 38.2619 169.518 38.1315C174.22 36.7379 179.159 39.4111 180.561 44.1136L182.924 52.0843C184.326 56.7869 181.645 61.7258 176.942 63.1276Z" fill="white"/>
<path d="M176.698 63.4536C176.51 63.4536 176.323 63.4047 176.152 63.315C175.883 63.1683 175.687 62.932 175.598 62.6386L168.654 39.2644C168.564 38.971 168.597 38.6613 168.743 38.3923C168.89 38.1234 169.126 37.9278 169.42 37.8381C171.767 37.1372 174.253 37.398 176.404 38.5635C178.556 39.7289 180.129 41.6686 180.83 44.0158L183.201 51.9865C183.902 54.3337 183.642 56.8195 182.476 58.9711C181.311 61.1227 179.371 62.6956 177.024 63.3965C176.918 63.4373 176.812 63.4536 176.698 63.4536ZM172.06 38.0582C171.237 38.0582 170.414 38.1804 169.607 38.4168C169.469 38.4575 169.346 38.5553 169.281 38.6857C169.208 38.8161 169.2 38.9628 169.241 39.1014L176.184 62.4756C176.225 62.6141 176.323 62.7364 176.453 62.8016C176.584 62.8749 176.73 62.8831 176.869 62.8423C181.408 61.4976 184 56.7054 182.655 52.1658L180.284 44.1951C179.632 41.9946 178.165 40.1853 176.144 39.0932C174.864 38.4086 173.47 38.0582 172.06 38.0582Z" fill="#371B45"/>
<g opacity="0.25">
<path d="M181.816 48.3435L182.924 52.0843C184.318 56.7869 181.645 61.7258 176.942 63.1276C176.494 63.258 176.021 63.0053 175.891 62.5571L174.041 56.3468C174.253 56.5913 174.595 56.7054 174.921 56.6076L175.475 56.4446C179.192 55.3362 181.645 52.011 181.816 48.3435Z" fill="#371B45"/>
</g>
<path d="M176.698 64.3989C176.356 64.3989 176.013 64.3174 175.712 64.1463C175.223 63.8774 174.864 63.4372 174.709 62.9075L167.765 39.5333C167.611 39.0036 167.668 38.4331 167.928 37.9441C168.197 37.4551 168.637 37.0965 169.167 36.9416C171.759 36.1755 174.497 36.4607 176.869 37.7484C179.249 39.0361 180.977 41.1714 181.751 43.7631L184.122 51.7339C184.889 54.3256 184.603 57.0558 183.316 59.4356C182.028 61.8154 179.893 63.5432 177.301 64.3174C177.097 64.3663 176.902 64.3989 176.698 64.3989ZM170.251 39.2154L176.967 61.8154C180.773 60.4706 182.908 56.3467 181.743 52.4347L179.371 44.4641C178.792 42.5081 177.48 40.8943 175.687 39.9245C174.008 39.0117 172.093 38.7672 170.251 39.2154Z" fill="#371B45"/>
<path d="M92.3697 61.0493C92.8179 60.9189 93.2906 61.1715 93.421 61.6198L100.365 84.994C100.495 85.4422 100.243 85.9149 99.7943 86.0453C95.0918 87.439 90.1529 84.7658 88.7511 80.0632L86.3794 72.0925C84.9939 67.39 87.6671 62.4429 92.3697 61.0493Z" fill="white"/>
<path d="M97.2677 86.7136C93.3068 86.7136 89.6475 84.1301 88.4657 80.1529L86.0941 72.1822C84.6515 67.3329 87.4307 62.2147 92.2799 60.7722C92.883 60.5929 93.5187 60.9352 93.698 61.5383L100.642 84.9125C100.821 85.5156 100.479 86.1513 99.8676 86.3306C99.0118 86.5832 98.1316 86.7136 97.2677 86.7136ZM92.4511 61.3345C87.9115 62.6793 85.3198 67.4715 86.6646 72.011L89.0362 79.9817C90.381 84.5213 95.1732 87.113 99.7127 85.7682C100.006 85.6786 100.169 85.377 100.079 85.0836L93.1357 61.7094C93.0949 61.5709 92.9971 61.4568 92.8667 61.3834C92.7445 61.3101 92.5978 61.2938 92.4511 61.3345Z" fill="#371B45"/>
<g opacity="0.25">
<path d="M98.4414 78.5066L100.365 84.994C100.495 85.4422 100.243 85.9149 99.7943 86.0453C97.3249 86.7788 94.7902 86.3876 92.7364 85.1733C90.8782 84.073 89.4193 82.2963 88.7592 80.0632L87.7649 76.7054C89.9735 79.2564 93.5595 80.4218 97.007 79.4031L97.8627 79.1504C98.1643 79.0526 98.3762 78.8 98.4414 78.5066Z" fill="#371B45"/>
</g>
<path d="M97.2514 87.6591C95.5888 87.6591 93.9425 87.2434 92.4429 86.4284C90.0631 85.1407 88.3353 83.0054 87.5611 80.4137L85.1894 72.443C83.6002 67.0966 86.6564 61.4487 92.0028 59.8594C93.1031 59.5334 94.2685 60.161 94.5945 61.2612L101.538 84.6354C101.864 85.7357 101.237 86.9011 100.137 87.2271C99.1911 87.5124 98.2213 87.6591 97.2514 87.6591ZM92.3533 62.3533C88.5472 63.6981 86.4119 67.822 87.5774 71.734L89.949 79.7047C91.1145 83.6167 95.1487 85.9068 99.077 84.9533L92.3533 62.3533Z" fill="#371B45"/>
<path d="M175.231 53.1112C180.186 75.5156 166.046 97.6999 143.641 102.655C121.237 107.61 99.0526 93.47 94.0974 71.0657C89.134 48.6613 103.282 26.477 125.687 21.5218C148.091 16.5585 170.267 30.7069 175.231 53.1112Z" fill="white"/>
<path d="M134.579 103.943C126.697 103.943 118.971 101.702 112.166 97.3657C102.745 91.3592 96.2246 82.0356 93.8041 71.1227C91.3917 60.2099 93.3721 49.0117 99.3787 39.5822C105.385 30.1608 114.709 23.6408 125.622 21.2202C148.148 16.2324 170.536 30.5031 175.524 53.0379C180.512 75.5645 166.241 97.9525 143.707 102.94C140.667 103.617 137.61 103.943 134.579 103.943ZM134.668 20.829C131.726 20.829 128.735 21.1469 125.752 21.807C114.994 24.1868 105.809 30.6172 99.884 39.9082C93.9589 49.1992 92.0111 60.2425 94.3909 71.0005C96.7707 81.7585 103.201 90.9435 112.492 96.8685C121.783 102.794 132.826 104.741 143.584 102.362C165.793 97.4472 179.86 75.377 174.945 53.1682C170.683 33.9505 153.584 20.829 134.668 20.829Z" fill="#371B45"/>
<g opacity="0.25">
<path d="M173.601 47.5774C174.269 49.3541 174.807 51.2041 175.231 53.1031C180.186 75.5074 166.046 97.6917 143.641 102.647C121.237 107.602 99.0526 93.4619 94.0974 71.0575C93.9507 70.4137 93.8285 69.7617 93.7144 69.126C100.821 88.2703 121.131 99.7211 141.628 95.1897C163.389 90.373 177.35 69.3134 173.601 47.5774Z" fill="#371B45"/>
</g>
<path d="M134.578 104.888C126.518 104.888 118.621 102.598 111.661 98.1644C102.027 92.0193 95.3607 82.492 92.8912 71.3346C90.4218 60.1773 92.443 48.7265 98.5881 39.0851C104.733 29.4518 114.261 22.7769 125.418 20.3075C148.458 15.2137 171.343 29.8022 176.437 52.8423C181.539 75.8742 166.942 98.7675 143.902 103.861C140.805 104.546 137.684 104.888 134.578 104.888ZM134.668 21.7663C131.791 21.7663 128.873 22.076 125.956 22.7199C115.442 25.0426 106.461 31.3263 100.674 40.4054C94.888 49.4845 92.9809 60.275 95.3036 70.7885C97.6264 81.302 103.91 90.2834 112.989 96.0699C122.068 101.856 132.859 103.763 143.372 101.441C165.076 96.6404 178.825 75.0755 174.024 53.372C169.868 34.5944 153.152 21.7663 134.668 21.7663Z" fill="#371B45"/>
<path d="M175.329 54.1789C177.203 62.0925 176.38 70.0469 173.43 77.1619C171.221 82.5001 159.575 93.6819 142.892 97.7977C127.431 101.612 111.367 96.6974 106.991 92.924C101.155 87.8873 96.844 81.1554 94.9695 73.2417C90.0062 52.3044 105.931 39.3622 128.124 34.0973C150.316 28.8324 170.365 33.2415 175.329 54.1789Z" fill="#371B45"/>
<g opacity="0.5">
<path d="M156.282 54.7168C156.502 58.7755 159.061 61.9295 161.995 61.7746C164.937 61.6198 167.138 58.205 166.918 54.1463C166.698 50.0876 164.139 46.9335 161.205 47.0884C158.262 47.2432 156.062 50.6662 156.282 54.7168Z" fill="white"/>
</g>
<g opacity="0.5">
<path d="M155.728 69.8676C155.573 71.7258 156.73 73.3395 158.328 73.4781C159.925 73.6166 161.343 72.2148 161.498 70.3648C161.653 68.5066 160.496 66.8929 158.898 66.7543C157.301 66.6158 155.883 68.0094 155.728 69.8676Z" fill="white"/>
</g>
<g opacity="0.35">
<path d="M162.884 36.5015C168.906 40.0223 173.332 45.7681 175.329 54.1789C177.203 62.0925 176.38 70.0469 173.43 77.1619C171.213 82.5001 159.575 93.6819 142.892 97.7977C137.007 99.2484 131.033 99.4358 125.646 98.8979C146.038 93.4048 160.202 79.7047 162.949 73.0869C166.698 64.0485 167.741 53.9588 165.361 43.918C164.725 41.2367 163.894 38.7672 162.884 36.5015Z" fill="#121A27"/>
</g>
<path d="M93.7715 55.6948C93.6085 55.6948 93.4455 55.654 93.2907 55.5725C92.8098 55.3199 92.6142 54.7412 92.8261 54.2522C97.4472 42.1658 109.778 32.94 126.673 28.9302C143.462 24.9448 158.588 27.4632 168.181 35.8332C168.54 36.1348 168.662 36.6482 168.45 37.0883C168.197 37.6018 167.578 37.8055 167.073 37.5529L166.95 37.4958L166.844 37.4062C157.765 29.4681 143.299 27.1127 127.154 30.9351C110.919 34.79 99.1098 43.5676 94.7495 55.0183L94.7006 55.1324C94.4969 55.4992 94.1383 55.6948 93.7715 55.6948Z" fill="#371B45"/>
<g opacity="0.5">
<path d="M106.958 83.5515C106.958 83.5515 95.5726 64.4397 104.758 53.5676C113.935 42.6955 129.957 38.9302 129.827 40.0468C129.827 40.0468 113.12 48.5472 109.509 64.2034C106.714 76.2817 106.958 83.5515 106.958 83.5515Z" fill="white"/>
</g>
<g opacity="0.25">
<path d="M160.381 101.424C159.281 102.296 158.124 103.111 156.926 103.878C154.44 105.451 151.759 106.779 148.914 107.814C148.857 107.838 148.792 107.855 148.727 107.879C147.089 108.466 145.394 108.963 143.641 109.346C142.777 109.534 141.922 109.697 141.066 109.835C132.981 111.107 125.01 109.933 117.953 106.82C116.934 106.38 115.94 105.891 114.953 105.361C111.261 103.372 107.887 100.829 104.937 97.8221C105.369 97.7732 105.801 97.7488 106.241 97.7569L117.496 97.8466C118.988 93.8531 120.781 89.6395 122.916 85.1978L153.356 84.4561L151.873 92.2475L160.381 101.424Z" fill="#371B45"/>
</g>
<path d="M122.492 155.777C134.595 162.794 143.267 156.575 150.822 157.35C161.474 158.442 167.708 165.288 173.699 166.25C185.003 168.059 196.779 156.372 195.443 147.447C193.511 134.554 178.051 143.772 178.051 143.772C178.051 143.772 172.109 133.772 161.93 131.799C158.026 131.042 150.976 130.773 143.707 135.141" fill="white"/>
<path d="M122.492 155.777C134.595 162.794 143.267 156.575 150.822 157.35C161.474 158.442 167.708 165.288 173.699 166.25C185.003 168.059 196.779 156.372 195.443 147.447C193.511 134.554 178.051 143.772 178.051 143.772C178.051 143.772 172.109 133.772 161.93 131.799C158.026 131.042 150.976 130.773 143.707 135.141" fill="white"/>
<g opacity="0.25">
<path d="M191.971 158.01C191.857 158.157 191.743 158.303 191.62 158.45C191.523 158.564 191.425 158.686 191.327 158.8C191.18 158.972 191.025 159.143 190.879 159.306C190.765 159.436 190.642 159.567 190.52 159.697C190.096 160.137 189.648 160.577 189.192 160.993C189.069 161.107 188.939 161.213 188.809 161.319C188.67 161.441 188.523 161.563 188.377 161.685C188.067 161.938 187.757 162.174 187.439 162.411C187.293 162.517 187.138 162.631 186.991 162.737C186.861 162.826 186.73 162.916 186.6 163.006C186.47 163.095 186.339 163.177 186.217 163.258C185.687 163.601 185.133 163.919 184.579 164.212C184.457 164.277 184.334 164.342 184.212 164.399C183.454 164.783 182.688 165.108 181.897 165.394C181.791 165.434 181.677 165.467 181.563 165.508C180.952 165.72 180.324 165.891 179.697 166.029C179.599 166.054 179.501 166.07 179.404 166.086C179.192 166.135 178.98 166.176 178.768 166.209C178.491 166.258 178.214 166.298 177.937 166.323C177.839 166.331 177.741 166.347 177.635 166.355C177.537 166.364 177.439 166.38 177.342 166.38C177.276 166.388 177.211 166.388 177.146 166.396C177.016 166.404 176.877 166.413 176.747 166.421C175.736 166.47 174.717 166.412 173.707 166.249C167.716 165.288 161.474 158.442 150.83 157.35C143.275 156.575 134.611 162.794 122.5 155.769L128.393 150.039C132.818 152.541 139.167 153.487 145.5 151.702C156.559 148.58 162.517 151.971 168.857 157.765C173.617 162.126 184.603 164.465 191.971 158.01Z" fill="#371B45"/>
</g>
<path d="M157.456 160.512C156.567 160.512 155.834 159.811 155.809 158.914C155.785 158.099 155.312 138.914 168.173 133.071C169.004 132.696 169.982 133.063 170.357 133.894C170.732 134.725 170.365 135.703 169.534 136.078C158.678 141.001 159.102 158.629 159.102 158.809C159.126 159.721 158.417 160.479 157.504 160.512C157.488 160.512 157.472 160.512 157.456 160.512Z" fill="#371B45"/>
<path d="M123.258 154.465L124.676 155.206L125.385 155.573L126.119 155.875C126.608 156.07 127.089 156.298 127.594 156.461L129.102 156.918C131.131 157.439 133.234 157.676 135.353 157.611C137.48 157.553 139.615 157.219 141.808 156.804C144 156.404 146.257 155.899 148.702 155.793C149.012 155.785 149.306 155.744 149.623 155.769L150.561 155.809C150.716 155.817 150.879 155.826 151.025 155.834L151.465 155.891L152.346 156.013C152.94 156.078 153.519 156.209 154.098 156.331L154.97 156.51L155.826 156.747C158.108 157.366 160.3 158.254 162.378 159.281C164.456 160.3 166.437 161.449 168.377 162.501C168.866 162.761 169.346 163.006 169.827 163.258L170.553 163.601L170.911 163.772L171.27 163.919C172.24 164.351 173.177 164.595 174.139 164.766C175.133 164.929 176.16 164.929 177.17 164.864C178.189 164.799 179.2 164.611 180.194 164.326C182.191 163.78 184.09 162.851 185.834 161.677C186.698 161.082 187.529 160.43 188.311 159.73C189.086 159.02 189.811 158.254 190.471 157.439C191.8 155.817 192.859 153.992 193.487 152.077C193.805 151.123 193.984 150.137 194.025 149.175C194.033 148.931 194.016 148.694 194.016 148.458C194.008 148.222 193.968 147.985 193.951 147.749C193.927 147.513 193.862 147.26 193.821 147.016L193.748 146.649L193.65 146.298C193.397 145.353 193.014 144.497 192.468 143.829C191.93 143.169 191.237 142.696 190.414 142.411C189.591 142.126 188.646 142.036 187.659 142.085C186.673 142.142 185.663 142.329 184.652 142.606C183.642 142.883 182.647 143.242 181.661 143.65C181.172 143.861 180.683 144.082 180.202 144.318C179.73 144.546 179.232 144.807 178.817 145.051C178.1 145.467 177.187 145.239 176.747 144.538L176.738 144.522C176.543 144.204 176.29 143.829 176.038 143.478C175.793 143.12 175.524 142.778 175.255 142.435C174.986 142.093 174.701 141.759 174.424 141.416C174.13 141.09 173.845 140.756 173.552 140.438C172.362 139.159 171.074 137.977 169.672 136.958C169.338 136.689 168.972 136.453 168.613 136.217C168.254 135.98 167.896 135.736 167.521 135.532C167.146 135.328 166.779 135.108 166.396 134.913L165.239 134.383L164.945 134.253L164.644 134.147L164.049 133.935L163.454 133.723C163.258 133.65 163.046 133.617 162.843 133.56L161.612 133.258C161.188 133.185 160.773 133.112 160.341 133.055C156.934 132.614 153.389 132.875 150.121 133.967C148.491 134.513 146.885 135.165 145.32 135.883L144.742 136.152L144.448 136.282L144.147 136.445C143.747 136.665 143.332 136.869 142.924 137.073C142.101 137.48 141.27 137.871 140.389 138.197C139.99 138.352 139.542 138.148 139.387 137.749C139.273 137.456 139.354 137.138 139.558 136.934C140.218 136.258 140.911 135.646 141.62 135.035C142.329 134.44 143.03 133.845 143.894 133.324C145.54 132.272 147.325 131.473 149.208 130.952C151.082 130.43 152.998 130.072 154.929 129.909C156.861 129.746 158.817 129.795 160.74 130.047C161.221 130.112 161.702 130.194 162.191 130.284L163.633 130.634C163.87 130.699 164.114 130.74 164.35 130.83L165.051 131.074L165.752 131.319L166.103 131.441L166.437 131.596L167.773 132.207C168.205 132.427 168.629 132.68 169.061 132.916C169.493 133.144 169.892 133.421 170.3 133.69C170.707 133.959 171.115 134.22 171.498 134.522C173.063 135.663 174.489 136.975 175.793 138.377C176.119 138.727 176.429 139.094 176.755 139.452C177.056 139.819 177.366 140.186 177.668 140.569C177.961 140.952 178.254 141.327 178.531 141.726C178.817 142.126 179.078 142.509 179.363 142.973L177.285 142.443C177.847 142.117 178.344 141.865 178.882 141.596C179.412 141.335 179.95 141.09 180.496 140.862C181.588 140.406 182.712 139.998 183.87 139.689C185.035 139.371 186.241 139.143 187.505 139.069C188.768 139.004 190.096 139.11 191.408 139.558C192.712 139.998 193.959 140.838 194.831 141.93C195.72 143.022 196.241 144.269 196.576 145.491L196.706 145.956L196.796 146.412C196.853 146.722 196.926 147.016 196.959 147.342C196.991 147.668 197.04 147.994 197.048 148.32C197.048 148.646 197.065 148.971 197.056 149.289C197.008 150.577 196.763 151.832 196.38 153.014C195.598 155.377 194.342 157.496 192.827 159.363C192.06 160.292 191.237 161.164 190.357 161.979C189.469 162.778 188.523 163.519 187.529 164.196C185.54 165.532 183.348 166.608 181.001 167.252C179.827 167.578 178.621 167.806 177.39 167.888C176.168 167.969 174.921 167.961 173.69 167.765C172.435 167.562 171.188 167.203 170.096 166.722L169.672 166.551L169.273 166.364L168.466 165.981C167.953 165.712 167.423 165.451 166.926 165.182C164.913 164.09 162.989 162.973 161.025 162.02C159.069 161.058 157.064 160.251 155.002 159.689L154.228 159.477L153.446 159.314C152.924 159.2 152.403 159.086 151.873 159.029L151.082 158.923L150.683 158.866C150.553 158.857 150.43 158.857 150.308 158.849C149.811 158.825 149.314 158.784 148.792 158.833C146.73 158.915 144.57 159.379 142.345 159.795C140.121 160.219 137.798 160.593 135.418 160.65C133.038 160.724 130.626 160.455 128.303 159.852L126.583 159.33C126.013 159.143 125.475 158.89 124.921 158.67L124.089 158.328L123.299 157.92L121.726 157.097C120.984 156.706 120.699 155.793 121.082 155.051C121.473 154.31 122.386 154.025 123.128 154.416L123.258 154.465Z" fill="#371B45"/>
</svg>
