<svg width="531" height="282" viewBox="0 0 531 282" fill="none" xmlns="http://www.w3.org/2000/svg">
<path d="M298.234 169.125C298.234 169.312 298.151 169.562 297.984 169.875C297.828 170.177 297.604 170.479 297.312 170.781C296.562 171.562 295.76 172.276 294.906 172.922C294.062 173.568 293.188 174.125 292.281 174.594C291.375 175.062 290.443 175.427 289.484 175.688C288.536 175.948 287.578 176.078 286.609 176.078C285.932 176.078 285.302 175.948 284.719 175.688C284.146 175.427 283.646 175.094 283.219 174.688C282.792 174.271 282.453 173.807 282.203 173.297C281.964 172.786 281.844 172.286 281.844 171.797C281.844 170.87 281.948 169.911 282.156 168.922C282.365 167.922 282.688 166.938 283.125 165.969C283.573 165 284.141 164.073 284.828 163.188C285.526 162.302 286.354 161.505 287.312 160.797C288.031 160.266 288.729 159.906 289.406 159.719C290.083 159.531 290.698 159.438 291.25 159.438C291.531 159.438 291.833 159.557 292.156 159.797C292.49 160.026 292.797 160.323 293.078 160.688C293.359 161.042 293.589 161.438 293.766 161.875C293.953 162.312 294.047 162.729 294.047 163.125C294.047 163.354 293.984 163.625 293.859 163.938C293.734 164.25 293.562 164.552 293.344 164.844C293.125 165.125 292.87 165.365 292.578 165.562C292.286 165.76 291.974 165.859 291.641 165.859C291.516 165.859 291.391 165.849 291.266 165.828C291.141 165.807 291.031 165.771 290.938 165.719C290.844 165.656 290.766 165.573 290.703 165.469C290.641 165.365 290.609 165.229 290.609 165.062C290.609 164.906 290.635 164.745 290.688 164.578C290.74 164.401 290.797 164.224 290.859 164.047C290.932 163.87 290.995 163.693 291.047 163.516C291.099 163.339 291.125 163.167 291.125 163C291.125 162.656 291.026 162.484 290.828 162.484C290.661 162.484 290.49 162.505 290.312 162.547C290.135 162.578 289.938 162.656 289.719 162.781C289.5 162.896 289.255 163.062 288.984 163.281C288.724 163.49 288.427 163.766 288.094 164.109C287.792 164.422 287.479 164.839 287.156 165.359C286.844 165.88 286.552 166.448 286.281 167.062C286.021 167.677 285.802 168.318 285.625 168.984C285.458 169.651 285.375 170.292 285.375 170.906C285.375 171.198 285.417 171.479 285.5 171.75C285.594 172.01 285.724 172.245 285.891 172.453C286.057 172.651 286.26 172.807 286.5 172.922C286.74 173.036 287.005 173.094 287.297 173.094C288.109 173.094 288.891 172.995 289.641 172.797C290.401 172.589 291.13 172.307 291.828 171.953C292.536 171.589 293.219 171.161 293.875 170.672C294.542 170.172 295.177 169.625 295.781 169.031C295.99 168.823 296.229 168.646 296.5 168.5C296.781 168.354 297.021 168.281 297.219 168.281C297.333 168.281 297.448 168.297 297.562 168.328C297.677 168.349 297.786 168.396 297.891 168.469C297.995 168.531 298.078 168.62 298.141 168.734C298.203 168.839 298.234 168.969 298.234 169.125ZM303.188 162.625C303.167 162.448 303.125 162.286 303.062 162.141C303 161.995 302.865 161.922 302.656 161.922C302.24 161.922 301.854 162.094 301.5 162.438C301.146 162.781 300.812 163.25 300.5 163.844C300.198 164.427 299.922 165.109 299.672 165.891C299.422 166.672 299.193 167.51 298.984 168.406C299.068 168.344 299.161 168.26 299.266 168.156C299.38 168.052 299.49 167.948 299.594 167.844C299.708 167.729 299.812 167.625 299.906 167.531C300.01 167.427 300.094 167.344 300.156 167.281C300.781 166.625 301.292 166.057 301.688 165.578C302.083 165.089 302.391 164.667 302.609 164.312C302.839 163.948 302.99 163.635 303.062 163.375C303.146 163.104 303.188 162.854 303.188 162.625ZM314.766 164.234C314.766 164.328 314.729 164.505 314.656 164.766C314.583 165.026 314.448 165.281 314.25 165.531C313.062 167.042 311.901 168.458 310.766 169.781C309.63 171.094 308.516 172.24 307.422 173.219C306.328 174.188 305.255 174.953 304.203 175.516C303.161 176.078 302.141 176.359 301.141 176.359C300.203 176.359 299.396 176.208 298.719 175.906C298.042 175.604 297.479 175.182 297.031 174.641C296.594 174.089 296.271 173.427 296.062 172.656C295.854 171.885 295.75 171.031 295.75 170.094C295.75 169.385 295.818 168.635 295.953 167.844C296.078 167.052 296.276 166.26 296.547 165.469C296.807 164.677 297.141 163.901 297.547 163.141C297.964 162.38 298.453 161.682 299.016 161.047C299.255 160.776 299.536 160.51 299.859 160.25C300.182 159.99 300.526 159.76 300.891 159.562C301.255 159.354 301.635 159.188 302.031 159.062C302.427 158.927 302.812 158.859 303.188 158.859C303.625 158.859 304.026 158.948 304.391 159.125C304.766 159.302 305.083 159.536 305.344 159.828C305.604 160.109 305.807 160.438 305.953 160.812C306.099 161.177 306.172 161.557 306.172 161.953C306.172 162.359 306.099 162.812 305.953 163.312C305.818 163.812 305.609 164.333 305.328 164.875C305.047 165.417 304.698 165.964 304.281 166.516C303.875 167.068 303.406 167.599 302.875 168.109C302.677 168.297 302.432 168.516 302.141 168.766C301.859 169.016 301.552 169.281 301.219 169.562C300.896 169.844 300.557 170.13 300.203 170.422C299.849 170.703 299.51 170.964 299.188 171.203C299.198 171.432 299.25 171.672 299.344 171.922C299.438 172.161 299.578 172.385 299.766 172.594C299.953 172.792 300.193 172.958 300.484 173.094C300.776 173.219 301.125 173.281 301.531 173.281C302.271 173.281 303.073 173.026 303.938 172.516C304.802 171.995 305.708 171.312 306.656 170.469C307.604 169.625 308.578 168.667 309.578 167.594C310.589 166.51 311.604 165.406 312.625 164.281C312.771 164.115 312.958 163.943 313.188 163.766C313.417 163.589 313.688 163.5 314 163.5C314.062 163.5 314.135 163.521 314.219 163.562C314.312 163.594 314.396 163.646 314.469 163.719C314.552 163.781 314.62 163.859 314.672 163.953C314.734 164.036 314.766 164.13 314.766 164.234ZM335.797 163.406C335.797 163.583 335.734 163.786 335.609 164.016C335.495 164.234 335.349 164.464 335.172 164.703C334.995 164.932 334.802 165.156 334.594 165.375C334.396 165.594 334.208 165.781 334.031 165.938C333.51 166.406 332.88 166.911 332.141 167.453C331.411 167.984 330.589 168.531 329.672 169.094C328.766 169.646 327.781 170.203 326.719 170.766C325.656 171.328 324.531 171.875 323.344 172.406C323.312 172.427 323.193 172.516 322.984 172.672C322.786 172.818 322.536 172.995 322.234 173.203C321.932 173.401 321.599 173.62 321.234 173.859C320.88 174.089 320.531 174.302 320.188 174.5C319.854 174.698 319.547 174.865 319.266 175C318.995 175.125 318.786 175.188 318.641 175.188C318.37 175.188 318.099 175.146 317.828 175.062C317.557 174.99 317.312 174.891 317.094 174.766C316.875 174.63 316.693 174.479 316.547 174.312C316.411 174.135 316.344 173.958 316.344 173.781C316.344 173.417 316.458 173.089 316.688 172.797C316.927 172.495 317.266 172.234 317.703 172.016C318.089 171.807 318.401 171.635 318.641 171.5C318.88 171.365 319.094 171.24 319.281 171.125C319.469 171.01 319.651 170.891 319.828 170.766C320.005 170.641 320.224 170.49 320.484 170.312C320.766 169.917 321.078 169.432 321.422 168.859C321.776 168.276 322.104 167.667 322.406 167.031C322.719 166.385 322.979 165.75 323.188 165.125C323.396 164.49 323.5 163.927 323.5 163.438C323.5 163.292 323.49 163.141 323.469 162.984C323.448 162.828 323.417 162.688 323.375 162.562C323.344 162.438 323.297 162.333 323.234 162.25C323.182 162.167 323.115 162.125 323.031 162.125C322.823 162.125 322.594 162.193 322.344 162.328C322.094 162.464 321.844 162.635 321.594 162.844C321.344 163.042 321.099 163.255 320.859 163.484C320.63 163.714 320.422 163.922 320.234 164.109C319.193 165.193 318.271 166.297 317.469 167.422C316.677 168.547 316.005 169.651 315.453 170.734C315.359 171.547 315.281 172.385 315.219 173.25C315.167 174.104 315.115 174.964 315.062 175.828C315.021 176.703 314.969 177.562 314.906 178.406C314.844 179.26 314.75 180.078 314.625 180.859C314.531 181.12 314.443 181.365 314.359 181.594C314.286 181.833 314.193 182.036 314.078 182.203C313.964 182.38 313.807 182.521 313.609 182.625C313.422 182.729 313.161 182.781 312.828 182.781C312.661 182.781 312.474 182.74 312.266 182.656C312.057 182.573 311.859 182.458 311.672 182.312C311.484 182.167 311.328 182 311.203 181.812C311.078 181.625 311.016 181.427 311.016 181.219C311.016 180.906 311.042 180.495 311.094 179.984C311.146 179.484 311.208 178.979 311.281 178.469C311.354 177.969 311.422 177.505 311.484 177.078C311.547 176.661 311.589 176.375 311.609 176.219C311.651 175.885 311.698 175.411 311.75 174.797C311.812 174.172 311.875 173.474 311.938 172.703C312 171.932 312.057 171.12 312.109 170.266C312.172 169.401 312.229 168.568 312.281 167.766C312.333 166.953 312.375 166.198 312.406 165.5C312.448 164.802 312.474 164.234 312.484 163.797C312.505 163.266 312.536 162.786 312.578 162.359C312.63 161.922 312.724 161.552 312.859 161.25C312.995 160.948 313.182 160.719 313.422 160.562C313.661 160.396 313.984 160.312 314.391 160.312C314.661 160.312 314.906 160.365 315.125 160.469C315.344 160.573 315.536 160.708 315.703 160.875C315.87 161.042 315.995 161.229 316.078 161.438C316.172 161.646 316.219 161.859 316.219 162.078C316.219 162.276 316.198 162.536 316.156 162.859C316.125 163.172 316.078 163.505 316.016 163.859C315.964 164.214 315.906 164.568 315.844 164.922C315.781 165.266 315.719 165.562 315.656 165.812C316.198 164.667 316.76 163.729 317.344 163C317.927 162.271 318.469 161.677 318.969 161.219C319.292 160.917 319.635 160.625 320 160.344C320.375 160.052 320.76 159.797 321.156 159.578C321.562 159.349 321.974 159.167 322.391 159.031C322.807 158.885 323.224 158.812 323.641 158.812C324.099 158.812 324.531 158.917 324.938 159.125C325.354 159.323 325.714 159.583 326.016 159.906C326.328 160.219 326.573 160.573 326.75 160.969C326.938 161.365 327.031 161.755 327.031 162.141C327.031 162.536 326.979 163.016 326.875 163.578C326.771 164.141 326.615 164.724 326.406 165.328C326.208 165.932 325.958 166.536 325.656 167.141C325.365 167.734 325.026 168.271 324.641 168.75C325.38 168.396 326.109 168.016 326.828 167.609C327.557 167.193 328.26 166.76 328.938 166.312C329.625 165.865 330.281 165.411 330.906 164.953C331.531 164.484 332.115 164.021 332.656 163.562C332.938 163.344 333.177 163.141 333.375 162.953C333.573 162.766 333.75 162.609 333.906 162.484C334.062 162.349 334.214 162.245 334.359 162.172C334.505 162.089 334.672 162.047 334.859 162.047C335.047 162.047 335.203 162.099 335.328 162.203C335.453 162.297 335.547 162.417 335.609 162.562C335.682 162.708 335.729 162.859 335.75 163.016C335.781 163.161 335.797 163.292 335.797 163.406ZM330.75 168.75C330.75 167.708 330.974 166.661 331.422 165.609C331.87 164.557 332.516 163.568 333.359 162.641C334.203 161.703 335.224 160.87 336.422 160.141C337.63 159.411 338.984 158.854 340.484 158.469C340.266 157.052 339.87 155.974 339.297 155.234C338.734 154.484 338.047 154.109 337.234 154.109C336.724 154.109 336.193 154.234 335.641 154.484C335.099 154.734 334.547 155.042 333.984 155.406C333.661 155.615 333.401 155.745 333.203 155.797C333.016 155.839 332.823 155.859 332.625 155.859C332.49 155.859 332.349 155.839 332.203 155.797C332.068 155.755 331.943 155.688 331.828 155.594C331.724 155.5 331.635 155.38 331.562 155.234C331.49 155.089 331.453 154.917 331.453 154.719C331.453 154.573 331.49 154.406 331.562 154.219C331.646 154.021 331.75 153.828 331.875 153.641C332.01 153.443 332.156 153.255 332.312 153.078C332.479 152.901 332.646 152.75 332.812 152.625C333.604 152.031 334.411 151.599 335.234 151.328C336.057 151.047 336.885 150.906 337.719 150.906C338.771 150.906 339.719 151.151 340.562 151.641C341.406 152.12 342.12 152.812 342.703 153.719C343.286 154.615 343.734 155.698 344.047 156.969C344.359 158.229 344.516 159.641 344.516 161.203C344.516 161.693 344.49 162.219 344.438 162.781C344.396 163.333 344.339 163.875 344.266 164.406C344.193 164.938 344.109 165.443 344.016 165.922C343.922 166.391 343.828 166.781 343.734 167.094C343.422 168.135 343.005 169.125 342.484 170.062C341.964 170.99 341.349 171.802 340.641 172.5C339.943 173.198 339.161 173.75 338.297 174.156C337.443 174.562 336.526 174.766 335.547 174.766C334.797 174.766 334.125 174.625 333.531 174.344C332.938 174.052 332.432 173.646 332.016 173.125C331.609 172.604 331.297 171.974 331.078 171.234C330.859 170.484 330.75 169.656 330.75 168.75ZM336.203 171.578C336.547 171.578 336.911 171.458 337.297 171.219C337.693 170.979 338.078 170.63 338.453 170.172C338.828 169.703 339.182 169.135 339.516 168.469C339.859 167.792 340.146 167.021 340.375 166.156C340.427 165.948 340.479 165.677 340.531 165.344C340.594 165.01 340.646 164.651 340.688 164.266C340.74 163.88 340.781 163.484 340.812 163.078C340.844 162.672 340.859 162.292 340.859 161.938C340.859 161.833 340.859 161.693 340.859 161.516C340.859 161.339 340.854 161.208 340.844 161.125C340.094 161.365 339.339 161.719 338.578 162.188C337.828 162.646 337.146 163.208 336.531 163.875C335.927 164.531 335.432 165.286 335.047 166.141C334.672 166.984 334.484 167.917 334.484 168.938C334.484 169.417 334.526 169.823 334.609 170.156C334.703 170.49 334.828 170.76 334.984 170.969C335.141 171.177 335.323 171.333 335.531 171.438C335.74 171.531 335.964 171.578 336.203 171.578ZM363.641 178.125C363.849 177.802 364.021 177.448 364.156 177.062C364.292 176.688 364.401 176.312 364.484 175.938C364.568 175.573 364.63 175.224 364.672 174.891C364.724 174.547 364.76 174.25 364.781 174C364.417 174.177 364.005 174.349 363.547 174.516C363.099 174.672 362.651 174.75 362.203 174.75C361.828 174.75 361.469 174.677 361.125 174.531C360.792 174.385 360.5 174.156 360.25 173.844C360 173.531 359.802 173.141 359.656 172.672C359.51 172.193 359.438 171.625 359.438 170.969C359.438 170.771 359.443 170.568 359.453 170.359C359.464 170.151 359.484 169.932 359.516 169.703C358.911 170.547 358.26 171.307 357.562 171.984C356.865 172.661 356.167 173.245 355.469 173.734C354.771 174.214 354.104 174.583 353.469 174.844C352.833 175.104 352.281 175.234 351.812 175.234C350.49 175.234 349.474 174.828 348.766 174.016C348.068 173.193 347.719 172.036 347.719 170.547C347.719 170.182 347.755 169.75 347.828 169.25C347.901 168.75 348 168.214 348.125 167.641C348.25 167.057 348.396 166.443 348.562 165.797C348.74 165.151 348.927 164.5 349.125 163.844C349.198 163.604 349.276 163.349 349.359 163.078C349.443 162.797 349.521 162.536 349.594 162.297C349.667 162.047 349.734 161.828 349.797 161.641C349.87 161.453 349.927 161.328 349.969 161.266H349.953C350.13 160.901 350.333 160.615 350.562 160.406C350.792 160.188 351.12 160.078 351.547 160.078C352.12 160.078 352.573 160.198 352.906 160.438C353.24 160.667 353.406 161.073 353.406 161.656C353.406 161.802 353.365 162.042 353.281 162.375C353.198 162.708 353.099 163.068 352.984 163.453C352.87 163.839 352.75 164.208 352.625 164.562C352.51 164.906 352.411 165.167 352.328 165.344C352.036 166.292 351.812 167.13 351.656 167.859C351.5 168.589 351.422 169.292 351.422 169.969C351.422 170.583 351.484 171.042 351.609 171.344C351.734 171.646 351.943 171.797 352.234 171.797C352.599 171.797 352.979 171.708 353.375 171.531C353.781 171.344 354.182 171.099 354.578 170.797C354.984 170.495 355.38 170.151 355.766 169.766C356.161 169.37 356.531 168.964 356.875 168.547C357.219 168.13 357.531 167.719 357.812 167.312C358.094 166.896 358.328 166.516 358.516 166.172C358.651 165.922 358.781 165.688 358.906 165.469C359.042 165.25 359.172 165.016 359.297 164.766C359.432 164.516 359.573 164.24 359.719 163.938C359.875 163.635 360.042 163.281 360.219 162.875V162.891C360.323 162.661 360.422 162.448 360.516 162.25C360.62 162.042 360.729 161.859 360.844 161.703C360.969 161.547 361.104 161.427 361.25 161.344C361.396 161.25 361.562 161.203 361.75 161.203C361.958 161.203 362.177 161.229 362.406 161.281C362.646 161.323 362.865 161.401 363.062 161.516C363.271 161.62 363.443 161.76 363.578 161.938C363.714 162.115 363.781 162.328 363.781 162.578C363.781 162.578 363.74 162.698 363.656 162.938C363.583 163.177 363.495 163.464 363.391 163.797C363.286 164.12 363.182 164.453 363.078 164.797C362.974 165.13 362.896 165.401 362.844 165.609C362.771 165.901 362.703 166.229 362.641 166.594C362.578 166.958 362.521 167.328 362.469 167.703C362.427 168.068 362.391 168.411 362.359 168.734C362.339 169.057 362.328 169.323 362.328 169.531C362.328 170.135 362.38 170.635 362.484 171.031C362.589 171.417 362.76 171.609 363 171.609C363.333 171.609 363.672 171.557 364.016 171.453C364.37 171.339 364.693 171.208 364.984 171.062C365.286 170.917 365.547 170.771 365.766 170.625C365.984 170.479 366.13 170.375 366.203 170.312C366.38 170.146 366.562 170.031 366.75 169.969C366.938 169.896 367.146 169.859 367.375 169.859C367.625 169.859 367.828 169.906 367.984 170C368.151 170.094 368.281 170.214 368.375 170.359C368.479 170.495 368.552 170.641 368.594 170.797C368.635 170.953 368.656 171.099 368.656 171.234C368.656 171.307 368.641 171.448 368.609 171.656C368.578 171.854 368.536 172.073 368.484 172.312C368.443 172.542 368.396 172.76 368.344 172.969C368.302 173.177 368.271 173.328 368.25 173.422V173.406C368.135 173.854 368.021 174.344 367.906 174.875C367.802 175.406 367.677 175.948 367.531 176.5C367.385 177.062 367.198 177.625 366.969 178.188C366.75 178.76 366.464 179.307 366.109 179.828C365.818 180.266 365.521 180.62 365.219 180.891C364.927 181.161 364.641 181.365 364.359 181.5C364.078 181.646 363.807 181.74 363.547 181.781C363.297 181.833 363.057 181.859 362.828 181.859C362.464 181.859 362.172 181.766 361.953 181.578C361.734 181.391 361.625 181.13 361.625 180.797C361.625 180.63 361.661 180.479 361.734 180.344C361.807 180.208 361.885 180.104 361.969 180.031C362.271 179.771 362.573 179.464 362.875 179.109C363.188 178.755 363.443 178.427 363.641 178.125ZM376.828 163.078C376.807 162.714 376.74 162.469 376.625 162.344C376.51 162.208 376.349 162.141 376.141 162.141C375.828 162.141 375.495 162.312 375.141 162.656C374.797 163 374.469 163.453 374.156 164.016C373.844 164.578 373.573 165.224 373.344 165.953C373.115 166.672 372.958 167.411 372.875 168.172C373.073 167.984 373.292 167.807 373.531 167.641C373.781 167.464 374.057 167.219 374.359 166.906C374.703 166.562 375.026 166.229 375.328 165.906C375.63 165.583 375.891 165.266 376.109 164.953C376.339 164.641 376.516 164.328 376.641 164.016C376.766 163.703 376.828 163.391 376.828 163.078ZM385.453 169.094C385.453 169.26 385.385 169.464 385.25 169.703C385.115 169.943 384.974 170.141 384.828 170.297C384.141 171.089 383.406 171.859 382.625 172.609C381.854 173.359 381.036 174.031 380.172 174.625C379.318 175.208 378.427 175.677 377.5 176.031C376.573 176.385 375.625 176.562 374.656 176.562C373.719 176.562 372.906 176.417 372.219 176.125C371.542 175.833 370.984 175.422 370.547 174.891C370.109 174.349 369.786 173.698 369.578 172.938C369.37 172.177 369.266 171.328 369.266 170.391C369.266 169.651 369.323 168.896 369.438 168.125C369.542 167.354 369.724 166.578 369.984 165.797C370.245 165.016 370.583 164.24 371 163.469C371.417 162.698 371.938 161.948 372.562 161.219C373.177 160.5 373.823 159.979 374.5 159.656C375.188 159.323 375.865 159.156 376.531 159.156C377.042 159.156 377.495 159.229 377.891 159.375C378.297 159.521 378.635 159.724 378.906 159.984C379.188 160.245 379.401 160.557 379.547 160.922C379.693 161.276 379.766 161.661 379.766 162.078C379.766 163.026 379.464 164.031 378.859 165.094C378.266 166.156 377.438 167.188 376.375 168.188C376.177 168.375 375.938 168.589 375.656 168.828C375.375 169.068 375.073 169.323 374.75 169.594C374.427 169.854 374.094 170.12 373.75 170.391C373.406 170.661 373.073 170.917 372.75 171.156C372.802 171.448 372.88 171.734 372.984 172.016C373.089 172.286 373.229 172.531 373.406 172.75C373.594 172.969 373.818 173.146 374.078 173.281C374.339 173.417 374.646 173.484 375 173.484C375.667 173.484 376.328 173.375 376.984 173.156C377.641 172.927 378.297 172.609 378.953 172.203C379.609 171.797 380.266 171.307 380.922 170.734C381.589 170.151 382.26 169.5 382.938 168.781C382.99 168.729 383.062 168.672 383.156 168.609C383.25 168.536 383.359 168.464 383.484 168.391C383.609 168.318 383.74 168.26 383.875 168.219C384.021 168.167 384.167 168.141 384.312 168.141C384.375 168.141 384.469 168.177 384.594 168.25C384.719 168.312 384.844 168.391 384.969 168.484C385.094 168.578 385.203 168.682 385.297 168.797C385.401 168.901 385.453 169 385.453 169.094Z" fill="#FFD243"/>
<path d="M290.432 109.648C289.744 109.648 289.128 109.784 288.584 110.056C288.056 110.328 287.608 110.72 287.24 111.232C286.872 111.728 286.592 112.336 286.4 113.056C286.224 113.776 286.136 114.584 286.136 115.48C286.136 116.696 286.28 117.736 286.568 118.6C286.872 119.448 287.344 120.096 287.984 120.544C288.624 120.992 289.44 121.216 290.432 121.216C291.136 121.216 291.832 121.136 292.52 120.976C293.224 120.816 293.984 120.592 294.8 120.304V123.352C294.048 123.656 293.304 123.88 292.568 124.024C291.832 124.168 291.008 124.24 290.096 124.24C288.336 124.24 286.88 123.88 285.728 123.16C284.592 122.424 283.752 121.4 283.208 120.088C282.664 118.76 282.392 117.216 282.392 115.456C282.392 114.16 282.568 112.976 282.92 111.904C283.272 110.816 283.784 109.88 284.456 109.096C285.144 108.312 285.984 107.704 286.976 107.272C287.984 106.84 289.136 106.624 290.432 106.624C291.28 106.624 292.128 106.736 292.976 106.96C293.84 107.168 294.664 107.456 295.448 107.824L294.272 110.776C293.632 110.472 292.984 110.208 292.328 109.984C291.688 109.76 291.056 109.648 290.432 109.648ZM309.889 124H306.313V113.584H303.025C302.865 115.504 302.665 117.144 302.425 118.504C302.201 119.848 301.913 120.944 301.561 121.792C301.225 122.64 300.793 123.264 300.265 123.664C299.737 124.048 299.089 124.24 298.321 124.24C297.905 124.24 297.529 124.208 297.193 124.144C296.857 124.08 296.553 123.984 296.281 123.856V121C296.457 121.064 296.641 121.12 296.833 121.168C297.025 121.216 297.225 121.24 297.433 121.24C297.657 121.24 297.865 121.152 298.057 120.976C298.265 120.8 298.457 120.488 298.633 120.04C298.825 119.592 299.001 118.976 299.161 118.192C299.321 117.408 299.465 116.424 299.593 115.24C299.737 114.04 299.865 112.592 299.977 110.896H309.889V124ZM311.75 110.896H315.662L318.134 118.264C318.214 118.504 318.278 118.744 318.326 118.984C318.39 119.224 318.438 119.472 318.47 119.728C318.518 119.984 318.55 120.256 318.566 120.544H318.638C318.686 120.128 318.75 119.736 318.83 119.368C318.926 118.984 319.03 118.616 319.142 118.264L321.566 110.896H325.406L319.862 125.68C319.526 126.576 319.086 127.328 318.542 127.936C318.014 128.544 317.398 129 316.694 129.304C315.99 129.608 315.222 129.76 314.39 129.76C313.99 129.76 313.638 129.736 313.334 129.688C313.046 129.656 312.79 129.616 312.566 129.568V126.736C312.742 126.768 312.95 126.8 313.19 126.832C313.446 126.864 313.71 126.88 313.982 126.88C314.478 126.88 314.902 126.776 315.254 126.568C315.622 126.36 315.926 126.072 316.166 125.704C316.406 125.352 316.598 124.968 316.742 124.552L316.958 123.904L311.75 110.896ZM346.798 110.896V124H327.286V110.896H330.862V121.312H335.254V110.896H338.83V121.312H343.222V110.896H346.798ZM355.912 110.632C357.672 110.632 359.016 111.016 359.944 111.784C360.888 112.536 361.36 113.696 361.36 115.264V124H358.864L358.168 122.224H358.072C357.704 122.688 357.32 123.072 356.92 123.376C356.536 123.68 356.088 123.896 355.576 124.024C355.08 124.168 354.464 124.24 353.728 124.24C352.96 124.24 352.264 124.096 351.64 123.808C351.032 123.504 350.552 123.048 350.2 122.44C349.848 121.816 349.672 121.032 349.672 120.088C349.672 118.696 350.16 117.672 351.136 117.016C352.112 116.344 353.576 115.976 355.528 115.912L357.808 115.84V115.264C357.808 114.576 357.624 114.072 357.256 113.752C356.904 113.432 356.408 113.272 355.768 113.272C355.128 113.272 354.504 113.368 353.896 113.56C353.288 113.736 352.68 113.96 352.072 114.232L350.896 111.808C351.6 111.44 352.376 111.152 353.224 110.944C354.088 110.736 354.984 110.632 355.912 110.632ZM356.416 117.976C355.264 118.008 354.464 118.216 354.016 118.6C353.568 118.984 353.344 119.488 353.344 120.112C353.344 120.656 353.504 121.048 353.824 121.288C354.144 121.512 354.56 121.624 355.072 121.624C355.84 121.624 356.488 121.4 357.016 120.952C357.544 120.488 357.808 119.84 357.808 119.008V117.928L356.416 117.976ZM377.572 105.256C377.492 106.088 377.26 106.824 376.876 107.464C376.492 108.088 375.892 108.576 375.076 108.928C374.26 109.28 373.164 109.456 371.788 109.456C370.38 109.456 369.276 109.288 368.476 108.952C367.692 108.6 367.132 108.112 366.796 107.488C366.46 106.864 366.26 106.12 366.196 105.256H369.388C369.468 106.136 369.692 106.72 370.06 107.008C370.428 107.296 371.028 107.44 371.86 107.44C372.548 107.44 373.108 107.288 373.54 106.984C373.988 106.664 374.252 106.088 374.332 105.256H377.572ZM368.476 116.08C368.476 116.352 368.46 116.688 368.428 117.088C368.412 117.488 368.388 117.896 368.356 118.312C368.34 118.728 368.316 119.096 368.284 119.416C368.252 119.736 368.228 119.96 368.212 120.088L374.26 110.896H378.556V124H375.1V118.768C375.1 118.336 375.116 117.864 375.148 117.352C375.18 116.824 375.212 116.336 375.244 115.888C375.292 115.424 375.324 115.072 375.34 114.832L369.316 124H365.02V110.896H368.476V116.08ZM403.962 110.896V124H400.626V117.568C400.626 116.928 400.634 116.304 400.65 115.696C400.682 115.088 400.722 114.528 400.77 114.016H400.698L397.074 124H394.386L390.714 113.992H390.618C390.682 114.52 390.722 115.088 390.738 115.696C390.77 116.288 390.786 116.944 390.786 117.664V124H387.45V110.896H392.514L395.778 119.776L399.09 110.896H403.962ZM405.828 110.896H409.74L412.212 118.264C412.292 118.504 412.356 118.744 412.404 118.984C412.468 119.224 412.516 119.472 412.548 119.728C412.596 119.984 412.628 120.256 412.644 120.544H412.716C412.764 120.128 412.828 119.736 412.908 119.368C413.004 118.984 413.108 118.616 413.22 118.264L415.644 110.896H419.484L413.94 125.68C413.604 126.576 413.164 127.328 412.62 127.936C412.092 128.544 411.476 129 410.772 129.304C410.068 129.608 409.3 129.76 408.468 129.76C408.068 129.76 407.716 129.736 407.412 129.688C407.124 129.656 406.868 129.616 406.644 129.568V126.736C406.82 126.768 407.028 126.8 407.268 126.832C407.524 126.864 407.788 126.88 408.06 126.88C408.556 126.88 408.98 126.776 409.332 126.568C409.7 126.36 410.004 126.072 410.244 125.704C410.484 125.352 410.676 124.968 410.82 124.552L411.036 123.904L405.828 110.896ZM426.14 110.656C427.084 110.656 427.964 110.784 428.78 111.04C429.612 111.28 430.276 111.656 430.772 112.168C431.284 112.68 431.54 113.336 431.54 114.136C431.54 114.92 431.3 115.544 430.82 116.008C430.356 116.472 429.724 116.808 428.924 117.016V117.136C429.484 117.264 429.988 117.448 430.436 117.688C430.884 117.912 431.236 118.224 431.492 118.624C431.764 119.008 431.9 119.528 431.9 120.184C431.9 120.904 431.668 121.576 431.204 122.2C430.756 122.808 430.052 123.304 429.092 123.688C428.148 124.056 426.932 124.24 425.444 124.24C424.74 124.24 424.076 124.208 423.452 124.144C422.828 124.08 422.26 123.992 421.748 123.88C421.236 123.752 420.788 123.6 420.404 123.424V120.472C420.948 120.728 421.612 120.96 422.396 121.168C423.196 121.376 424.044 121.48 424.94 121.48C425.596 121.48 426.18 121.432 426.692 121.336C427.22 121.24 427.636 121.08 427.94 120.856C428.26 120.632 428.42 120.336 428.42 119.968C428.42 119.616 428.284 119.328 428.012 119.104C427.74 118.864 427.332 118.688 426.788 118.576C426.244 118.464 425.548 118.408 424.7 118.408H423.308V115.936H424.628C425.812 115.936 426.724 115.84 427.364 115.648C428.02 115.456 428.348 115.096 428.348 114.568C428.348 114.152 428.14 113.84 427.724 113.632C427.308 113.408 426.628 113.296 425.684 113.296C425.06 113.296 424.38 113.368 423.644 113.512C422.908 113.656 422.212 113.864 421.556 114.136L420.5 111.64C421.252 111.352 422.076 111.12 422.972 110.944C423.868 110.752 424.924 110.656 426.14 110.656ZM434.677 124V110.896H438.253V115.96H439.981C441.325 115.96 442.429 116.104 443.293 116.392C444.157 116.664 444.797 117.088 445.213 117.664C445.645 118.24 445.861 118.96 445.861 119.824C445.861 120.672 445.661 121.408 445.261 122.032C444.877 122.656 444.261 123.144 443.413 123.496C442.581 123.832 441.477 124 440.101 124H434.677ZM439.909 121.528C440.613 121.528 441.181 121.4 441.613 121.144C442.061 120.888 442.285 120.464 442.285 119.872C442.285 119.36 442.077 118.992 441.661 118.768C441.261 118.544 440.661 118.432 439.861 118.432H438.253V121.528H439.909ZM447.757 124V110.896H451.333V124H447.757ZM463.659 110.896H467.595L462.411 117.184L468.051 124H463.995L458.643 117.352V124H455.067V110.896H458.643V117.256L463.659 110.896ZM468.055 110.896H471.967L474.439 118.264C474.519 118.504 474.583 118.744 474.631 118.984C474.695 119.224 474.743 119.472 474.775 119.728C474.823 119.984 474.855 120.256 474.871 120.544H474.943C474.991 120.128 475.055 119.736 475.135 119.368C475.231 118.984 475.335 118.616 475.447 118.264L477.871 110.896H481.711L476.167 125.68C475.831 126.576 475.391 127.328 474.847 127.936C474.319 128.544 473.703 129 472.999 129.304C472.295 129.608 471.527 129.76 470.695 129.76C470.295 129.76 469.943 129.736 469.639 129.688C469.351 129.656 469.095 129.616 468.871 129.568V126.736C469.047 126.768 469.255 126.8 469.495 126.832C469.751 126.864 470.015 126.88 470.287 126.88C470.783 126.88 471.207 126.776 471.559 126.568C471.927 126.36 472.231 126.072 472.471 125.704C472.711 125.352 472.903 124.968 473.047 124.552L473.263 123.904L468.055 110.896ZM492.203 116.08C492.203 116.352 492.187 116.688 492.155 117.088C492.139 117.488 492.115 117.896 492.083 118.312C492.067 118.728 492.043 119.096 492.011 119.416C491.979 119.736 491.955 119.96 491.939 120.088L497.987 110.896H502.283V124H498.827V118.768C498.827 118.336 498.843 117.864 498.875 117.352C498.907 116.824 498.939 116.336 498.971 115.888C499.019 115.424 499.051 115.072 499.067 114.832L493.043 124H488.747V110.896H492.203V116.08Z" fill="white"/>
<path d="M40.8283 175.526C40.8283 175.938 39.9834 176.3 38.7196 176.499C38.0806 176.598 37.5836 177.102 37.4842 177.734C37.2854 178.998 36.9304 179.843 36.5115 179.843C36.0997 179.843 35.7376 178.998 35.5388 177.734C35.4394 177.095 34.9353 176.598 34.3034 176.499C33.0396 176.3 32.1947 175.945 32.1947 175.526C32.1947 175.114 33.0396 174.752 34.3034 174.553C34.9424 174.454 35.4465 173.95 35.5459 173.311C35.7447 172.047 36.0997 171.202 36.5186 171.202C36.9304 171.202 37.2925 172.047 37.4913 173.311C37.5907 173.95 38.0948 174.454 38.7338 174.553C39.9905 174.752 40.8283 175.114 40.8283 175.526Z" fill="white"/>
<path d="M76.2928 210.281C76.2147 210.622 75.4479 210.764 74.3687 210.7C73.822 210.664 73.3179 210.991 73.112 211.502C72.7144 212.51 72.2671 213.149 71.9192 213.071C71.5784 212.993 71.4364 212.226 71.5003 211.147C71.5358 210.6 71.2092 210.096 70.698 209.89C69.6898 209.493 69.0508 209.038 69.1289 208.697C69.207 208.357 69.9738 208.208 71.053 208.279C71.5997 208.314 72.1109 207.987 72.3097 207.476C72.7073 206.468 73.1546 205.829 73.5025 205.907C73.8433 205.985 73.9853 206.752 73.9214 207.831C73.8859 208.378 74.2125 208.889 74.7237 209.088C75.739 209.486 76.3709 209.933 76.2928 210.281Z" fill="white"/>
<path d="M200.919 54.244C200.841 54.5848 200.074 54.7268 198.995 54.6629C198.448 54.6274 197.944 54.954 197.738 55.4652C197.341 56.4734 196.893 57.1124 196.546 57.0343C196.198 56.9562 196.063 56.1894 196.127 55.1102C196.162 54.5635 195.836 54.0594 195.324 53.8535C194.316 53.4559 193.677 53.0015 193.755 52.6607C193.833 52.3199 194.6 52.1708 195.679 52.2418C196.226 52.2773 196.737 51.9507 196.936 51.4395C197.334 50.4313 197.781 49.7923 198.129 49.8704C198.47 49.9485 198.612 50.7153 198.548 51.7945C198.512 52.3412 198.839 52.8524 199.35 53.0512C200.365 53.4488 200.997 53.9032 200.919 54.244Z" fill="white"/>
<path d="M243.484 154.64C243.955 154.169 243.955 153.405 243.484 152.933C243.012 152.462 242.248 152.462 241.777 152.933C241.305 153.405 241.305 154.169 241.777 154.64C242.248 155.111 243.012 155.111 243.484 154.64Z" fill="white"/>
<path d="M206.864 76.8016C207.463 76.6269 207.806 76.0002 207.632 75.4016C207.457 74.8031 206.83 74.4594 206.232 74.6341C205.633 74.8087 205.29 75.4355 205.464 76.034C205.639 76.6326 206.266 76.9762 206.864 76.8016Z" fill="white"/>
<path d="M234.807 111.132C235.328 110.536 235.267 109.63 234.67 109.109C234.073 108.588 233.167 108.649 232.646 109.245C232.125 109.842 232.187 110.748 232.783 111.269C233.38 111.79 234.286 111.729 234.807 111.132Z" fill="white"/>
<path d="M85.1967 55.0489C85.2949 54.109 84.6127 53.2673 83.6728 53.1691C82.7328 53.0708 81.8912 53.7531 81.7929 54.693C81.6947 55.6329 82.3769 56.4745 83.3168 56.5728C84.2568 56.6711 85.0984 55.9888 85.1967 55.0489Z" fill="white"/>
<path d="M242.264 181.299C242.854 180.561 242.733 179.484 241.995 178.894C241.257 178.304 240.18 178.425 239.59 179.163C239 179.901 239.12 180.978 239.859 181.568C240.597 182.158 241.674 182.037 242.264 181.299Z" fill="white"/>
<path d="M30.6628 144.27C30.8349 143.541 30.3836 142.811 29.6547 142.639C28.9258 142.467 28.1954 142.918 28.0233 143.647C27.8512 144.376 28.3025 145.106 29.0314 145.278C29.7603 145.451 30.4907 144.999 30.6628 144.27Z" fill="white"/>
<path d="M210.646 222.933C210.991 222.933 211.271 222.653 211.271 222.308C211.271 221.963 210.991 221.683 210.646 221.683C210.301 221.683 210.021 221.963 210.021 222.308C210.021 222.653 210.301 222.933 210.646 222.933Z" fill="white"/>
<path d="M210.092 132.38C210.437 132.38 210.717 132.1 210.717 131.755C210.717 131.41 210.437 131.13 210.092 131.13C209.747 131.13 209.468 131.41 209.468 131.755C209.468 132.1 209.747 132.38 210.092 132.38Z" fill="white"/>
<path d="M221.289 73.9607C220.977 74.2163 220.508 74.1737 220.252 73.8542C219.997 73.5418 220.039 73.0732 220.359 72.8176C220.678 72.562 221.14 72.6046 221.396 72.9241C221.651 73.2365 221.609 73.7051 221.289 73.9607Z" fill="white"/>
<path d="M224.236 122.574C224.257 123.057 223.888 123.469 223.405 123.497C222.922 123.519 222.51 123.149 222.482 122.667C222.461 122.184 222.83 121.772 223.313 121.744C223.795 121.715 224.207 122.092 224.236 122.574Z" fill="white"/>
<path d="M38.0877 119.756C38.0877 120.139 37.7753 120.451 37.3848 120.451C37.0014 120.451 36.689 120.139 36.689 119.749C36.689 119.365 37.0014 119.053 37.3919 119.053C37.7753 119.053 38.0877 119.372 38.0877 119.756Z" fill="white"/>
<path d="M49.343 115.317C50.0927 115.087 50.514 114.293 50.2839 113.543C50.0538 112.793 49.2595 112.372 48.5097 112.602C47.76 112.832 47.3388 113.626 47.5688 114.376C47.7989 115.126 48.5933 115.547 49.343 115.317Z" fill="white"/>
<path d="M79.0405 124.981C79.0405 125.336 78.3092 125.649 77.2158 125.819C76.662 125.904 76.2289 126.337 76.1437 126.891C75.9733 127.985 75.6609 128.716 75.3059 128.716C74.9509 128.716 74.6385 127.985 74.4681 126.891C74.3829 126.337 73.9498 125.904 73.396 125.819C72.3026 125.649 71.5713 125.336 71.5713 124.981C71.5713 124.619 72.3026 124.314 73.396 124.144C73.9498 124.058 74.3829 123.625 74.4681 123.071C74.6385 121.978 74.9509 121.247 75.3059 121.247C75.6609 121.247 75.9733 121.978 76.1437 123.071C76.2289 123.625 76.662 124.058 77.2158 124.144C78.3092 124.307 79.0405 124.619 79.0405 124.981Z" fill="white"/>
<path d="M34.4383 85.555C34.4383 85.91 33.707 86.2224 32.6136 86.3928C32.0598 86.478 31.6267 86.9111 31.5415 87.4649C31.3711 88.5583 31.0587 89.2896 30.7037 89.2896C30.3487 89.2896 30.0363 88.5583 29.8659 87.4649C29.7807 86.9111 29.3476 86.478 28.7938 86.3928C27.7004 86.2224 26.9691 85.91 26.9691 85.555C26.9691 85.1929 27.7004 84.8876 28.7938 84.7172C29.3476 84.632 29.7807 84.1989 29.8659 83.6451C30.0363 82.5517 30.3487 81.8204 30.7037 81.8204C31.0587 81.8204 31.3711 82.5517 31.5415 83.6451C31.6267 84.1989 32.0598 84.632 32.6136 84.7172C33.7141 84.8805 34.4383 85.1929 34.4383 85.555Z" fill="white"/>
<path d="M64.5352 66.2643C64.5352 66.6193 63.8039 66.9317 62.7105 67.1021C62.1567 67.1873 61.7236 67.6204 61.6384 68.1742C61.468 69.2676 61.1556 69.9989 60.8006 69.9989C60.4456 69.9989 60.1332 69.2676 59.9628 68.1742C59.8776 67.6204 59.4445 67.1873 58.8907 67.1021C57.7973 66.9317 57.066 66.6193 57.066 66.2643C57.066 65.9022 57.7973 65.5969 58.8907 65.4265C59.4445 65.3413 59.8776 64.9082 59.9628 64.3544C60.1332 63.261 60.4456 62.5297 60.8006 62.5297C61.1556 62.5297 61.468 63.261 61.6384 64.3544C61.7236 64.9082 62.1567 65.3413 62.7105 65.4265C63.8039 65.5898 64.5352 65.9022 64.5352 66.2643Z" fill="white"/>
<path d="M60.592 193.33C60.7641 192.602 60.3128 191.871 59.5839 191.699C58.855 191.527 58.1246 191.978 57.9525 192.707C57.7804 193.436 58.2317 194.166 58.9606 194.339C59.6895 194.511 60.4199 194.059 60.592 193.33Z" fill="white"/>
<path d="M212.414 196.343C212.414 196.727 212.102 197.039 211.711 197.039C211.321 197.039 211.015 196.727 211.015 196.336C211.015 195.946 211.328 195.641 211.718 195.641C212.102 195.641 212.414 195.953 212.414 196.343Z" fill="white"/>
<path d="M86.3489 227.932C86.4163 227.15 85.8376 226.462 85.0562 226.395C84.2749 226.327 83.5868 226.906 83.5194 227.687C83.4519 228.469 84.0306 229.157 84.812 229.224C85.5933 229.292 86.2814 228.713 86.3489 227.932Z" fill="white"/>
<path d="M137.424 225.148C136.891 226.76 136.011 228.258 134.825 229.543L127.157 237.857C125.432 239.731 123.16 241.052 120.646 241.478C116.741 242.138 113.759 240.562 112.063 237.836C110.408 235.18 109.982 231.439 111.111 227.612C102.499 216.877 95.6047 209.336 95.8887 202.251C95.981 199.908 96.8543 197.621 98.7074 195.278L130.984 197.628L136.487 198.026L129.415 204.842C132.802 209.003 136.039 213.44 137.466 217.743C138.262 220.199 138.219 222.784 137.424 225.148Z" fill="white"/>
<path d="M118.914 242.976C116.145 242.976 113.71 241.918 111.921 239.902C109.343 236.998 108.491 232.461 109.627 227.924C108.797 226.888 107.973 225.879 107.185 224.9C97.3016 212.716 90.159 203.912 97.6495 194.448C97.9264 194.1 98.3595 193.908 98.8068 193.944L136.579 196.691C137.111 196.727 137.566 197.075 137.75 197.579C137.928 198.076 137.8 198.637 137.417 199.006L131.233 204.97C134.229 208.712 137.31 213.021 138.744 217.331C140.25 221.847 139.128 226.881 135.826 230.459L128.158 238.773C126.184 240.917 123.6 242.351 120.881 242.806C120.199 242.919 119.546 242.976 118.914 242.976ZM99.3322 196.684C94.1137 203.905 98.9559 210.494 109.272 223.203C110.202 224.353 111.168 225.539 112.155 226.774C112.432 227.115 112.524 227.576 112.396 227.995C111.253 231.872 111.842 235.748 113.937 238.113C115.52 239.895 117.764 240.605 120.419 240.15C122.549 239.788 124.594 238.652 126.163 236.941L133.831 228.627C136.472 225.766 137.367 221.761 136.174 218.176C134.754 213.909 131.424 209.471 128.357 205.701C127.917 205.162 127.959 204.366 128.464 203.884L133.363 199.155L99.3322 196.684Z" fill="#371A45"/>
<path d="M111.544 226.71C114.384 228.372 117.934 227.59 120.448 225.581C120.866 225.255 121.392 225.844 121.016 226.227C119.091 228.137 116.287 229.444 113.475 229.216C112.51 229.145 111.551 228.904 110.65 228.521C109.372 227.924 110.295 226.057 111.544 226.71Z" fill="#371A45"/>
<path d="M129.955 205.701C126.937 207.519 123.139 208.413 119.702 207.405C119.461 207.334 119.319 207.086 119.383 206.844C119.447 206.617 119.667 206.475 119.894 206.518C123.117 207.071 126.291 205.943 128.84 204.011C130.004 203.216 131.154 204.956 129.955 205.701Z" fill="#371A45"/>
<path d="M104.892 218.566C104.217 218.566 103.543 218.538 102.868 218.467C102.314 218.41 101.91 217.92 101.959 217.366C102.016 216.813 102.506 216.401 103.067 216.458C113.255 217.452 124.388 209.919 130.409 202.485C130.757 202.052 131.396 201.988 131.829 202.336C132.262 202.691 132.326 203.323 131.978 203.756C126.021 211.111 115.236 218.566 104.892 218.566Z" fill="#371A45"/>
<g opacity="0.3">
<path d="M137.424 225.148C136.891 226.76 136.011 228.258 134.825 229.543L127.157 237.857C125.432 239.731 123.16 241.052 120.646 241.478C116.741 242.138 113.759 240.562 112.062 237.836C112.723 238.169 113.419 238.446 114.143 238.645C117.686 239.618 121.619 238.524 124.473 236.217C127.327 233.909 129.173 230.501 130.047 226.93C130.196 226.305 130.324 225.638 130.118 225.027C129.969 224.566 129.642 224.182 129.33 223.813C127.668 221.868 126.007 219.915 124.509 217.842C122.116 214.541 120.135 210.941 117.537 207.803C114.931 204.665 111.544 201.938 107.533 201.2C103.528 200.461 98.8849 202.194 97.2093 205.914L96.4993 205.275C96.1727 204.295 95.9739 203.28 95.8887 202.258C95.981 199.915 96.8543 197.628 98.7074 195.285L130.984 197.636C128.605 202.215 124.267 205.793 119.248 207.064C121.939 207.426 124.722 207.029 127.2 205.935C128.648 207.959 130.096 209.982 131.545 212.006C133.76 215.094 136.011 218.275 136.969 221.953C137.225 222.997 137.381 224.069 137.424 225.148Z" fill="#371A45"/>
</g>
<path d="M175.203 231.716C179.697 236.6 179.243 243.09 175.416 246.548C173.719 248.074 171.362 249.018 168.479 248.962C166.434 248.919 164.439 248.315 162.629 247.364C156.615 244.183 151.325 238.766 148.933 233.682C148.649 233.079 148.422 232.447 148.251 231.801C147.74 229.841 147.775 227.761 148.358 225.787L151.83 214.022C152.156 212.922 152.064 211.75 151.595 210.707C149.579 206.227 146.32 202.251 142.088 198.672L143.629 198.615L178.895 197.373C180.435 199.879 181.465 202.556 182.005 205.353C183.609 213.561 181.053 222.798 175.203 231.716Z" fill="white"/>
<path d="M168.728 250.31C168.635 250.31 168.543 250.31 168.451 250.31C166.285 250.268 164.12 249.679 161.997 248.557C155.884 245.319 150.275 239.71 147.712 234.257C146.419 231.51 146.192 228.371 147.066 225.411L150.545 213.639C150.772 212.858 150.715 212.013 150.374 211.26C148.514 207.121 145.525 203.337 141.229 199.695C140.803 199.332 140.647 198.75 140.825 198.225C141.009 197.699 141.492 197.337 142.053 197.323L178.859 196.031C179.342 196.01 179.797 196.258 180.052 196.67C185.995 206.333 184.83 219.021 176.878 231.602C179.882 235.365 180.634 240.079 178.81 244.119C177.049 248.01 173.3 250.31 168.728 250.31ZM145.447 199.9C148.734 203.124 151.212 206.56 152.831 210.16C153.434 211.502 153.541 213.014 153.129 214.406L149.65 226.178C148.961 228.499 149.139 230.963 150.154 233.114C152.483 238.07 157.623 243.196 163.261 246.178C165.007 247.101 166.768 247.584 168.508 247.62C172.086 247.698 175.018 245.972 176.353 243.019C177.858 239.682 177.035 235.706 174.209 232.631C173.79 232.177 173.733 231.495 174.074 230.977C181.728 219.319 183.197 207.625 178.149 198.75L145.447 199.9Z" fill="#371A45"/>
<path d="M175.892 232.873C173.059 234.307 169.658 234.478 166.832 233.065C165.916 232.603 165.092 231.978 164.432 231.219C164.255 231.013 164.276 230.707 164.482 230.53C164.666 230.367 164.936 230.374 165.121 230.53C166.456 231.666 168.202 232.177 169.885 232.127C171.575 232.085 173.201 231.503 174.514 230.558C176.133 229.493 177.603 231.95 175.892 232.873Z" fill="#371A45"/>
<path d="M171.497 222.202C169.906 222.202 168.252 222.052 166.562 221.747C159.881 220.533 153.988 217.182 151.184 213C150.871 212.538 150.999 211.907 151.46 211.601C151.922 211.289 152.554 211.41 152.859 211.878C155.337 215.563 160.854 218.659 166.924 219.759C172.434 220.76 177.475 219.986 180.769 217.643C181.224 217.317 181.856 217.423 182.175 217.878C182.502 218.332 182.395 218.964 181.941 219.283C179.25 221.2 175.586 222.202 171.497 222.202Z" fill="#371A45"/>
<g opacity="0.3">
<path d="M175.416 246.548C173.719 248.074 171.362 249.018 168.479 248.962C166.434 248.919 164.439 248.315 162.629 247.364C156.615 244.183 151.326 238.766 148.933 233.682C148.649 233.079 148.422 232.447 148.251 231.801C150.58 225.837 153.186 219.923 154.194 213.611C154.393 212.354 154.521 211.047 154.151 209.833C153.718 208.42 152.66 207.299 151.624 206.248C149.039 203.628 146.377 201.079 143.636 198.615L178.902 197.373C180.443 199.879 181.472 202.556 182.012 205.353C179.378 202.655 175.16 201.306 171.731 202.861C169.452 203.898 167.833 206.021 166.825 208.307C165.817 210.593 165.334 213.071 164.73 215.499C163.424 220.739 161.507 225.823 159.029 230.615C158.255 232.113 157.403 233.711 157.645 235.379C157.822 236.607 158.575 237.665 159.327 238.652C160.527 240.236 161.798 241.798 163.317 243.076C166.633 245.873 171.127 247.03 175.416 246.548Z" fill="#371A45"/>
</g>
<path d="M197.93 157.627C197.909 158.969 197.809 162.405 195.743 166.048C194.685 167.908 193.386 169.349 192.108 170.443C190.17 172.104 188.288 172.977 187.365 173.368C155.025 173.567 122.677 173.765 90.3365 173.964C89.7046 172.658 88.9165 170.883 88.1497 168.731C88.0361 168.405 87.9225 168.078 87.8089 167.737C86.964 165.189 84.9263 158.898 85.1322 151.699C85.2245 148.411 84.8056 138.549 92.0121 131.116C92.4168 130.697 92.8357 130.285 93.2546 129.887C97.6992 125.634 102.747 122.546 108.378 120.941C110.614 120.302 112.943 119.898 115.364 119.749L160.825 122.468C163.346 122.667 165.81 122.936 168.181 123.334C169.722 123.597 171.227 123.909 172.675 124.293C174.209 124.697 180.982 127.211 187.223 133.728C187.848 134.382 188.43 135.042 188.977 135.695C193.144 140.729 194.912 145.685 196.411 149.888C197.547 153.041 197.973 155.242 197.93 157.627Z" fill="white"/>
<path d="M90.3366 175.306C89.8183 175.306 89.3497 175.008 89.1225 174.546C88.1285 172.48 87.2552 170.329 86.531 168.156C85.7997 165.948 83.5703 159.239 83.7904 151.656C83.7975 151.415 83.8046 151.145 83.8046 150.832C83.8614 146.821 84.0034 137.435 91.0537 130.171C98.0898 122.922 106.241 118.96 115.286 118.392C115.343 118.392 115.4 118.385 115.449 118.392L160.911 121.112C160.918 121.112 160.925 121.112 160.939 121.112C165.838 121.495 169.679 122.092 173.03 122.979C173.108 123 180.869 125.123 188.203 132.784C193.855 138.684 195.977 144.634 197.689 149.419C198.867 152.714 199.329 155.092 199.279 157.641C199.258 158.891 199.194 162.689 196.915 166.701C194.252 171.401 190.113 173.666 187.883 174.596C187.72 174.667 187.55 174.703 187.372 174.703L90.3437 175.299C90.3437 175.306 90.3366 175.306 90.3366 175.306ZM115.371 121.09C107.05 121.63 99.5169 125.315 92.9849 132.053C86.6801 138.549 86.5523 147.19 86.4955 150.875C86.4884 151.194 86.4884 151.486 86.4813 151.734C86.2754 158.841 88.3202 164.99 89.087 167.304C89.6834 169.101 90.3863 170.883 91.1886 172.608L187.088 172.019C189.048 171.16 192.399 169.221 194.579 165.38C196.517 161.965 196.574 158.678 196.595 157.606C196.631 155.376 196.233 153.339 195.161 150.335C193.457 145.557 191.519 140.147 186.265 134.659C180.606 128.751 174.301 126.11 172.349 125.592C169.161 124.747 165.476 124.179 160.754 123.81L115.371 121.09Z" fill="#371A45"/>
<path d="M115.087 134.311C113.688 139.053 111.779 143.633 110.699 148.447C110.032 151.557 110.06 154.886 110.33 158.053C110.515 160.978 110.777 165.146 110.912 168.036C110.998 169.697 111.083 171.366 111.147 173.034C111.175 173.78 110.593 174.404 109.847 174.433C109.123 174.461 108.505 173.907 108.456 173.183C108.115 168.384 107.831 163.037 107.604 158.209C107.582 157.783 107.533 156.747 107.511 156.335C107.256 151.784 108.207 147.247 109.862 143.022C111.054 139.87 112.489 136.803 114.285 133.941C114.548 133.515 115.236 133.814 115.087 134.311Z" fill="#371A45"/>
<path d="M168.777 135.837C173.442 140.573 175.302 148.177 175.551 154.659C175.65 161.276 175.686 167.83 175.544 174.433C175.529 175.178 174.912 175.768 174.166 175.746C173.442 175.732 172.867 175.143 172.853 174.433C172.782 171.138 172.753 167.844 172.76 164.55C172.76 161.262 172.796 157.947 172.839 154.688C172.86 151.5 172.37 148.333 171.589 145.252C170.815 142.149 169.729 139.16 168.16 136.306C167.932 135.929 168.451 135.511 168.777 135.837Z" fill="#371A45"/>
<path d="M108.811 153.069C108.576 153.069 108.335 152.984 108.143 152.82C101.313 146.856 92.7292 146.224 85.7428 151.159C85.2884 151.478 84.6565 151.372 84.337 150.918C84.0175 150.463 84.124 149.831 84.5784 149.512C92.3671 144.009 101.91 144.691 109.478 151.301C109.897 151.67 109.94 152.309 109.578 152.728C109.372 152.955 109.095 153.069 108.811 153.069Z" fill="#371A45"/>
<path d="M197.937 156.853C197.639 156.853 197.341 156.718 197.142 156.463C191.135 148.738 183.943 146.579 173.825 149.469C173.286 149.625 172.732 149.313 172.576 148.773C172.42 148.234 172.732 147.68 173.272 147.524C184.298 144.379 192.151 146.75 198.739 155.22C199.08 155.66 199.002 156.292 198.562 156.64C198.37 156.789 198.15 156.853 197.937 156.853Z" fill="#371A45"/>
<g opacity="0.25">
<path d="M168.188 123.334C166.725 125.301 165.135 127.168 163.303 128.794C158.454 133.082 152.107 135.461 145.674 136.178C139.241 136.895 132.716 136.036 126.447 134.424C122.109 133.31 117.75 131.776 114.356 128.858C111.828 126.692 109.982 123.888 108.392 120.934C110.628 120.295 112.957 119.891 115.378 119.742L160.84 122.461C163.353 122.66 165.817 122.929 168.188 123.334Z" fill="#371A45"/>
</g>
<g opacity="0.25">
<path d="M114.221 135.248C113.873 137.399 113.589 139.657 114.292 141.723C115.002 143.789 117.011 145.571 119.177 145.273C119.177 153.41 119.546 161.546 120.284 169.647C118.602 168.937 116.912 168.227 115.229 167.517C112.531 166.381 109.563 164.976 108.534 162.235C107.98 160.765 108.094 159.139 108.264 157.577C109.038 150.52 110.919 143.583 113.823 137.101" fill="#371A45"/>
</g>
<g opacity="0.25">
<path d="M168.522 136.121C169.367 138.727 167.968 141.865 165.462 142.973C165.043 143.157 164.567 143.313 164.297 143.69C163.971 144.137 164.035 144.741 164.098 145.287C165.05 152.87 164.652 160.623 162.934 168.078C162.757 168.838 162.664 169.839 163.353 170.215C163.665 170.386 164.049 170.35 164.404 170.308C167.89 169.896 171.34 169.115 174.67 168C174.961 167.901 175.267 167.787 175.451 167.546C175.622 167.319 175.65 167.02 175.679 166.736C176.559 156.172 175.366 144.833 168.934 136.405" fill="#371A45"/>
</g>
<g opacity="0.25">
<path d="M98.4518 155.71C93.3469 158.273 89.5555 163.208 88.1497 168.724C88.0361 168.398 87.9225 168.071 87.8089 167.73C86.964 165.181 84.9263 158.891 85.1322 151.692C85.2245 148.404 84.8056 138.542 92.0121 131.109C92.4168 130.69 92.8357 130.278 93.2546 129.88C89.52 134.928 89.0585 141.901 90.5779 148.035C90.9045 149.334 91.3092 150.641 92.0831 151.734C93.5528 153.807 96.0733 154.816 98.4518 155.71Z" fill="#371A45"/>
</g>
<g opacity="0.25">
<path d="M197.93 157.627C197.909 158.969 197.809 162.405 195.743 166.048C194.685 167.908 193.386 169.349 192.108 170.443C192.413 164.827 191.192 159.125 188.579 154.148C191.313 148.418 191.32 141.567 188.977 135.688C193.145 140.722 194.912 145.678 196.411 149.881C197.547 153.041 197.973 155.242 197.93 157.627Z" fill="#371A45"/>
</g>
<path d="M164.574 148.347V166.119C164.574 169.413 161.855 172.111 158.532 172.111H125.553C122.23 172.111 119.51 169.413 119.51 166.119V148.347C119.51 145.053 122.223 142.355 125.553 142.355H158.532C161.188 142.355 163.452 144.08 164.262 146.452C164.461 147.048 164.574 147.68 164.574 148.347Z" fill="white"/>
<g opacity="0.25">
<path d="M164.574 148.347V166.119C164.574 169.413 161.855 172.111 158.532 172.111H125.553C122.23 172.111 119.51 169.413 119.51 166.119V160.141C125.198 163.265 136.472 167.958 147.79 164.088C153.314 162.192 159.654 155.71 159.654 155.71C159.654 155.71 159.895 162.519 160.918 162.413C163.751 162.114 163.729 148.34 164.262 146.466C164.461 147.048 164.574 147.68 164.574 148.347Z" fill="#371A45"/>
</g>
<path d="M160.023 173.453H124.069C120.817 173.453 118.169 170.805 118.169 167.553V146.906C118.169 143.654 120.817 141.006 124.069 141.006H160.023C163.275 141.006 165.923 143.654 165.923 146.906V167.553C165.916 170.805 163.275 173.453 160.023 173.453ZM124.062 143.697C122.294 143.697 120.859 145.131 120.859 146.899V167.546C120.859 169.314 122.301 170.748 124.062 170.748H160.016C161.784 170.748 163.218 169.314 163.218 167.546V146.899C163.218 145.131 161.777 143.697 160.016 143.697H124.062Z" fill="#371A45"/>
<path d="M153.725 162.398C156.604 162.398 158.937 160.084 158.937 157.23C158.937 154.375 156.604 152.061 153.725 152.061C150.847 152.061 148.514 154.375 148.514 157.23C148.514 160.084 150.847 162.398 153.725 162.398Z" fill="#22A7F0"/>
<g opacity="0.6">
<path d="M158.937 157.23C158.937 157.585 158.901 157.925 158.837 158.252C158.355 155.888 156.253 154.106 153.733 154.106C151.212 154.106 149.103 155.888 148.628 158.252C148.557 157.918 148.528 157.577 148.528 157.23C148.528 154.375 150.857 152.061 153.733 152.061C156.608 152.061 158.937 154.375 158.937 157.23Z" fill="white"/>
</g>
<path d="M158.937 157.23C158.937 160.084 156.601 162.398 153.725 162.398C150.85 162.398 148.514 160.084 148.514 157.23C148.514 156.754 148.578 156.285 148.706 155.845C149.316 158.025 151.333 159.622 153.725 159.622C156.111 159.622 158.135 158.025 158.745 155.845C158.866 156.285 158.937 156.754 158.937 157.23Z" fill="#197BDD"/>
<path d="M153.725 163.407C150.296 163.407 147.506 160.638 147.506 157.23C147.506 153.822 150.296 151.053 153.725 151.053C157.155 151.053 159.945 153.822 159.945 157.23C159.945 160.638 157.155 163.407 153.725 163.407ZM153.725 153.076C151.411 153.076 149.529 154.943 149.529 157.23C149.529 159.516 151.411 161.383 153.725 161.383C156.04 161.383 157.921 159.516 157.921 157.23C157.921 154.943 156.04 153.076 153.725 153.076Z" fill="#371A45"/>
<path d="M138.964 173.283C138.311 173.283 137.786 172.757 137.786 172.104V163.009C137.786 161.142 136.884 159.352 135.379 158.231L134.541 157.606C132.44 156.037 131.19 153.545 131.19 150.932V142.355C131.19 141.702 131.715 141.176 132.369 141.176C133.022 141.176 133.547 141.702 133.547 142.355V150.939C133.547 152.806 134.449 154.595 135.954 155.717L136.792 156.342C138.893 157.911 140.143 160.403 140.143 163.016V172.104C140.143 172.757 139.618 173.283 138.964 173.283Z" fill="#371A45"/>
<path d="M231.328 189.79H51.0452V200.788H231.328V189.79Z" fill="#A1A6D1"/>
<g opacity="0.6">
<path d="M231.328 189.79H51.0452V192.211H231.328V189.79Z" fill="white"/>
</g>
<g opacity="0.3">
<path d="M231.328 195.285H51.0452V200.788H231.328V195.285Z" fill="#371A45"/>
</g>
<path d="M231.328 202.137H51.0452C50.2997 202.137 49.6962 201.533 49.6962 200.788V189.79C49.6962 189.045 50.2997 188.441 51.0452 188.441H231.328C232.074 188.441 232.677 189.045 232.677 189.79V200.788C232.677 201.533 232.074 202.137 231.328 202.137ZM52.3942 199.439H229.979V191.132H52.3942V199.439Z" fill="#371A45"/>
<path d="M183.787 201.796C183.226 201.796 182.779 201.342 182.779 200.788V198.765C182.779 197.401 181.671 196.294 180.308 196.294H98.7003C97.3371 196.294 96.2295 197.401 96.2295 198.765V200.788C96.2295 201.349 95.7751 201.796 95.2213 201.796C94.6675 201.796 94.2131 201.342 94.2131 200.788V198.765C94.2131 196.287 96.2295 194.277 98.7003 194.277H180.308C182.786 194.277 184.795 196.294 184.795 198.765V200.788C184.795 201.349 184.348 201.796 183.787 201.796Z" fill="#371A45"/>
<path d="M231.328 189.79L220.33 169.804H62.0502L51.0452 189.79H231.328Z" fill="#A1A6D1"/>
<g opacity="0.6">
<path d="M220.33 169.804H217.725L226.891 187.326H55.4827L64.6559 169.804H62.0502L51.0452 189.79H231.328L220.33 169.804Z" fill="white"/>
</g>
<path d="M231.329 191.132H51.0455C50.5698 191.132 50.1296 190.884 49.8882 190.472C49.6468 190.06 49.6397 189.556 49.8669 189.137L60.8648 169.158C61.0991 168.724 61.5535 168.462 62.0434 168.462H220.324C220.814 168.462 221.268 168.732 221.502 169.158L232.5 189.137C232.727 189.556 232.72 190.06 232.479 190.472C232.238 190.884 231.804 191.132 231.329 191.132ZM53.3246 188.441H229.05L219.529 171.153H62.8457L53.3246 188.441Z" fill="#371A45"/>
<path d="M69.9596 169.804L64.9115 181.199H218.335L213.28 169.804H69.9596Z" fill="white"/>
<g opacity="0.3">
<path d="M213.28 169.804H211.874L215.488 178.338H68.7029L72.3239 169.804H69.9596L64.9115 181.199H218.335L213.28 169.804Z" fill="#371A45"/>
</g>
<path d="M218.335 182.214H64.9115C64.5707 182.214 64.2512 182.044 64.0666 181.753C63.882 181.469 63.8536 181.107 63.9885 180.794L69.0366 169.399C69.1999 169.037 69.562 168.795 69.9596 168.795H213.28C213.678 168.795 214.04 169.03 214.203 169.399L219.251 180.794C219.393 181.107 219.358 181.469 219.173 181.753C218.996 182.037 218.676 182.214 218.335 182.214ZM66.4664 180.191H216.781L212.627 170.819H70.6199L66.4664 180.191Z" fill="#371A45"/>
<path d="M72.3168 182.044C72.2174 182.044 72.118 182.03 72.0186 181.987C71.5855 181.824 71.3654 181.334 71.5287 180.901L75.9094 169.363C76.0727 168.93 76.5626 168.71 76.9957 168.873C77.4288 169.037 77.6489 169.527 77.4856 169.96L73.1049 181.497C72.9771 181.838 72.6576 182.044 72.3168 182.044Z" fill="#371A45"/>
<path d="M79.3884 181.824C79.3032 181.824 79.2251 181.81 79.1399 181.788C78.6926 181.653 78.4441 181.178 78.5861 180.738L82.1148 169.342C82.2497 168.895 82.7254 168.653 83.1656 168.788C83.6129 168.923 83.8614 169.399 83.7194 169.839L80.1907 181.235C80.0771 181.597 79.7434 181.824 79.3884 181.824Z" fill="#371A45"/>
<path d="M85.9984 181.675C85.9203 181.675 85.8422 181.661 85.7641 181.639C85.3168 181.512 85.0612 181.043 85.189 180.596L88.4621 169.307C88.5899 168.859 89.0585 168.604 89.5058 168.732C89.9531 168.859 90.2087 169.328 90.0809 169.775L86.8078 181.064C86.7013 181.441 86.3676 181.675 85.9984 181.675Z" fill="#371A45"/>
<path d="M92.9138 181.987C92.8357 181.987 92.7576 181.973 92.6795 181.952C92.2322 181.824 91.9766 181.355 92.1044 180.908L95.3775 169.619C95.5053 169.172 95.9739 168.916 96.4212 169.044C96.8685 169.172 97.1241 169.64 96.9963 170.088L93.7232 181.377C93.6096 181.753 93.2759 181.987 92.9138 181.987Z" fill="#371A45"/>
<path d="M100.433 181.675C100.39 181.675 100.348 181.675 100.298 181.668C99.8364 181.597 99.524 181.164 99.595 180.702L101.37 169.491C101.441 169.03 101.874 168.717 102.336 168.788C102.797 168.859 103.11 169.292 103.039 169.754L101.264 180.965C101.2 181.384 100.838 181.675 100.433 181.675Z" fill="#371A45"/>
<path d="M107.362 181.881C107.334 181.881 107.313 181.881 107.284 181.874C106.823 181.831 106.482 181.419 106.525 180.958L107.582 169.505C107.625 169.044 108.037 168.703 108.498 168.746C108.96 168.788 109.301 169.2 109.258 169.662L108.2 181.114C108.158 181.554 107.795 181.881 107.362 181.881Z" fill="#371A45"/>
<path d="M113.909 181.895C113.887 181.895 113.873 181.895 113.852 181.895C113.39 181.867 113.035 181.462 113.071 181L113.859 169.52C113.887 169.058 114.292 168.703 114.754 168.739C115.215 168.767 115.57 169.172 115.535 169.633L114.746 181.114C114.718 181.554 114.349 181.895 113.909 181.895Z" fill="#371A45"/>
<path d="M120.739 181.675C120.732 181.675 120.718 181.675 120.71 181.675C120.249 181.661 119.88 181.27 119.901 180.802L120.299 169.527C120.313 169.065 120.71 168.703 121.172 168.717C121.633 168.732 122.003 169.122 121.981 169.591L121.584 180.865C121.562 181.32 121.193 181.675 120.739 181.675Z" fill="#371A45"/>
<path d="M126.674 181.987C126.206 181.987 125.829 181.611 125.829 181.142L125.851 169.477C125.851 169.015 126.227 168.639 126.696 168.639C127.157 168.639 127.533 169.016 127.533 169.484L127.512 181.149C127.512 181.611 127.136 181.987 126.674 181.987Z" fill="#371A45"/>
<path d="M132.752 182.044C132.291 182.044 131.907 181.668 131.907 181.199V169.633C131.907 169.172 132.283 168.788 132.752 168.788C133.214 168.788 133.597 169.165 133.597 169.633V181.199C133.59 181.668 133.214 182.044 132.752 182.044Z" fill="#371A45"/>
<path d="M139.277 181.682C138.815 181.682 138.439 181.313 138.432 180.851L138.318 169.64C138.311 169.172 138.688 168.795 139.149 168.788H139.156C139.618 168.788 139.994 169.157 140.001 169.619L140.115 180.83C140.122 181.291 139.745 181.675 139.284 181.682C139.284 181.682 139.284 181.682 139.277 181.682Z" fill="#371A45"/>
<path d="M212.087 181.824C211.725 181.824 211.399 181.59 211.285 181.227L207.756 169.832C207.621 169.385 207.87 168.916 208.31 168.781C208.757 168.646 209.226 168.895 209.361 169.335L212.89 180.73C213.025 181.178 212.776 181.646 212.336 181.781C212.251 181.817 212.165 181.824 212.087 181.824Z" fill="#371A45"/>
<path d="M205.47 181.675C205.108 181.675 204.767 181.433 204.661 181.064L201.388 169.775C201.26 169.328 201.515 168.859 201.963 168.732C202.41 168.604 202.879 168.859 203.006 169.307L206.28 180.596C206.407 181.043 206.152 181.512 205.704 181.639C205.626 181.668 205.548 181.675 205.47 181.675Z" fill="#371A45"/>
<path d="M198.562 181.987C198.2 181.987 197.859 181.746 197.753 181.377L194.479 170.088C194.352 169.64 194.607 169.172 195.055 169.044C195.502 168.916 195.97 169.172 196.098 169.619L199.371 180.908C199.499 181.355 199.244 181.824 198.796 181.952C198.718 181.98 198.64 181.987 198.562 181.987Z" fill="#371A45"/>
<path d="M191.036 181.675C190.631 181.675 190.269 181.377 190.205 180.965L188.43 169.754C188.359 169.292 188.672 168.866 189.133 168.788C189.588 168.717 190.021 169.03 190.099 169.491L191.874 180.702C191.945 181.164 191.632 181.59 191.171 181.668C191.128 181.675 191.079 181.675 191.036 181.675Z" fill="#371A45"/>
<path d="M184.106 181.881C183.673 181.881 183.311 181.554 183.269 181.114L182.211 169.662C182.168 169.2 182.509 168.788 182.97 168.746C183.432 168.703 183.844 169.044 183.886 169.505L184.944 180.958C184.987 181.419 184.646 181.831 184.184 181.874C184.156 181.881 184.135 181.881 184.106 181.881Z" fill="#371A45"/>
<path d="M177.56 181.895C177.12 181.895 176.751 181.554 176.722 181.114L175.934 169.633C175.906 169.172 176.254 168.767 176.715 168.739C177.177 168.703 177.581 169.058 177.61 169.52L178.398 181C178.426 181.462 178.078 181.867 177.617 181.895C177.596 181.895 177.581 181.895 177.56 181.895Z" fill="#371A45"/>
<path d="M170.73 181.675C170.275 181.675 169.906 181.32 169.892 180.865L169.494 169.591C169.48 169.129 169.842 168.739 170.304 168.717C170.772 168.71 171.156 169.065 171.177 169.527L171.575 180.801C171.589 181.263 171.227 181.653 170.765 181.675C170.751 181.675 170.744 181.675 170.73 181.675Z" fill="#371A45"/>
<path d="M164.794 181.987C164.333 181.987 163.956 181.611 163.949 181.149L163.928 169.484C163.928 169.023 164.304 168.639 164.766 168.639C165.227 168.639 165.604 169.015 165.611 169.477L165.632 181.142C165.639 181.611 165.263 181.987 164.794 181.987Z" fill="#371A45"/>
<path d="M158.724 182.044C158.262 182.044 157.879 181.668 157.879 181.199V169.633C157.879 169.172 158.255 168.788 158.724 168.788C159.192 168.788 159.569 169.165 159.569 169.633V181.199C159.562 181.668 159.185 182.044 158.724 182.044Z" fill="#371A45"/>
<path d="M152.192 181.682H152.185C151.716 181.675 151.347 181.298 151.354 180.83L151.468 169.619C151.475 169.157 151.851 168.788 152.312 168.788H152.32C152.788 168.795 153.157 169.172 153.15 169.64L153.037 180.851C153.03 181.306 152.653 181.682 152.192 181.682Z" fill="#371A45"/>
<path d="M145.695 182.044C145.234 182.044 144.85 181.668 144.85 181.199V169.804C144.85 169.342 145.227 168.959 145.695 168.959C146.164 168.959 146.54 169.335 146.54 169.804V181.199C146.533 181.668 146.157 182.044 145.695 182.044Z" fill="#371A45"/>
<path d="M200.905 197.763C202.085 197.763 203.042 196.807 203.042 195.626C203.042 194.446 202.085 193.489 200.905 193.489C199.725 193.489 198.768 194.446 198.768 195.626C198.768 196.807 199.725 197.763 200.905 197.763Z" fill="#FF1B40"/>
<g opacity="0.3">
<path d="M200.905 195.91C200.06 195.91 199.329 195.413 198.981 194.703C198.846 194.987 198.768 195.3 198.768 195.626C198.768 196.805 199.726 197.763 200.905 197.763C202.084 197.763 203.042 196.805 203.042 195.626C203.042 195.293 202.964 194.98 202.829 194.703C202.488 195.413 201.757 195.91 200.905 195.91Z" fill="#371A45"/>
</g>
<path d="M200.905 198.438C199.357 198.438 198.093 197.174 198.093 195.626C198.093 194.079 199.357 192.815 200.905 192.815C202.453 192.815 203.716 194.079 203.716 195.626C203.716 197.174 202.46 198.438 200.905 198.438ZM200.905 194.164C200.095 194.164 199.442 194.817 199.442 195.626C199.442 196.436 200.095 197.089 200.905 197.089C201.714 197.089 202.367 196.436 202.367 195.626C202.367 194.817 201.714 194.164 200.905 194.164Z" fill="#371A45"/>
<path d="M218.094 202.67H214.225C213.365 202.67 212.67 201.974 212.67 201.115V198.168C212.67 196.237 214.232 194.675 216.163 194.675C218.094 194.675 219.656 196.237 219.656 198.168V201.115C219.656 201.974 218.953 202.67 218.094 202.67Z" fill="#50468F"/>
<g opacity="0.6">
<path d="M216.163 194.675C214.232 194.675 212.67 196.237 212.67 198.168V200.078C212.67 198.147 214.232 196.585 216.163 196.585C218.094 196.585 219.656 198.147 219.656 200.078V198.168C219.656 196.237 218.087 194.675 216.163 194.675Z" fill="white"/>
</g>
<g opacity="0.3">
<path d="M218.094 200.582H214.225C213.365 200.582 212.67 199.886 212.67 199.027V201.115C212.67 201.974 213.365 202.67 214.225 202.67H218.094C218.953 202.67 219.649 201.974 219.649 201.115V199.027C219.656 199.886 218.953 200.582 218.094 200.582Z" fill="#371A45"/>
</g>
<path d="M218.094 203.514H214.225C212.904 203.514 211.825 202.435 211.825 201.115V198.168C211.825 195.775 213.77 193.83 216.163 193.83C218.556 193.83 220.501 195.775 220.501 198.168V201.115C220.494 202.435 219.422 203.514 218.094 203.514ZM216.163 195.513C214.7 195.513 213.507 196.706 213.507 198.168V201.115C213.507 201.512 213.827 201.832 214.225 201.832H218.094C218.492 201.832 218.811 201.512 218.811 201.115V198.168C218.811 196.706 217.625 195.513 216.163 195.513Z" fill="#371A45"/>
<path d="M142.096 183.585H137.019V187.177H142.096V183.585Z" fill="#FF8D06"/>
<g opacity="0.3">
<path d="M141.187 183.585V186.084H137.935V183.585H137.019V187.177H142.096V183.585H141.187Z" fill="#371A45"/>
</g>
<path d="M124.686 187.191C122.819 187.213 120.945 187.241 119.077 187.262C119.631 186.034 120.185 184.813 120.739 183.585H125.815C125.439 184.792 125.063 185.992 124.686 187.191Z" fill="#FF8D06"/>
<g opacity="0.3">
<path d="M124.772 183.585C124.495 184.472 124.218 185.36 123.934 186.254C122.457 186.276 120.98 186.29 119.503 186.311C119.361 186.631 119.212 186.95 119.07 187.262C120.938 187.241 122.812 187.213 124.679 187.191C125.056 185.992 125.432 184.785 125.808 183.585H124.772Z" fill="#371A45"/>
</g>
<path d="M153.434 187.191C155.302 187.213 157.176 187.241 159.043 187.262C158.49 186.034 157.936 184.813 157.382 183.585H152.305C152.682 184.792 153.058 185.992 153.434 187.191Z" fill="#FF8D06"/>
<g opacity="0.3">
<path d="M154.194 186.226C153.917 185.345 153.64 184.465 153.37 183.585H152.312C152.689 184.785 153.065 185.992 153.441 187.191C155.309 187.213 157.183 187.241 159.05 187.262C158.901 186.936 158.752 186.609 158.603 186.283C157.133 186.261 155.664 186.24 154.194 186.226Z" fill="#371A45"/>
</g>
<path d="M206.28 224.289C202.481 224.289 198.512 222.202 195.239 218.446C191.49 214.143 188.948 207.945 188.096 200.994L191.441 200.582C192.974 213.028 200.195 220.917 206.28 220.917C206.514 220.917 206.741 220.902 206.968 220.881C212.442 220.327 215.318 213.398 214.487 202.797L217.845 202.535C219.031 217.629 213.181 223.643 207.309 224.232C206.961 224.268 206.62 224.289 206.28 224.289Z" fill="#8CDE40"/>
<g opacity="0.3">
<path d="M216.525 206.447C216.823 213.504 215.41 218.346 213.195 221.428C216.425 218.275 218.612 212.311 217.845 202.535L214.487 202.797C214.537 203.451 214.572 204.09 214.601 204.721C215.609 204.643 216.475 205.431 216.525 206.447Z" fill="#371A45"/>
<path d="M188.373 202.868C189.261 202.762 190.092 203.365 190.241 204.246C192.172 215.521 199.03 222.585 204.845 222.585C205.08 222.585 205.307 222.571 205.534 222.55C207.685 222.337 209.432 221.158 210.71 219.177C209.652 220.15 208.395 220.739 206.961 220.881C206.734 220.902 206.507 220.917 206.272 220.917C200.195 220.917 192.967 213.028 191.433 200.582L188.089 200.994C188.175 201.626 188.267 202.251 188.373 202.868Z" fill="#371A45"/>
</g>
<path d="M206.28 225.127C202.197 225.127 198.051 222.947 194.607 218.992C190.745 214.562 188.139 208.208 187.259 201.093L187.152 200.256L192.165 199.638L192.271 200.476C193.762 212.581 200.699 220.072 206.272 220.072C206.471 220.065 206.677 220.065 206.876 220.043C211.839 219.539 214.43 212.957 213.642 202.861L213.578 202.023L218.612 201.626L218.676 202.464C219.911 218.162 213.649 224.431 207.38 225.063C207.018 225.113 206.649 225.127 206.28 225.127ZM189.041 201.725C189.971 208.172 192.378 213.88 195.871 217.892C199.215 221.733 203.404 223.778 207.21 223.402C212.577 222.862 217.916 217.317 217.05 203.443L215.375 203.578C216.028 214.214 212.868 221.137 207.039 221.726C206.784 221.754 206.514 221.769 206.265 221.761C199.975 221.761 192.541 214.214 190.702 201.519L189.041 201.725Z" fill="#371A45"/>
<path d="M142.096 187.681H137.019C136.742 187.681 136.515 187.454 136.515 187.177V183.585C136.515 183.308 136.742 183.081 137.019 183.081H142.096C142.373 183.081 142.6 183.308 142.6 183.585V187.177C142.607 187.454 142.38 187.681 142.096 187.681ZM137.523 186.673H141.592V184.089H137.523V186.673Z" fill="#371A45"/>
<path d="M142.096 187.681H137.019C136.742 187.681 136.515 187.454 136.515 187.177V183.585C136.515 183.308 136.742 183.081 137.019 183.081H142.096C142.373 183.081 142.6 183.308 142.6 183.585V187.177C142.607 187.454 142.38 187.681 142.096 187.681ZM137.523 186.673H141.592V184.089H137.523V186.673Z" fill="#371A45"/>
<path d="M119.07 187.767C118.9 187.767 118.744 187.681 118.644 187.539C118.552 187.397 118.538 187.213 118.609 187.057L120.27 183.379C120.355 183.201 120.533 183.081 120.732 183.081H125.808C125.971 183.081 126.121 183.159 126.213 183.286C126.305 183.414 126.334 183.585 126.291 183.734L125.162 187.341C125.098 187.546 124.906 187.696 124.686 187.696L119.07 187.767C119.077 187.767 119.077 187.767 119.07 187.767ZM121.065 184.089L119.865 186.744L124.317 186.687L125.134 184.089H121.065Z" fill="#371A45"/>
<path d="M159.05 187.767C159.043 187.767 159.043 187.767 159.05 187.767L153.434 187.696C153.214 187.696 153.022 187.546 152.959 187.341L151.83 183.734C151.78 183.578 151.808 183.414 151.908 183.286C152 183.159 152.156 183.081 152.312 183.081H157.389C157.588 183.081 157.765 183.194 157.85 183.379L159.512 187.057C159.583 187.213 159.569 187.397 159.476 187.539C159.377 187.681 159.221 187.767 159.05 187.767ZM153.811 186.694L158.262 186.751L157.062 184.096H153.001L153.811 186.694Z" fill="#371A45"/>
<path d="M92.495 160.687C97.0532 155.639 102.776 153.971 108.995 154.347C113 154.588 116.891 155.746 120.455 157.592L123.238 159.033C124.48 159.679 125.247 161.035 125.02 162.42C124.786 163.861 123.65 164.819 122.102 164.684C121.69 164.649 121.285 164.521 120.916 164.337L115.179 161.589C115.911 164.45 116.99 167.148 118.602 169.612C120.007 171.756 119.312 174.695 117.082 175.952C116.521 176.265 115.904 176.478 115.265 176.57C115.258 176.591 115.25 176.62 115.243 176.641C114.398 179.559 110.579 180.283 108.669 177.912L103.983 172.104L106.091 179.452C106.212 179.878 106.212 180.333 106.063 180.745C105.594 182.008 104.529 182.804 103.287 182.896C102.137 182.981 101.058 182.335 100.497 181.327L96.4923 174.206L96.3432 179.9C96.329 180.517 96.116 181.121 95.69 181.568C94.9658 182.328 93.8866 182.477 92.708 181.831C91.927 181.405 91.3164 180.73 90.8975 179.942C89.2503 176.811 88.5829 173.758 88.6397 170.542C88.6894 166.893 90.0455 163.399 92.495 160.687Z" fill="white"/>
<path d="M103.088 184.259C101.562 184.259 100.106 183.393 99.3181 182.001L97.6993 179.126L97.678 179.942C97.6496 180.929 97.2875 181.845 96.6556 182.505C95.4841 183.734 93.7162 183.925 92.0548 183.024C91.075 182.491 90.2585 181.646 89.6976 180.581C88.0149 177.372 87.2197 174.085 87.2836 170.528C87.3546 166.538 88.8456 162.718 91.4939 159.785C95.9456 154.851 101.867 152.565 109.073 152.998C113.17 153.246 117.203 154.389 121.065 156.392L123.849 157.833C125.659 158.77 126.66 160.701 126.341 162.633C125.979 164.812 124.189 166.211 121.981 166.026C121.442 165.984 120.888 165.82 120.327 165.551L117.366 164.131C118.005 165.87 118.786 167.439 119.723 168.866C120.604 170.208 120.888 171.877 120.504 173.453C120.128 175.008 119.12 176.35 117.735 177.124C117.267 177.386 116.777 177.592 116.266 177.734C115.591 179.19 114.264 180.255 112.652 180.581C110.756 180.965 108.825 180.269 107.618 178.771L107.114 178.146L107.384 179.097C107.59 179.822 107.568 180.56 107.32 181.235C106.674 182.967 105.168 184.131 103.379 184.259C103.28 184.252 103.18 184.259 103.088 184.259ZM96.4852 172.864C96.9609 172.864 97.4153 173.119 97.6567 173.552L101.661 180.674C101.988 181.256 102.584 181.604 103.18 181.561C103.912 181.511 104.515 181.029 104.792 180.29C104.842 180.162 104.842 179.999 104.792 179.836L102.683 172.487C102.506 171.87 102.79 171.216 103.358 170.918C103.926 170.62 104.622 170.769 105.026 171.266L109.712 177.074C110.302 177.798 111.196 178.125 112.119 177.94C113.014 177.763 113.696 177.138 113.944 176.272L113.958 176.215C114.1 175.704 114.533 175.32 115.059 175.242C115.527 175.171 115.996 175.015 116.408 174.781C117.153 174.362 117.672 173.666 117.877 172.821C118.083 171.969 117.934 171.074 117.459 170.35C115.868 167.922 114.69 165.16 113.859 161.923C113.731 161.418 113.901 160.879 114.306 160.545C114.711 160.211 115.272 160.148 115.74 160.375L121.477 163.122C121.74 163.25 121.981 163.321 122.194 163.343C123.004 163.406 123.543 162.995 123.671 162.199C123.799 161.433 123.359 160.623 122.599 160.226L119.816 158.784C116.287 156.96 112.616 155.916 108.896 155.689C102.456 155.298 97.4082 157.229 93.4819 161.589C91.2738 164.038 90.0242 167.233 89.9674 170.57C89.9106 173.709 90.5851 176.485 92.0761 179.325C92.3885 179.914 92.8216 180.375 93.3328 180.652C94.2203 181.135 94.5824 180.766 94.696 180.638C94.8664 180.461 94.9658 180.184 94.9729 179.864L95.122 174.17C95.1362 173.567 95.5551 173.041 96.1444 172.899C96.2651 172.878 96.3716 172.864 96.4852 172.864Z" fill="#371A45"/>
<path d="M115.258 177.919C114.874 177.919 114.491 177.756 114.221 177.436C111.75 174.483 109.833 171.472 108.52 168.497C108.222 167.816 108.527 167.02 109.208 166.722C109.89 166.424 110.685 166.729 110.983 167.411C112.19 170.151 113.973 172.942 116.287 175.704C116.763 176.272 116.692 177.124 116.117 177.599C115.868 177.812 115.563 177.919 115.258 177.919Z" fill="#371A45"/>
<g opacity="0.25">
<path d="M123.202 159.494C123.501 160.261 123.756 161.227 123.195 161.823C122.578 162.476 121.491 162.164 120.696 161.752C118.311 160.524 116.024 158.749 113.348 158.685C113.39 159.8 113.795 160.9 114.491 161.781C115.385 161.653 116.259 162.086 117.061 162.512C118.09 163.059 119.12 163.605 120.149 164.152C120.959 164.578 121.839 165.025 122.748 164.897C123.82 164.748 124.658 163.769 124.835 162.704C125.013 161.639 124.601 160.531 123.92 159.693" fill="#371A45"/>
</g>
<g opacity="0.25">
<path d="M110.018 167.34C111.09 168.54 112.24 169.669 113.461 170.712C113.745 170.954 114.044 171.195 114.399 171.28C115.187 171.465 115.968 170.776 116.188 169.995C116.401 169.214 116.209 168.384 116.003 167.595C116.848 168.334 117.7 169.079 118.339 170.002C118.978 170.925 119.39 172.047 119.248 173.162C119.056 174.646 117.785 175.924 116.301 176.115C116.088 176.144 115.868 176.151 115.677 176.059C115.527 175.995 115.414 175.874 115.3 175.76C113.596 174.035 112.212 171.997 111.239 169.782C111.14 169.562 110.934 169.292 110.721 169.399" fill="#371A45"/>
</g>
<g opacity="0.25">
<path d="M103.954 172.374C104.735 172.991 105.516 173.609 106.297 174.234C107.185 174.937 108.122 175.661 109.23 175.881C109.549 175.945 109.883 175.966 110.195 175.881C110.905 175.689 111.395 174.994 111.551 174.269C111.708 173.545 111.594 172.8 111.487 172.068C112.56 173.829 113.83 175.469 115.265 176.946C114.633 177.862 113.625 178.515 112.531 178.7C111.431 178.884 110.266 178.608 109.365 177.954C108.193 177.095 107.519 175.661 106.304 174.866" fill="#371A45"/>
</g>
<g opacity="0.25">
<path d="M93.8582 159.729C92.6867 161.397 91.5791 163.158 90.9969 165.111C90.4147 167.07 90.4076 169.271 91.3732 171.067C92.3388 172.864 94.3978 174.142 96.4142 173.815C97.2378 173.687 98.1821 173.339 98.8211 173.879C99.0128 174.042 99.1477 174.277 99.2684 174.497C99.5808 175.065 99.9003 175.633 100.213 176.201C100.774 177.202 101.377 178.26 102.378 178.821C103.379 179.382 104.899 179.176 105.353 178.125C105.878 179.105 106.425 180.226 106.091 181.291C105.594 182.882 103.33 183.279 101.895 182.435C100.454 181.59 99.6731 179.992 98.9915 178.466C98.3099 176.939 97.5928 175.327 96.2154 174.383C96.2651 175.661 96.3077 176.939 96.3574 178.217C96.3858 179.069 96.4142 179.942 96.1444 180.752C95.8746 181.561 95.2285 182.3 94.3907 182.435C93.2405 182.619 92.2394 181.675 91.5507 180.731C87.8445 175.647 87.6315 168.263 91.0395 162.973" fill="#371A45"/>
</g>
<path d="M185.271 151.45C194.976 157.08 194.834 172.232 184.965 174.184C177.106 176.655 169.473 172.054 168.912 165.877L165.59 170.954C164.894 172.012 163.729 172.715 162.466 172.715C160.478 172.715 159.384 171.06 159.469 169.122C159.498 168.455 159.697 167.809 159.995 167.205C162.856 161.447 166.456 155.604 171.057 152.217C175.231 149.157 180.791 148.852 185.271 151.45Z" fill="white"/>
<path d="M180.606 176.201C177.702 176.201 174.876 175.398 172.54 173.836C170.666 172.587 169.246 170.947 168.408 169.108L166.718 171.685C165.746 173.169 164.162 174.057 162.473 174.057H162.465C161.251 174.057 160.193 173.616 159.405 172.786C158.518 171.856 158.063 170.528 158.127 169.058C158.163 168.249 158.39 167.418 158.795 166.602C162.558 159.033 166.207 154.113 170.268 151.131C174.869 147.751 181.025 147.417 185.952 150.279C191.512 153.502 194.664 160.14 193.62 166.417C192.825 171.202 189.722 174.582 185.313 175.491C183.758 175.966 182.175 176.201 180.606 176.201ZM168.912 164.528C169.019 164.528 169.132 164.542 169.239 164.571C169.793 164.713 170.204 165.189 170.254 165.757C170.46 168.007 171.837 170.137 174.031 171.6C176.978 173.559 180.911 174.049 184.561 172.899C184.61 172.885 184.653 172.871 184.703 172.864C188.054 172.196 190.333 169.69 190.951 165.977C191.661 161.731 189.971 155.739 184.589 152.615C180.585 150.293 175.586 150.563 171.852 153.31C168.202 155.994 164.716 160.737 161.195 167.809C160.953 168.284 160.825 168.746 160.804 169.186C160.769 169.903 160.967 170.542 161.337 170.933C161.621 171.224 161.983 171.373 162.458 171.373C162.458 171.373 162.458 171.373 162.465 171.373C163.232 171.373 163.992 170.933 164.461 170.223L167.783 165.146C168.039 164.756 168.465 164.528 168.912 164.528Z" fill="#371A45"/>
<path d="M167.762 165.174L170.985 161.135C171.497 160.503 172.491 161.12 172.164 161.852L170.055 166.573C169.139 168.384 166.583 166.829 167.762 165.174Z" fill="#371A45"/>
<g opacity="0.25">
<path d="M183.254 151.258C184.504 152.21 185.64 153.303 186.634 154.51C187.472 155.525 188.217 156.64 188.714 157.861C189.46 159.693 189.63 161.752 189.204 163.676C188.998 164.606 188.636 165.522 188.026 166.254C186.918 167.567 185.115 168.1 183.396 168.199C178.54 168.476 173.655 165.536 171.625 161.113C170.936 162.505 170.247 163.889 169.558 165.281C169.409 165.586 169.253 165.899 169.196 166.239C169.111 166.758 169.26 167.283 169.431 167.78C170.616 171.288 173.094 174.703 176.701 175.526C178.078 175.839 179.513 175.753 180.904 175.555C183.261 175.228 185.604 174.582 187.642 173.346C189.68 172.118 191.391 170.258 192.158 168.007C192.541 166.871 192.683 165.664 192.761 164.471C192.868 162.888 192.868 161.284 192.57 159.722C191.76 155.476 188.572 151.777 184.497 150.335" fill="#371A45"/>
</g>
<g opacity="0.25">
<path d="M161.273 165.174C160.726 165.785 160.676 166.779 161.159 167.439C161.642 168.1 162.607 168.348 163.353 168.007C163.829 167.787 164.191 167.375 164.532 166.978C166.676 164.521 169.076 162.278 171.667 160.29C171.944 160.851 171.625 161.504 171.312 162.043C169.466 165.174 167.393 168.171 165.121 171.004C164.745 171.472 164.354 171.941 163.829 172.232C162.6 172.913 160.904 172.274 160.236 171.039C159.569 169.804 159.853 168.192 160.733 167.099" fill="#371A45"/>
</g>
<path d="M188.047 101.736L184.93 101.551C184.546 101.53 184.248 101.196 184.27 100.813L185.966 72.3206C185.988 71.9372 186.321 71.639 186.705 71.6603L189.822 71.8449C193.869 72.0863 196.957 75.5653 196.716 79.6123L195.807 94.8347C195.58 98.8959 192.101 101.977 188.047 101.736Z" fill="white"/>
<path d="M188.494 101.984C188.338 101.984 188.189 101.977 188.033 101.97L184.916 101.786C184.667 101.771 184.44 101.658 184.27 101.473C184.106 101.289 184.021 101.047 184.035 100.799L185.732 72.3064C185.761 71.7952 186.208 71.3976 186.719 71.426L189.836 71.6106C194.011 71.8591 197.199 75.4588 196.95 79.6265L196.041 94.8489C195.921 96.8724 195.019 98.7255 193.507 100.067C192.122 101.317 190.354 101.984 188.494 101.984ZM186.669 71.9017C186.428 71.9017 186.222 72.0934 186.208 72.3419L184.511 100.834C184.497 101.09 184.688 101.31 184.944 101.324L188.061 101.509C189.957 101.622 191.781 100.99 193.201 99.7266C194.621 98.4628 195.466 96.7304 195.58 94.8276L196.489 79.6052C196.723 75.6931 193.727 72.3206 189.815 72.0863L186.698 71.9017C186.691 71.9017 186.676 71.9017 186.669 71.9017Z" fill="#371A45"/>
<g opacity="0.35">
<path d="M196.254 87.5288L195.992 92.0018C195.658 97.6179 190.83 101.906 185.207 101.573C184.674 101.544 184.262 101.076 184.291 100.543L184.731 93.1165C184.859 93.4644 185.185 93.72 185.583 93.7413L186.243 93.7768C190.681 94.0395 194.636 91.4196 196.254 87.5288Z" fill="#371A45"/>
</g>
<path d="M188.501 103.099C188.324 103.099 188.146 103.092 187.976 103.085L184.859 102.9C183.73 102.836 182.871 101.864 182.935 100.735L184.632 72.2425C184.696 71.1136 185.668 70.2545 186.797 70.3184L189.914 70.503C194.699 70.787 198.363 74.9121 198.072 79.6975L197.163 94.9199C197.028 97.2345 195.992 99.3645 194.259 100.905C192.655 102.332 190.624 103.099 188.501 103.099ZM185.661 100.245L188.132 100.394C189.737 100.493 191.27 99.9538 192.47 98.8888C193.67 97.8238 194.38 96.3612 194.479 94.7566L195.388 79.5342C195.587 76.2327 193.059 73.3856 189.758 73.1868L187.287 73.0377L185.661 100.245Z" fill="#371A45"/>
<path d="M91.8914 66.0158L95.0083 66.2004C95.3917 66.2217 95.6899 66.5554 95.6686 66.9388L93.9717 95.4311C93.9504 95.8145 93.6167 96.1127 93.2333 96.0914L90.1164 95.9068C86.0694 95.6654 82.9809 92.1864 83.2223 88.1394L84.1311 72.917C84.3654 68.8629 87.8444 65.7744 91.8914 66.0158Z" fill="white"/>
<path d="M93.2689 96.3257C93.2476 96.3257 93.2334 96.3257 93.2121 96.3257L90.0952 96.1411C85.9204 95.8926 82.7325 92.2929 82.981 88.1252L83.8898 72.9028C84.0105 70.8793 84.9122 69.0262 86.4245 67.6843C87.9368 66.3424 89.8822 65.6679 91.9057 65.7886L95.0226 65.9732C95.2711 65.9874 95.4983 66.101 95.6687 66.2856C95.832 66.4702 95.9172 66.7116 95.903 66.9601L94.2061 95.4524C94.1706 95.9423 93.7588 96.3257 93.2689 96.3257ZM91.4442 66.243C89.7047 66.243 88.0433 66.8749 86.7369 68.0393C85.3169 69.3031 84.472 71.0355 84.3584 72.9383L83.4496 88.1607C83.2153 92.0728 86.2115 95.4453 90.1236 95.6796L93.2405 95.8642C93.4961 95.8784 93.7162 95.6867 93.7304 95.424L95.4273 66.9317C95.4344 66.811 95.3918 66.6903 95.3137 66.598C95.2285 66.5057 95.1149 66.4489 94.9942 66.4418L91.8773 66.2572C91.7353 66.243 91.5862 66.243 91.4442 66.243Z" fill="#371A45"/>
<g opacity="0.35">
<path d="M94.4475 87.4081L93.986 95.1613C93.9576 95.6938 93.489 96.1056 92.9565 96.0772C90.0029 95.8997 87.4185 94.4868 85.679 92.371C84.1099 90.454 83.2224 87.969 83.3857 85.2994L83.6271 81.2808C85.0116 84.9018 88.4196 87.5643 92.5447 87.8128L93.5671 87.8767C93.9363 87.8909 94.2629 87.6992 94.4475 87.4081Z" fill="#371A45"/>
</g>
<path d="M93.2689 97.4404C93.2263 97.4404 93.1908 97.4404 93.1482 97.4404L90.0313 97.2558C85.2459 96.9718 81.5823 92.8467 81.8734 88.0613L82.7822 72.8389C82.9171 70.5243 83.9537 68.3943 85.6861 66.8536C87.4256 65.3129 89.655 64.539 91.9767 64.681L95.0936 64.8656C95.6403 64.9011 96.1373 65.1425 96.5065 65.5472C96.8686 65.959 97.0532 66.4844 97.0177 67.0311L95.3208 95.5234C95.2498 96.6026 94.341 97.4404 93.2689 97.4404ZM91.4442 67.3506C89.9745 67.3506 88.5758 67.8831 87.4682 68.8629C86.2683 69.9279 85.5583 71.3905 85.4589 72.9951L84.5501 88.2175C84.3513 91.519 86.8789 94.3661 90.1804 94.5649L92.6512 94.714L94.27 67.5139L91.7992 67.3648C91.6856 67.3577 91.5649 67.3506 91.4442 67.3506Z" fill="#371A45"/>
<g opacity="0.25">
<path d="M197.568 126.749C197.554 126.771 197.539 126.792 197.532 126.813C197.547 126.799 197.554 126.778 197.561 126.756C197.568 126.756 197.568 126.756 197.568 126.749Z" fill="#000072"/>
</g>
<path d="M115.783 126.046C115.755 126.039 115.726 126.025 115.684 125.99C115.826 126.032 115.861 126.061 115.783 126.046Z" fill="#EF5050"/>
<path d="M139.973 131.591C166.323 131.591 187.685 110.23 187.685 83.8794C187.685 57.5288 166.323 36.1674 139.973 36.1674C113.622 36.1674 92.2606 57.5288 92.2606 83.8794C92.2606 110.23 113.622 131.591 139.973 131.591Z" fill="white"/>
<path d="M140.008 131.826C137.935 131.826 135.848 131.691 133.739 131.414C121.044 129.745 109.755 123.235 101.952 113.082C94.1493 102.929 90.7768 90.3404 92.4382 77.6385C95.8746 51.4253 120 32.9014 146.214 36.3378C158.908 38.0063 170.197 44.517 178 54.67C185.803 64.823 189.176 77.4113 187.514 90.1132C184.348 114.218 163.694 131.826 140.008 131.826ZM139.944 36.4017C116.493 36.4017 96.0379 53.8322 92.9068 77.7024C89.4988 103.66 107.845 127.544 133.803 130.945C135.897 131.222 137.999 131.357 140.079 131.357C150.474 131.357 160.52 127.963 168.898 121.524C178.952 113.799 185.406 102.623 187.053 90.0493C188.7 77.4752 185.356 65.0147 177.631 54.954C169.906 44.9004 158.731 38.4465 146.157 36.7993C144.069 36.5366 141.996 36.4017 139.944 36.4017Z" fill="#371A45"/>
<g opacity="0.35">
<path d="M187.685 83.4818C187.706 85.6615 187.571 87.8625 187.28 90.0919C183.851 116.213 159.895 134.616 133.767 131.187C107.646 127.757 89.2432 103.802 92.6725 77.674C92.7719 76.9214 92.8855 76.1759 93.0204 75.4375C93.1908 98.8817 110.621 119.202 134.52 122.34C159.895 125.663 183.219 108.41 187.685 83.4818Z" fill="#371A45"/>
</g>
<path d="M140.079 132.94C137.928 132.94 135.762 132.798 133.597 132.514C120.604 130.81 109.052 124.151 101.072 113.756C93.0914 103.362 89.6337 90.4895 91.3377 77.4965C93.0417 64.5035 99.7015 52.9518 110.096 44.9714C120.49 36.991 133.363 33.5333 146.356 35.2373C159.349 36.9413 170.9 43.6011 178.881 53.9955C186.861 64.3899 190.319 77.2622 188.615 90.2552C186.911 103.248 180.251 114.8 169.857 122.78C161.195 129.433 150.814 132.94 140.079 132.94ZM139.88 37.5093C129.734 37.5093 119.922 40.825 111.736 47.1085C101.917 54.6487 95.619 65.5685 94.0073 77.8444C92.3956 90.1203 95.6616 102.297 103.209 112.116C110.749 121.935 121.669 128.233 133.945 129.845C135.99 130.115 138.041 130.25 140.072 130.25C150.218 130.25 160.03 126.934 168.216 120.65C178.036 113.11 184.333 102.19 185.945 89.9144C187.557 77.6385 184.291 65.462 176.744 55.6427C169.203 45.8234 158.284 39.5257 146.008 37.914C143.963 37.6442 141.911 37.5093 139.88 37.5093Z" fill="#371A45"/>
<path d="M186.968 91.2776C185.895 100.55 181.884 108.815 175.913 115.339C171.433 120.231 154.485 127.743 134.868 125.649C116.685 123.703 101.278 112.102 98.0329 106.315C93.709 98.5977 91.6997 89.6375 92.7718 80.3649C95.6189 55.8202 117.877 48.0954 143.892 51.1058C169.906 54.1162 189.815 66.74 186.968 91.2776Z" fill="#371A45"/>
<g opacity="0.5">
<path d="M177.907 87.9522C179.261 83.4908 177.737 79.0784 174.502 78.0968C171.268 77.1152 167.548 79.9362 166.194 84.3976C164.84 88.859 166.365 93.2713 169.599 94.2529C172.834 95.2345 176.553 92.4136 177.907 87.9522Z" fill="white"/>
</g>
<g opacity="0.5">
<path d="M165.694 103.321C166.593 101.378 165.971 99.1777 164.306 98.4073C162.64 97.637 160.561 98.5877 159.662 100.531C158.764 102.474 159.385 104.674 161.051 105.444C162.716 106.215 164.795 105.264 165.694 103.321Z" fill="white"/>
</g>
<g opacity="0.7">
<path d="M180.464 67.3222C185.583 73.485 188.111 81.4228 186.968 91.2776C185.895 100.55 181.884 108.815 175.913 115.34C171.433 120.231 154.478 127.743 134.868 125.649C127.945 124.91 121.42 122.773 115.818 120.082C139.98 122.141 160.641 112.911 166.193 106.841C173.776 98.5551 178.859 88.0684 180.223 76.3037C180.592 73.1584 180.663 70.1693 180.464 67.3222Z" fill="#111A28"/>
</g>
<path d="M185.406 70.4675C185.093 70.4675 184.781 70.3468 184.554 70.0983L184.454 69.9918L184.376 69.8569C177.681 57.7301 162.991 49.5154 144.069 47.3215C125.041 45.1134 108.846 49.9627 99.6517 60.6198L99.5665 60.705C99.0908 61.1523 98.3453 61.131 97.898 60.6624C97.4649 60.208 97.472 59.5051 97.8909 59.0507C107.611 47.8114 124.537 42.6852 144.339 44.9785C164.02 47.2576 179.356 55.9054 186.428 68.6925C186.698 69.154 186.627 69.7646 186.222 70.148C185.988 70.361 185.697 70.4675 185.406 70.4675Z" fill="#371A45"/>
<g opacity="0.5">
<path d="M101.661 96.1908C101.661 96.1908 96.8686 71.0994 111.033 62.9628C125.198 54.8262 143.963 57.0414 143.388 58.1916C143.388 58.1916 122.024 60.8115 111.992 76.3037C104.246 88.2459 101.661 96.1908 101.661 96.1908Z" fill="white"/>
</g>
<path d="M51.3292 99.0592L57.1654 106.599C56.6471 106.706 56.1146 106.947 55.6318 107.324C54.3538 108.318 53.8923 109.865 54.6094 110.788C55.3265 111.711 56.9382 111.655 58.2233 110.668C59.5013 109.674 59.9628 108.126 59.2457 107.203C59.2386 107.196 59.2386 107.196 59.2315 107.189L53.6722 100.011L58.6209 93.8336L64.237 101.09C63.7471 101.203 63.243 101.438 62.7815 101.793C61.5035 102.787 61.042 104.334 61.7591 105.257C62.4761 106.18 64.0879 106.124 65.373 105.137C66.651 104.143 67.1125 102.595 66.3954 101.672L58.1097 90.9723C57.5559 90.2623 56.4767 90.2765 55.9513 91.0078L51.3008 97.4617C50.9529 97.9303 50.9671 98.5835 51.3292 99.0592Z" fill="#371A45"/>
<path d="M240.658 136.519L234.005 146.445C234.658 146.53 235.347 146.785 235.986 147.211C237.669 148.34 238.379 150.243 237.562 151.457C236.746 152.671 234.722 152.742 233.04 151.613C231.357 150.484 230.647 148.582 231.463 147.368C231.47 147.36 231.47 147.353 231.478 147.346L237.811 137.896L231.094 130.597L224.69 140.147C225.315 140.246 225.961 140.495 226.571 140.899C228.254 142.028 228.964 143.931 228.148 145.145C227.331 146.359 225.308 146.43 223.625 145.301C221.942 144.173 221.232 142.27 222.049 141.056L231.492 126.969C232.117 126.032 233.473 125.961 234.19 126.834L240.551 134.502C241.034 135.077 241.077 135.894 240.658 136.519Z" fill="#371A45"/>
<path d="M231.193 98.6616C231.009 98.9598 230.54 98.761 230.633 98.4202C231.229 96.1979 230.846 93.6916 229.376 91.9521C227.828 90.1203 225.393 89.3677 223.028 88.9914C222.389 88.892 221.814 89.389 221.814 90.0351V110.022C221.814 112.173 219.393 113.92 216.411 113.92C213.422 113.92 211.001 112.173 211.001 110.022C211.001 107.87 213.422 106.124 216.411 106.124C217.49 106.124 218.492 106.351 219.329 106.741V83.8439C219.329 82.786 220.132 82.4239 220.934 82.9351C221.523 83.5528 222.212 84.1137 222.886 84.6249C224.605 85.9313 226.607 86.8046 228.41 87.9974C230.207 89.1902 231.875 90.8303 232.329 92.9461C232.656 94.5223 232.209 97.0215 231.193 98.6616Z" fill="#371A45"/>
<path d="M62.107 132.692C62.7247 133.26 61.9863 134.24 61.2692 133.807C60.8929 133.579 60.474 133.402 60.0409 133.303C58.4505 132.933 56.8246 133.508 55.3762 134.261C54.9786 134.467 54.8579 134.978 55.1277 135.333L63.2572 146.26C64.1305 147.439 63.5199 149.377 61.8869 150.591C60.2539 151.805 58.2233 151.841 57.3429 150.662C56.4696 149.483 57.0802 147.545 58.7132 146.331C59.3025 145.891 59.9415 145.607 60.5592 145.479L51.2369 132.962C50.8109 132.387 51.0949 131.861 51.741 131.812C52.3161 131.911 52.9196 131.932 53.4947 131.939C54.9644 131.954 56.4199 131.62 57.8825 131.535C59.3522 131.457 60.9284 131.677 62.036 132.642C62.0715 132.664 62.0928 132.678 62.107 132.692Z" fill="#371A45"/>
</svg>
